<svg
  width="393"
  height="567"
  viewBox="0 0 393 567"
  fill="none"
  xmlns="http://www.w3.org/2000/svg"
>
  <circle
    cx="196"
    cy="71.0001"
    r="70.0001"
    fill="#B3BFB6"
    stroke="#201011"
    stroke-width="2"
  />
  <path
    d="M154.259 26.9632L154.491 25.5428L156.439 25.2327C156.311 26.4378 156.011 27.8268 155.62 29.2633L156.522 28.4034L156.999 26.266L158.824 26.5175L155.501 29.6862C155.251 30.6012 154.942 31.5345 154.614 32.4278L157.897 29.2977L158.185 27.9975L159.409 28.1653L155.103 32.2711L155.732 33.722L158.113 31.4517L158.572 29.6208L160.231 29.8385L159.856 30.196L161.015 31.4119C161.701 32.1313 161.469 33.1457 160.385 34.1794L160.066 33.8451L158.304 34.6349L159.794 33.2147L158.258 31.6037L155.826 33.9223L156.145 34.6428L154.24 35.6273L153.792 34.5075C153.247 35.7621 152.676 36.8872 152.131 37.7357L153.221 31.8599L150.06 34.8741L149.905 34.712L152.671 32.0746L151.242 30.575L149.225 32.4975L149.08 32.3455L151.097 30.423L149.966 29.2375L151.517 27.7594L152.647 28.9449L153.012 28.5971L153.39 26.8435L154.259 26.9632ZM154.109 27.8409L152.792 29.0968L153.748 30.1L154.109 27.8409Z"
    fill="#201011"
  />
  <path
    d="M166.006 25.4478L165.464 26.292L163.779 24.9369L165.215 23.9026L164.086 21.6969L162.728 22.3924L162.632 22.2054L163.99 21.51L162.784 19.1547L164.678 18.1849L165.865 20.5028L166.4 19.4896L167.388 20.0061L165.98 20.7271L166.956 22.6337L168.48 21.5234L167.326 23.3564L168.749 26.1354C169.196 27.0077 168.666 27.9394 167.314 28.616L167.11 28.2173L165.627 28.3003L167.085 27.5538L166.006 25.4478ZM170.376 26.6395L170.274 26.4401L173.663 24.7046L171.518 17.7188L173.735 17.1653L174.261 24.3984L175.931 23.5434L176.571 22.3351L177.591 22.9452L170.376 26.6395ZM171.432 24.5256L167.838 19.8703C169.251 20.3264 171.7 21.7305 172.83 22.7403L171.432 24.5256ZM167.089 19.4517L166.993 19.2648L169.136 18.1673L168.211 16.3604L170.105 15.3905L171.03 17.1975L172.065 16.6679L172.649 15.5353L173.681 16.0764L167.089 19.4517Z"
    fill="#201011"
  />
  <path
    d="M183.786 11.9883L183.746 11.7821L187.706 11.0215L188.702 9.97477L190.208 10.9116L186.892 14.3568L189.945 13.7706L191.117 12.7471L192.24 13.7716L191.827 13.8508L192.744 18.6216C192.918 19.5291 192.111 20.2258 190.736 20.4899L190.66 20.0912L188.742 19.8322L190.777 19.4413L190.246 16.6778C189.055 18.7884 187.066 20.6815 184.976 21.5964C186.848 19.3976 188.429 16.642 189.2 14.1273L188.527 14.2567C187.902 16.2014 186.375 18.4907 184.033 19.8814C185.014 18.3815 186.187 16.1032 186.684 14.6106L186.643 14.6185L185.16 16.1723L183.817 15.1187L187.457 11.2832L183.786 11.9883ZM185.275 17.2906L181.644 21.3952L179.914 19.5891L181.495 18.9147L180.711 14.8314L179.295 15.1034L179.252 14.8834L180.669 14.6114L180.098 11.6417L182.188 11.2403L182.758 14.21L183.02 14.1598L183.695 13.4456L184.451 14.1131L182.801 14.43L183.498 18.0596L185.275 17.2906Z"
    fill="#201011"
  />
  <path
    d="M196.879 15.3816L199.322 9.46701L201.535 10.1541C201.177 10.8234 200.75 11.4721 200.299 12.0764L202.028 12.2396C202.154 11.9422 202.281 11.6447 202.395 11.3321L204.371 12.2921C203.196 15.9498 199.96 18.9489 196.423 19.9228C198.394 18.112 200.594 15.5073 201.952 12.4434L200.14 12.2723C199.804 12.7046 199.441 13.1204 199.067 13.5069C199.671 13.8171 200.198 14.1903 200.63 14.681L198.861 15.9906L198.337 14.2396C197.862 14.6587 197.375 15.0487 196.879 15.3816ZM203.848 20.5113L204.831 10.0996L206.95 10.2997L205.967 20.7114L203.848 20.5113ZM207.75 17.1673L206.907 12.9816C207.983 13.6596 209.251 14.9746 209.808 16.2225L207.75 17.1673Z"
    fill="#201011"
  />
  <path
    d="M220.763 19.6827C221.602 17.381 221.358 15.3546 219.911 14.8269C218.451 14.2944 216.973 15.6924 216.133 17.9941C215.294 20.2958 215.52 22.3306 216.98 22.8631C218.427 23.3908 219.923 21.9844 220.763 19.6827ZM214.147 17.2698C215.155 14.5077 217.644 13.6872 220.012 14.5507C222.366 15.4094 223.743 17.6403 222.736 20.4023C221.724 23.1775 219.234 23.998 216.879 23.1393C214.512 22.2758 213.135 20.045 214.147 17.2698Z"
    fill="#201011"
  />
  <path
    d="M228.883 18.7815L235.841 23.2065L234.722 24.9667L234.521 24.839C235.076 23.9143 234.839 22.8514 233.977 22.303L233.138 21.7695L228.826 28.5505L229.665 29.0839L229.537 29.2847L226.052 27.0684L226.18 26.8676L227.03 27.4085L231.342 20.6276L230.504 20.0942C229.63 19.5382 228.567 19.7748 227.964 20.6694L227.764 20.5417L228.883 18.7815Z"
    fill="#201011"
  />
  <path
    d="M243.893 34.1009L243.723 33.9345C244.794 32.2993 244.671 30.9641 243.641 30.0149C242.05 28.5174 240.124 29.7857 238.743 31.1965C237.353 32.6173 236.136 34.561 237.658 36.1286C238.639 37.1278 239.976 37.2222 241.588 36.1158L241.758 36.2822L240.28 37.7931C239.207 37.5275 238.432 37.2587 237.452 36.3387C235.612 34.5766 235.136 31.8394 237.222 29.7081C239.308 27.5769 242.055 27.9927 243.846 29.8048C244.797 30.7548 245.083 31.5239 245.371 32.59L243.893 34.1009Z"
    fill="#201011"
  />
  <circle cx="196" cy="79.4002" r="51.1001" fill="#F6BD41" />
  <path
    d="M248.493 78.8987C248.493 82.1288 248.177 85.0233 247.617 87.8757C247.018 90.9263 246.163 93.9112 245.026 96.8243C243.935 99.6172 242.649 102.306 241.121 104.871C238.9 108.599 236.262 112.013 233.179 115.083C230.142 118.109 226.832 120.778 223.136 122.95C221.257 124.054 219.322 125.048 217.326 125.943C214.986 126.99 212.578 127.803 210.121 128.485C207.557 129.198 204.959 129.725 202.303 130.016C199.778 130.292 197.257 130.541 194.718 130.471C191.726 130.388 188.767 130.006 185.823 129.435C183.573 128.999 181.368 128.416 179.192 127.725C177.308 127.127 175.489 126.341 173.694 125.508C170.736 124.134 167.93 122.506 165.284 120.593C162.504 118.583 159.932 116.345 157.599 113.826C154.631 110.62 152.033 107.151 149.949 103.308C148.364 100.389 147.052 97.3581 146.011 94.1948C145.093 91.4044 144.401 88.5668 144.012 85.6686C143.675 83.1581 143.447 80.629 143.511 78.0837C143.564 75.9584 143.704 73.8367 143.989 71.7337C144.303 69.4077 144.778 67.1052 145.454 64.8486C146.337 61.9045 147.407 59.036 148.792 56.2889C150.752 52.3937 153.088 48.7474 155.952 45.4479C156.587 44.7147 156.576 43.7238 156.882 42.8593C156.986 42.5658 156.704 42.4035 156.416 42.3168C155.688 42.0976 155.568 41.726 155.9 41.0188C156.728 39.2551 157.881 37.7565 159.425 36.5576C159.666 36.3693 159.897 36.1587 160.027 35.8627C160.636 34.4755 161.836 33.7745 163.144 33.2172C165.011 32.4233 166.963 32.0629 168.99 32.1087C169.289 32.1149 169.55 32.0344 169.778 31.8189C170.262 31.3618 170.848 31.3371 171.46 31.4758C171.68 31.5253 171.925 31.5402 172.115 31.6479C173.657 32.5261 175.028 31.8337 176.442 31.2504C179.461 30.0044 182.607 29.1907 185.806 28.5516C190.059 27.7019 194.357 27.4728 198.672 27.6623C201.95 27.8072 205.193 28.2791 208.391 29.0643C211.342 29.7889 214.215 30.724 216.985 31.9724C217.546 32.2251 218.116 32.1297 218.679 31.9551C219.191 31.7966 219.701 31.6368 220.217 31.4919C220.866 31.3086 221.46 31.3333 221.996 31.8473C222.451 32.2821 223.081 32.2127 223.646 32.2065C225.649 32.1818 227.526 32.6475 229.3 33.5553C230.332 34.0829 231.196 34.7877 231.705 35.8652C232.052 36.5997 232.766 37.0047 233.28 37.5893C234.243 38.6879 235.241 39.7629 235.731 41.1836C235.955 41.8363 235.835 42.1088 235.189 42.3775C234.907 42.4952 234.82 42.6723 234.881 42.9584C235.069 43.8526 235.359 44.6726 236.004 45.3822C238.299 47.9052 240.25 50.6857 241.936 53.6471C244.004 57.2798 245.591 61.123 246.702 65.1508C247.971 69.747 248.576 74.4387 248.493 78.8987ZM171.992 47.063C171.525 46.5762 171.27 46.4511 169.893 46.0226C168.831 45.6919 168.677 45.1618 169.417 44.3902C169.56 44.2415 169.703 44.0929 169.856 43.953C171.478 42.4654 174.15 42.4778 175.738 43.9715C175.98 44.1994 176.016 44.4781 175.948 44.7667C175.878 45.0652 175.593 44.9896 175.381 45.0181C175.034 45.0627 174.68 45.0664 174.338 45.137C174.017 45.2039 173.918 45.3872 174.193 45.6535C174.385 45.8393 174.594 46.0151 174.754 46.2269C174.98 46.5279 175.386 46.7954 175.206 47.2388C175.044 47.6414 174.623 47.4197 174.32 47.4704C173.872 47.546 173.851 47.7404 174.106 48.0464C174.264 48.2359 174.462 48.3956 174.599 48.5975C175.139 49.3902 175.132 49.4125 174.229 49.7036C173.813 49.8373 173.867 50.0417 174.121 50.2683C174.398 50.5148 174.711 50.7192 174.986 50.9669C175.466 51.4028 175.428 51.632 174.858 51.902C174.381 52.1274 174.355 52.3119 174.758 52.6402C174.883 52.7417 175.011 52.8433 175.147 52.9275C176.182 53.5629 176.606 54.5215 176.403 55.7056C176.284 56.3992 176.07 57.0667 175.917 57.7492C175.343 60.3415 174.675 62.9164 174.263 65.5434C174.012 67.1312 173.699 68.7116 173.736 70.3304C173.787 72.54 174.301 74.6108 175.548 76.4687C177.399 79.2244 179.949 81.1739 182.815 82.7506C184.804 83.8455 186.896 84.6592 189.09 85.2847C191.369 85.9349 193.66 86.2904 196.014 86.3214C198.811 86.3585 201.483 85.7293 204.127 84.871C207.909 83.6436 211.27 81.7437 214.123 78.9482C217.137 75.9931 218.357 72.4174 217.801 68.2682C217.284 64.4064 216.436 60.604 215.496 56.8228C215.337 56.1812 215.241 55.521 215.272 54.8621C215.323 53.771 216.129 53.1802 216.893 52.577C217.033 52.4668 217.256 52.416 217.24 52.1844C217.223 51.9354 216.995 51.9491 216.825 51.8896C216.388 51.736 216.36 51.4945 216.645 51.1465C216.895 50.8405 217.18 50.5755 217.493 50.3426C217.648 50.2275 217.819 50.1222 217.768 49.9067C217.722 49.711 217.528 49.7184 217.367 49.6837C216.756 49.55 216.689 49.3753 217.053 48.8725C217.186 48.6904 217.334 48.5207 217.468 48.3399C217.633 48.117 218.027 47.9758 217.91 47.6575C217.793 47.333 217.401 47.4964 217.134 47.432C217.114 47.4271 217.093 47.4296 217.072 47.4271C216.529 47.3602 216.429 47.1732 216.675 46.6926C216.887 46.2802 217.216 45.9668 217.565 45.677C217.702 45.5631 217.82 45.4516 217.765 45.2671C217.708 45.0738 217.523 45.0615 217.36 45.0466C217.011 45.0132 216.662 44.9847 216.311 44.9686C216.05 44.9562 215.891 44.8422 215.817 44.5883C215.74 44.3233 215.764 44.0434 215.997 43.922C216.688 43.5628 217.292 43.003 218.092 42.8928C219.914 42.6413 221.479 43.1045 222.65 44.6106C223.064 45.1432 222.847 45.9049 222.18 45.9966C221.531 46.0857 220.971 46.3855 220.37 46.5874C220.233 46.6332 220.067 46.6666 220.062 46.8425C220.056 47.0753 220.261 47.0506 220.416 47.0952C221.615 47.4444 222.647 48.0104 223.253 49.1809C223.449 49.5574 223.543 49.8683 223.152 50.1494C223.018 50.246 222.936 50.3563 222.998 50.5111C223.356 51.4029 223.255 52.3305 223.216 53.2532C223.208 53.47 223.294 53.7499 223.033 53.8614C222.782 53.9679 222.613 53.7437 222.46 53.5864C221.938 53.0576 221.249 52.821 220.607 52.5052C220.488 52.4469 220.311 52.3541 220.204 52.4891C220.056 52.6786 220.271 52.7814 220.371 52.8879C220.905 53.4551 221.205 54.1574 221.517 54.851C221.633 55.1098 221.713 55.386 221.253 55.3897C220.962 55.3922 220.923 55.5854 220.976 55.8183C221.3 57.2501 220.75 58.4824 220.125 59.7098C219.906 60.1396 219.724 60.0393 219.506 59.7594C219.33 59.5327 219.196 59.2738 219.018 59.0484C218.893 58.8899 218.718 58.7858 218.59 59.0608C218.089 60.1483 217.619 61.227 218.007 62.4854C218.242 63.2508 218.359 64.0547 218.518 64.8424C218.655 65.5174 218.759 65.5855 219.362 65.2189C220.469 64.5451 221.584 63.8775 222.648 63.1406C223.732 62.39 224.72 61.528 225.449 60.3935C225.97 59.5835 226.169 58.6484 226.565 57.7938C226.621 57.6736 226.605 57.4792 226.802 57.4891C226.969 57.499 227.035 57.6513 227.068 57.7925C227.149 58.1331 227.214 58.4775 227.286 58.8205C227.332 59.0373 227.307 59.3048 227.58 59.3865C227.829 59.4609 227.943 59.2317 228.079 59.0905C229.112 58.0155 229.986 56.824 230.658 55.4888C231.02 54.7668 231.366 54.036 231.775 53.1938C231.92 53.5121 232.01 53.6942 232.086 53.8812C232.145 54.0261 232.119 54.2552 232.325 54.2651C232.524 54.275 232.555 54.0509 232.616 53.9084C233.063 52.8643 233.484 51.814 233.479 50.6486C233.475 49.4719 233.479 48.2953 233.488 47.1199C233.489 46.9478 233.413 46.7508 233.588 46.5923C233.8 46.679 233.869 47.0791 234.171 46.9106C234.428 46.7669 234.363 46.4808 234.343 46.2368C234.249 45.0156 234.003 43.8303 233.501 42.707C233.256 42.1571 232.867 41.7706 232.28 41.5588C231.751 41.3681 231.248 41.103 230.702 40.8566C230.911 40.599 231.148 40.5754 231.365 40.5878C232.104 40.6299 232.853 40.6126 233.567 40.8615C233.763 40.9297 234.003 41.0622 234.129 40.8591C234.232 40.6943 234.097 40.4702 233.976 40.293C233.556 39.68 233.104 39.0954 232.611 38.5368C231.274 37.022 229.528 36.1587 227.713 35.3946C227.419 35.2707 226.929 35.153 226.977 34.8607C227.032 34.5139 227.508 34.7456 227.793 34.6861C227.977 34.6477 228.253 34.7195 228.276 34.4248C228.294 34.1795 228.052 34.1672 227.888 34.0978C225.755 33.1936 223.543 33.0351 221.279 33.4104C220.679 33.5107 220.084 33.6507 219.411 33.7882C219.476 33.6024 219.501 33.507 219.54 33.4178C219.617 33.242 219.907 33.0958 219.733 32.8902C219.565 32.6883 219.295 32.8208 219.103 32.9187C218.589 33.1776 218.043 33.3658 217.557 33.6878C215.491 35.0589 213.998 36.9762 212.535 38.9232C211.855 39.8286 211.287 40.8194 210.491 41.6344C209.821 42.3205 208.776 42.4754 208.134 42.001C206.142 40.5284 203.909 39.5883 201.486 39.1511C197.952 38.5145 194.4 38.4724 190.865 39.1573C188.417 39.6316 186.093 40.4578 183.985 41.8363C182.656 42.7057 181.8 42.5001 180.823 41.2083C179.308 39.2043 177.879 37.1335 176.088 35.3512C175.054 34.3232 173.931 33.4414 172.55 32.9311C172.364 32.8617 172.137 32.7465 171.964 32.9026C171.743 33.1008 172.034 33.211 172.098 33.3609C172.142 33.4699 172.28 33.5764 172.19 33.6916C172.084 33.829 171.918 33.756 171.789 33.7052C171.166 33.4612 170.501 33.4079 169.852 33.3237C167.812 33.0574 165.824 33.2952 163.911 34.073C163.767 34.1312 163.555 34.1486 163.57 34.3653C163.587 34.6217 163.824 34.5808 163.994 34.6328C164.311 34.7307 164.708 34.5375 164.983 34.9152C164.475 35.2596 163.931 35.4924 163.374 35.7005C160.983 36.5947 159.067 38.0896 157.659 40.2249C157.535 40.4119 157.343 40.6287 157.481 40.8417C157.642 41.0894 157.888 40.8937 158.094 40.8355C158.918 40.6039 159.757 40.5346 160.607 40.6138C160.74 40.6262 160.931 40.6126 160.952 40.8008C160.968 40.9433 160.811 40.9829 160.705 41.0424C160.346 41.2455 159.976 41.4214 159.584 41.5613C158.944 41.7892 158.42 42.1632 158.119 42.8073C157.613 43.8923 157.408 45.0416 157.361 46.2257C157.351 46.4784 157.252 46.8053 157.572 46.9391C157.872 47.0654 157.855 46.6319 158.078 46.5861C158.117 46.5787 158.158 46.5849 158.237 46.5849C158.237 47.7565 158.247 48.9257 158.234 50.0962C158.221 51.4239 158.615 52.6587 159.058 53.8837C159.105 54.015 159.137 54.1784 159.327 54.1722C159.498 54.1673 159.568 54.0385 159.619 53.8961C159.702 53.6694 159.706 53.4118 159.899 53.1901C160.3 53.5406 160.398 54.0459 160.59 54.4856C161.306 56.118 162.177 57.6489 163.424 58.937C163.597 59.1165 163.751 59.4448 164.049 59.3692C164.373 59.2875 164.272 58.9233 164.342 58.6781C164.386 58.5196 164.401 58.3499 164.462 58.1988C164.573 57.9201 164.583 57.4247 164.847 57.4247C165.164 57.4247 165.209 57.8966 165.304 58.2C165.646 59.2862 166.086 60.3179 166.842 61.1948C168.381 62.9783 170.419 64.0745 172.39 65.2672C172.842 65.5409 172.982 65.2944 173.064 64.9167C173.23 64.1513 173.325 63.3648 173.562 62.6229C173.969 61.3484 173.604 60.1792 173.212 59.0001C173.174 58.8849 173.112 58.7437 172.966 58.7735C172.885 58.7896 172.808 58.8948 172.76 58.9778C172.571 59.2961 172.394 59.6219 172.211 59.9451C172.091 60.1582 171.958 60.1309 171.837 59.9551C170.989 58.7239 170.533 57.3912 170.812 55.8777C170.87 55.5607 171.06 55.2275 170.475 55.1903C170.198 55.173 170.243 54.8696 170.328 54.6862C170.473 54.3717 170.568 54.0385 170.795 53.7524C171.141 53.3152 171.43 52.8321 171.789 52.3008C170.697 52.4147 169.956 52.9969 169.224 53.5976C169.061 53.7313 168.969 54.0224 168.679 53.8614C168.451 53.7363 168.41 53.5009 168.425 53.2681C168.491 52.2438 168.49 51.2072 168.922 50.2436C168.989 50.0937 169.116 49.95 168.818 49.8906C168.208 49.7704 168.386 49.4187 168.599 49.0707C169.157 48.1603 170.003 47.6476 170.995 47.328C171.314 47.2289 171.667 47.2958 171.992 47.063ZM246.86 78.4962C246.923 74.4399 246.383 70.6437 245.477 66.9095C244.565 63.1567 243.22 59.5476 241.418 56.1217C239.871 53.1826 238.114 50.3786 235.98 47.8222C235.878 47.7008 235.82 47.5088 235.603 47.572C235.407 47.629 235.386 47.8036 235.371 47.9696C235.231 49.5388 234.841 51.0523 234.366 52.5473C233.927 53.9283 233.377 55.256 232.494 56.4215C232.27 56.7175 232.019 56.9664 231.617 56.6828C231.367 56.5057 231.311 56.7212 231.207 56.8711C230.785 57.4817 230.375 58.1009 229.926 58.6905C229.262 59.5624 228.532 60.3724 227.582 60.9508C227.389 61.0685 227.164 61.2345 226.959 61.0499C226.581 60.7093 226.422 60.9954 226.242 61.2518C225.657 62.0854 224.922 62.7678 224.15 63.4255C222.727 64.638 221.081 65.4988 219.492 66.4475C219.132 66.663 219.018 66.912 219.067 67.3071C219.156 68.023 219.233 68.7413 219.288 69.4622C219.477 71.9777 218.948 74.3346 217.701 76.5281C216.881 77.9698 215.831 79.2232 214.596 80.3255C214.26 80.6252 214.034 80.92 214.472 81.3287C215.984 82.7357 217.246 84.3508 218.348 86.0934C218.535 86.3895 218.77 86.5802 219.094 86.7016C220.638 87.2812 222.175 87.8782 223.717 88.4566C227.46 89.8611 231.191 91.2978 234.957 92.6442C236.806 93.3055 238.415 94.1874 239.293 96.039C239.919 97.3606 240.52 98.6932 241.136 100.02C241.209 100.178 241.189 100.44 241.421 100.45C241.651 100.459 241.751 100.248 241.848 100.057C242.471 98.8332 242.981 97.5624 243.501 96.2929C244.528 93.7861 245.282 91.1975 245.837 88.5557C246.546 85.1794 246.97 81.7647 246.86 78.4962ZM145.113 78.7798C145.163 81.9344 145.487 85.1918 146.14 88.4133C146.943 92.3717 148.246 96.1641 149.993 99.8042C150.071 99.9677 150.09 100.189 150.329 100.194C150.591 100.201 150.642 99.9702 150.728 99.7857C151.25 98.666 151.787 97.5525 152.296 96.4267C152.995 94.881 154.038 93.6858 155.662 93.0764C158.016 92.1933 160.375 91.3214 162.729 90.4395C166.008 89.2121 169.286 87.981 172.563 86.7511C172.896 86.626 173.191 86.4576 173.392 86.143C174.322 84.6803 175.385 83.3191 176.564 82.0496C177.629 80.9027 177.623 80.92 176.499 79.7979C174.376 77.6775 172.895 75.2165 172.455 72.1895C172.226 70.6165 172.35 69.0621 172.567 67.5077C172.638 66.9987 172.568 66.6445 172.053 66.4005C171.534 66.1552 171.06 65.8159 170.565 65.5211C168.699 64.4076 166.917 63.1877 165.578 61.4351C165.315 61.092 165.133 60.7044 164.632 61.128C164.493 61.2444 164.328 61.1342 164.177 61.0499C163.831 60.8567 163.538 60.6028 163.248 60.3365C162.189 59.3655 161.351 58.2235 160.604 57.0048C160.496 56.8277 160.364 56.4561 160.142 56.637C159.458 57.1931 159.255 56.5565 159.023 56.2022C157.517 53.8985 156.822 51.2988 156.325 48.631C156.29 48.4427 156.391 48.169 156.119 48.112C155.925 48.0711 155.802 48.2619 155.688 48.4117C155.195 49.0669 154.684 49.7085 154.207 50.3748C151.567 54.0694 149.515 58.0762 147.978 62.3393C146.079 67.6031 145.183 73.0552 145.113 78.7798ZM215.805 33.4141C215.747 33.1392 215.53 33.0884 215.348 33.0066C214.389 32.5756 213.407 32.2102 212.411 31.8709C208.173 30.4267 203.821 29.5449 199.354 29.2699C194.493 28.9714 189.673 29.2935 184.907 30.3574C181.985 31.0088 179.123 31.8312 176.374 33.0302C175.709 33.32 175.688 33.4116 176.221 33.8848C176.837 34.4334 177.408 35.0267 177.962 35.6386C179.32 37.1384 180.426 38.8377 181.733 40.376C182.385 41.1414 182.571 41.1836 183.376 40.6435C185.106 39.483 187.008 38.7126 189.014 38.2036C192.301 37.3701 195.634 37.1384 199.017 37.4617C201.125 37.6636 203.172 38.0773 205.152 38.8179C206.336 39.2601 207.424 39.8831 208.469 40.5853C209.198 41.0746 209.483 41.0386 210.041 40.3748C210.266 40.1072 210.49 39.836 210.691 39.5511C212.154 37.479 213.658 35.4429 215.562 33.7399C215.665 33.6482 215.732 33.5157 215.805 33.4141ZM195.852 128.858C196.648 128.878 197.436 129.006 197.9 128.041C198.907 125.953 199.997 123.905 201.046 121.838C201.459 121.024 201.689 120.199 201.186 119.323C201.046 119.079 200.984 118.789 200.893 118.518C199.835 115.421 198.772 112.327 197.732 109.226C197.609 108.861 197.41 108.763 197.089 108.863C196.236 109.131 195.395 109.148 194.541 108.851C194.29 108.763 194.027 108.759 193.907 109.131C193.419 110.638 192.921 112.143 192.4 113.639C191.783 115.408 191.153 117.17 190.5 118.925C190.156 119.853 189.93 120.742 190.556 121.654C190.807 122.02 190.959 122.452 191.169 122.849C192.14 124.688 193.065 126.553 194.152 128.329C194.383 128.706 194.666 128.895 195.11 128.861C195.355 128.843 195.604 128.858 195.852 128.858ZM180.016 82.7209C179.673 82.7679 179.753 83.0033 179.769 83.2014C179.847 84.1266 179.913 85.0531 180.013 85.9745C180.091 86.6904 180.135 87.4261 180.331 88.1123C181.439 91.9506 182.584 95.7789 183.726 99.6073C184.031 100.63 184.369 101.643 184.7 102.659C184.757 102.834 184.827 103.033 185.026 103.083C185.173 103.119 185.216 102.959 185.27 102.85C186.351 100.638 187.714 98.6115 189.297 96.7301C190.387 95.4346 191.54 94.2419 193.404 94.2022C193.549 94.1998 193.733 94.1923 193.752 94.0202C193.762 93.9322 193.643 93.8121 193.557 93.7328C193.375 93.5656 193.181 93.4108 192.984 93.2609C190.883 91.6669 188.814 90.032 186.802 88.3253C184.711 86.553 182.608 84.7955 180.505 83.0367C180.354 82.9091 180.23 82.7159 180.016 82.7209ZM211.895 83.2349C211.927 83.0825 211.991 82.893 211.808 82.7977C211.611 82.6949 211.454 82.8187 211.308 82.9401C210.594 83.5334 209.88 84.1242 209.169 84.7199C206.881 86.6397 204.581 88.5445 202.317 90.4903C201.066 91.5666 199.741 92.5463 198.465 93.5892C198.323 93.7056 198.126 93.8307 198.162 94.0227C198.205 94.2506 198.45 94.2084 198.627 94.2183C199.648 94.2778 200.478 94.746 201.204 95.4247C202.581 96.714 203.691 98.2251 204.748 99.7733C205.351 100.656 205.922 101.564 206.391 102.532C206.474 102.702 206.575 102.888 206.778 102.891C207.021 102.894 207.014 102.65 207.077 102.486C207.674 100.925 208.182 99.3348 208.647 97.7309C209.222 95.7517 209.699 93.744 210.313 91.7784C211.184 88.9904 211.801 86.1653 211.895 83.2349ZM228.18 112.124C228.183 110.92 227.72 110.022 226.801 109.833C225.411 109.545 224.773 108.646 224.41 107.389C223.911 105.664 222.502 105.172 221.002 106.183C219.953 106.89 219.077 107.798 218.231 108.724C216.05 111.112 213.99 113.604 211.975 116.135C211.483 116.751 211.514 116.94 212.291 117.102C214.653 117.597 217.033 117.641 219.425 117.355C219.772 117.312 219.971 117.135 220.06 116.785C220.261 115.987 220.462 115.186 220.717 114.404C221.023 113.467 221.2 112.483 221.662 111.599C221.797 111.339 221.962 111.066 222.307 111.123C222.626 111.175 222.796 111.447 222.862 111.728C222.99 112.274 222.991 112.83 222.822 113.376C222.754 113.598 222.601 113.74 222.377 113.744C222.072 113.749 221.933 113.909 221.859 114.175C221.65 114.926 221.414 115.669 221.231 116.426C221.107 116.937 221.297 117.104 221.818 117.025C223.059 116.836 224.285 116.572 225.514 116.308C226.346 116.13 227.004 115.919 227.276 114.975C227.551 114.018 228.188 113.176 228.18 112.124ZM182.395 99.1825C182.483 100.89 182.973 102.458 183.461 104.019C184.271 106.613 185.13 109.19 186.133 111.718C187.043 114.013 187.987 116.294 188.98 118.555C189.064 118.745 189.155 118.958 189.404 118.946C189.617 118.935 189.608 118.718 189.659 118.57C190.718 115.517 191.743 112.45 192.853 109.415C193.158 108.583 193.113 107.933 192.703 107.15C191.461 104.781 190.206 102.419 188.875 100.099C188.565 99.559 188.417 99.5392 188.062 100.047C187.711 100.552 187.386 101.08 187.085 101.619C186.644 102.409 186.244 103.223 185.808 104.017C185.587 104.422 185.206 104.548 184.758 104.519C184.311 104.491 184.213 104.126 184.076 103.815C183.927 103.478 183.819 103.122 183.694 102.776C183.264 101.583 182.833 100.393 182.395 99.1825ZM209.314 99.289C209.005 100.113 208.693 100.935 208.392 101.761C208.138 102.457 207.909 103.163 207.649 103.857C207.525 104.187 207.359 104.508 206.936 104.537C206.523 104.565 206.223 104.373 206.005 104.039C205.916 103.901 205.838 103.755 205.763 103.61C205.182 102.498 204.584 101.396 203.905 100.339C203.396 99.5491 203.219 99.5466 202.741 100.336C202.708 100.389 202.686 100.447 202.655 100.5C201.279 102.821 200.128 105.265 198.808 107.616C198.537 108.099 198.517 108.531 198.688 109.028C199.183 110.468 199.658 111.915 200.152 113.356C200.751 115.109 201.361 116.859 201.97 118.609C202.022 118.758 202.037 118.978 202.244 118.971C202.445 118.963 202.545 118.778 202.62 118.603C202.857 118.056 203.091 117.508 203.33 116.962C204.904 113.38 206.339 109.742 207.602 106.042C208.349 103.843 209.077 101.63 209.314 99.289ZM195.803 108.07C196.888 108.015 197.77 107.636 198.297 106.579C199.353 104.46 200.427 102.348 201.615 100.297C202.752 98.3341 202.816 98.8852 201.334 96.9977C200.889 96.4316 200.412 96.1666 199.699 96.5023C199.466 96.6112 199.176 96.6137 198.91 96.6385C196.852 96.8317 194.732 97.1178 192.753 96.5902C191.04 96.1344 190.351 97.0051 189.565 98.0802C189.517 98.147 189.472 98.2164 189.421 98.282C189.214 98.5446 189.229 98.8121 189.403 99.0821C190.943 101.497 192.231 104.051 193.512 106.608C194.001 107.587 194.696 108.11 195.803 108.07ZM195.382 95.5671C194.668 95.0259 193.962 95.4445 193.248 95.5907C193.957 95.6935 194.664 95.7579 195.382 95.5671ZM198.424 95.5845C197.806 95.3591 197.324 95.1547 196.783 95.2563C196.62 95.2872 196.451 95.3913 196.462 95.5733C196.473 95.7517 196.669 95.748 196.802 95.7443C197.298 95.7269 197.802 95.7554 198.424 95.5845Z"
    fill="#201011"
  />
  <path
    d="M171.992 47.063C171.666 47.2959 171.314 47.229 171.001 47.3293C170.011 47.6489 169.165 48.1629 168.605 49.072C168.392 49.42 168.215 49.7717 168.824 49.8919C169.123 49.9501 168.996 50.0938 168.928 50.2449C168.496 51.2097 168.497 52.2451 168.431 53.2694C168.417 53.5022 168.457 53.7376 168.685 53.8627C168.976 54.0237 169.068 53.7326 169.23 53.5989C169.962 52.9994 170.703 52.416 171.795 52.3021C171.435 52.8347 171.146 53.3177 170.801 53.7537C170.574 54.0398 170.477 54.373 170.334 54.6875C170.25 54.8709 170.205 55.1743 170.481 55.1916C171.066 55.2288 170.876 55.562 170.818 55.879C170.539 57.3938 170.996 58.7252 171.844 59.9563C171.965 60.1322 172.099 60.1595 172.218 59.9464C172.398 59.6232 172.577 59.2974 172.766 58.9791C172.816 58.8962 172.893 58.7909 172.972 58.7748C173.118 58.745 173.18 58.8862 173.218 59.0014C173.611 60.1805 173.975 61.3497 173.568 62.6242C173.331 63.3661 173.236 64.1526 173.07 64.918C172.988 65.2957 172.848 65.5422 172.396 65.2685C170.425 64.077 168.387 62.9809 166.849 61.1961C166.092 60.318 165.652 59.2875 165.31 58.2013C165.215 57.8979 165.17 57.4272 164.853 57.426C164.589 57.426 164.579 57.9214 164.468 58.2001C164.407 58.3512 164.392 58.5209 164.348 58.6794C164.279 58.9246 164.38 59.2888 164.056 59.3705C163.757 59.4461 163.604 59.1166 163.43 58.9383C162.183 57.6502 161.311 56.1193 160.596 54.4869C160.404 54.0472 160.306 53.5419 159.905 53.1914C159.712 53.4131 159.707 53.6707 159.625 53.8974C159.575 54.0385 159.503 54.1674 159.333 54.1735C159.143 54.1797 159.111 54.0163 159.064 53.885C158.621 52.66 158.227 51.4252 158.241 50.0975C158.253 48.9283 158.243 47.7578 158.243 46.5862C158.163 46.5862 158.122 46.58 158.085 46.5874C157.862 46.632 157.878 47.0655 157.578 46.9404C157.258 46.8066 157.358 46.4784 157.367 46.227C157.413 45.0442 157.619 43.8936 158.125 42.8086C158.426 42.1645 158.95 41.7905 159.591 41.5626C159.982 41.4239 160.351 41.2468 160.711 41.0437C160.817 40.9842 160.973 40.9446 160.958 40.8021C160.937 40.6139 160.746 40.6263 160.614 40.6151C159.764 40.5359 158.924 40.6064 158.101 40.8368C157.894 40.895 157.649 41.0907 157.488 40.843C157.349 40.63 157.541 40.4132 157.665 40.2262C159.074 38.0909 160.989 36.596 163.381 35.7018C163.937 35.4937 164.48 35.2609 164.989 34.9165C164.713 34.5388 164.317 34.732 164 34.6341C163.83 34.5821 163.594 34.623 163.576 34.3666C163.563 34.1486 163.774 34.1325 163.917 34.0743C165.83 33.2977 167.818 33.0599 169.858 33.325C170.508 33.4092 171.172 33.4625 171.795 33.7065C171.924 33.7573 172.09 33.8303 172.197 33.6928C172.286 33.5764 172.148 33.4699 172.104 33.3622C172.041 33.2123 171.751 33.1021 171.97 32.9039C172.143 32.7478 172.37 32.8643 172.556 32.9324C173.937 33.4427 175.06 34.3245 176.094 35.3525C177.886 37.1348 179.316 39.2069 180.829 41.2096C181.807 42.5027 182.662 42.707 183.991 41.8376C186.099 40.4578 188.423 39.6329 190.871 39.1586C194.406 38.4737 197.958 38.5158 201.492 39.1524C203.915 39.5884 206.148 40.5284 208.141 42.0023C208.782 42.4767 209.828 42.3218 210.498 41.6357C211.293 40.8195 211.861 39.8286 212.541 38.9245C214.004 36.9775 215.498 35.0614 217.564 33.6891C218.049 33.3671 218.595 33.1789 219.109 32.92C219.302 32.8221 219.571 32.6896 219.74 32.8915C219.913 33.0983 219.623 33.2433 219.546 33.4191C219.507 33.5083 219.482 33.6037 219.418 33.7895C220.09 33.652 220.683 33.5108 221.285 33.4117C223.549 33.0364 225.761 33.1949 227.894 34.0991C228.058 34.1684 228.301 34.1796 228.282 34.4261C228.26 34.7208 227.983 34.649 227.799 34.6874C227.514 34.7469 227.038 34.514 226.983 34.862C226.936 35.1543 227.424 35.2708 227.72 35.3959C229.534 36.16 231.282 37.0233 232.617 38.5381C233.109 39.0967 233.562 39.6812 233.982 40.2943C234.103 40.4714 234.238 40.6956 234.135 40.8603C234.009 41.0635 233.767 40.9309 233.573 40.8628C232.86 40.6139 232.11 40.63 231.371 40.5891C231.154 40.5767 230.916 40.6003 230.708 40.8579C231.254 41.1043 231.757 41.3694 232.286 41.5601C232.872 41.7719 233.261 42.1584 233.507 42.7083C234.009 43.8316 234.255 45.0169 234.35 46.2381C234.368 46.4821 234.434 46.7682 234.177 46.9119C233.875 47.0804 233.806 46.6816 233.594 46.5936C233.419 46.7509 233.495 46.9478 233.494 47.1212C233.485 48.2979 233.48 49.4745 233.485 50.6499C233.489 51.8153 233.068 52.8656 232.622 53.9097C232.561 54.0534 232.53 54.2776 232.331 54.2664C232.126 54.2565 232.151 54.0274 232.092 53.8825C232.015 53.6955 231.926 53.5134 231.781 53.1951C231.372 54.0373 231.027 54.7681 230.664 55.4901C229.994 56.8253 229.119 58.0168 228.085 59.0918C227.949 59.233 227.836 59.4634 227.586 59.3878C227.315 59.3061 227.338 59.0386 227.292 58.8218C227.22 58.4788 227.155 58.1344 227.074 57.7938C227.041 57.6526 226.975 57.5003 226.808 57.4904C226.612 57.4792 226.627 57.6749 226.571 57.7951C226.175 58.6509 225.976 59.5848 225.456 60.3948C224.727 61.5293 223.738 62.3913 222.654 63.1419C221.59 63.8801 220.475 64.5464 219.368 65.2202C218.764 65.588 218.661 65.5199 218.525 64.8437C218.366 64.0547 218.25 63.2521 218.013 62.4867C217.625 61.2283 218.094 60.1496 218.596 59.0621C218.723 58.7871 218.897 58.8912 219.024 59.0497C219.202 59.2739 219.336 59.534 219.512 59.7607C219.728 60.0406 219.912 60.1421 220.131 59.7111C220.756 58.4837 221.306 57.2514 220.982 55.8196C220.929 55.5867 220.968 55.3935 221.259 55.391C221.719 55.3861 221.64 55.1111 221.523 54.8523C221.211 54.1587 220.911 53.4564 220.377 52.8892C220.277 52.7827 220.062 52.6799 220.21 52.4904C220.317 52.3541 220.494 52.4482 220.613 52.5065C221.256 52.8223 221.944 53.0601 222.466 53.5877C222.621 53.7438 222.788 53.9692 223.039 53.8627C223.299 53.7524 223.213 53.4725 223.222 53.2545C223.261 52.3318 223.362 51.4041 223.004 50.5124C222.943 50.3563 223.024 50.2461 223.158 50.1507C223.549 49.8696 223.455 49.5587 223.26 49.1822C222.651 48.0117 221.62 47.4457 220.422 47.0965C220.267 47.0519 220.062 47.0766 220.068 46.8438C220.072 46.6679 220.239 46.6345 220.376 46.5887C220.977 46.3868 221.537 46.087 222.186 45.9979C222.855 45.9062 223.07 45.1445 222.656 44.6119C221.485 43.1046 219.92 42.6426 218.099 42.8941C217.298 43.0043 216.694 43.5641 216.003 43.9233C215.769 44.0447 215.747 44.3246 215.823 44.5896C215.896 44.8435 216.056 44.9575 216.318 44.9699C216.668 44.986 217.017 45.0144 217.367 45.0479C217.529 45.064 217.715 45.0751 217.772 45.2684C217.826 45.4529 217.708 45.5644 217.571 45.6783C217.222 45.9681 216.893 46.2803 216.682 46.6939C216.435 47.1745 216.536 47.3615 217.078 47.4284C217.099 47.4309 217.12 47.4284 217.14 47.4333C217.407 47.499 217.799 47.3343 217.916 47.6588C218.032 47.9771 217.638 48.1183 217.474 48.3412C217.341 48.522 217.192 48.6917 217.059 48.8738C216.695 49.3766 216.762 49.5513 217.373 49.685C217.533 49.7197 217.728 49.7123 217.774 49.908C217.824 50.1247 217.653 50.23 217.499 50.3439C217.186 50.5768 216.901 50.8418 216.651 51.1478C216.366 51.4958 216.394 51.7373 216.832 51.8909C217 51.9503 217.229 51.9367 217.246 52.1857C217.263 52.4173 217.04 52.4668 216.9 52.5783C216.135 53.1827 215.33 53.7722 215.278 54.8634C215.247 55.5223 215.343 56.1825 215.503 56.8241C216.441 60.6054 217.29 64.4077 217.808 68.2695C218.364 72.4187 217.144 75.9944 214.129 78.9496C211.277 81.745 207.915 83.6461 204.133 84.8723C201.49 85.7294 198.817 86.3598 196.02 86.3226C193.666 86.2917 191.374 85.935 189.097 85.286C186.902 84.6605 184.81 83.8468 182.821 82.7519C179.955 81.174 177.405 79.2257 175.554 76.47C174.308 74.6134 173.793 72.5413 173.742 70.3317C173.705 68.7129 174.02 67.1325 174.269 65.5447C174.682 62.9177 175.349 60.344 175.923 57.7505C176.074 57.068 176.29 56.4005 176.409 55.7069C176.611 54.5228 176.188 53.5629 175.153 52.9288C175.016 52.8446 174.889 52.743 174.764 52.6415C174.36 52.3132 174.388 52.1287 174.864 51.9033C175.434 51.6345 175.473 51.4041 174.992 50.9682C174.718 50.7192 174.404 50.5149 174.127 50.2696C173.874 50.043 173.818 49.8399 174.235 49.7049C175.138 49.4138 175.146 49.3915 174.606 48.5988C174.468 48.3969 174.27 48.2372 174.113 48.0477C173.857 47.7417 173.879 47.5461 174.326 47.4717C174.628 47.421 175.049 47.6439 175.212 47.2401C175.392 46.7967 174.986 46.5292 174.76 46.2282C174.601 46.0164 174.391 45.8406 174.199 45.6548C173.924 45.3885 174.023 45.2052 174.344 45.1383C174.685 45.0677 175.04 45.064 175.387 45.0194C175.599 44.9922 175.884 45.0665 175.954 44.768C176.022 44.4794 175.987 44.202 175.744 43.9728C174.156 42.4791 171.484 42.4667 169.862 43.9543C169.71 44.0942 169.566 44.2428 169.423 44.3915C168.683 45.1631 168.838 45.6932 169.899 46.0239C171.27 46.4524 171.525 46.5763 171.992 47.063ZM189.856 69.9663C189.884 69.9663 189.913 69.9663 189.941 69.9663C189.941 71.8848 189.915 73.8046 189.95 75.7219C189.976 77.171 190.173 78.5842 190.857 79.9131C191.634 81.4242 193.871 82.8559 195.668 82.1401C195.914 82.0422 196.146 82.0967 196.388 82.1896C197.056 82.446 197.723 82.3704 198.382 82.1475C200.04 81.5877 200.901 80.3268 201.402 78.7328C201.867 77.2503 201.83 75.712 201.872 74.196C201.969 70.7949 201.942 67.3914 202.013 63.9903C202.049 62.3022 201.26 61.1714 199.766 60.5818C197.334 59.6232 194.826 59.6418 192.379 60.4741C190.588 61.0834 189.862 62.3071 189.857 64.2108C189.852 66.1305 189.856 68.0478 189.856 69.9663ZM184.188 61.455C182.408 61.455 181.223 62.5907 181.221 64.2975C181.218 65.7912 182.555 66.9839 184.235 66.9864C185.787 66.9888 187.104 65.7057 187.11 64.186C187.115 62.6985 185.785 61.455 184.188 61.455ZM207.757 61.4587C206.091 61.4215 204.857 62.5759 204.819 64.2083C204.784 65.6847 206.059 66.8898 207.649 66.969C209.406 67.0557 210.605 65.5831 210.639 64.3854C210.687 62.6985 209.505 61.4971 207.757 61.4587Z"
    fill="#B3BFB6"
  />
  <path
    d="M195.851 128.858C195.604 128.858 195.355 128.842 195.109 128.862C194.666 128.896 194.382 128.707 194.152 128.33C193.065 126.553 192.139 124.689 191.168 122.85C190.959 122.453 190.807 122.02 190.555 121.654C189.93 120.744 190.155 119.854 190.5 118.926C191.152 117.171 191.783 115.407 192.399 113.64C192.921 112.144 193.419 110.639 193.907 109.131C194.027 108.76 194.288 108.764 194.541 108.851C195.394 109.149 196.235 109.131 197.089 108.864C197.409 108.764 197.609 108.861 197.731 109.227C198.773 112.328 199.836 115.422 200.892 118.518C200.985 118.79 201.046 119.079 201.186 119.323C201.689 120.2 201.458 121.025 201.046 121.839C199.997 123.906 198.907 125.955 197.9 128.042C197.435 129.005 196.648 128.878 195.851 128.858Z"
    fill="#F6BD41"
  />
  <path
    d="M180.015 82.7206C180.231 82.7157 180.354 82.9101 180.505 83.0365C182.608 84.794 184.711 86.5527 186.801 88.3251C188.814 90.0318 190.883 91.6667 192.984 93.2607C193.181 93.4106 193.374 93.5654 193.557 93.7326C193.642 93.8119 193.762 93.932 193.752 94.0199C193.732 94.1921 193.549 94.1995 193.404 94.202C191.54 94.2416 190.387 95.4344 189.297 96.7299C187.714 98.6112 186.351 100.638 185.269 102.85C185.216 102.959 185.172 103.118 185.025 103.082C184.826 103.033 184.755 102.833 184.7 102.659C184.369 101.643 184.032 100.63 183.726 99.607C182.584 95.7787 181.439 91.9503 180.331 88.112C180.133 87.4259 180.091 86.6914 180.013 85.9743C179.913 85.0516 179.846 84.1251 179.769 83.2012C179.752 83.003 179.672 82.7677 180.015 82.7206Z"
    fill="#E3E3E3"
  />
  <path
    d="M211.894 83.2346C211.8 86.165 211.183 88.9901 210.311 91.7781C209.697 93.7437 209.22 95.7526 208.646 97.7306C208.18 99.3333 207.673 100.925 207.075 102.485C207.012 102.65 207.021 102.894 206.777 102.89C206.573 102.888 206.472 102.701 206.389 102.531C205.921 101.565 205.35 100.657 204.747 99.773C203.689 98.2248 202.579 96.7138 201.202 95.4244C200.476 94.7457 199.646 94.2775 198.626 94.2181C198.449 94.2082 198.203 94.2503 198.16 94.0224C198.124 93.8304 198.32 93.7053 198.463 93.5889C199.74 92.546 201.064 91.5663 202.315 90.49C204.579 88.543 206.881 86.6394 209.167 84.7196C209.878 84.1226 210.593 83.5318 211.306 82.9398C211.452 82.8184 211.609 82.6946 211.806 82.7974C211.991 82.8928 211.926 83.0823 211.894 83.2346Z"
    fill="#E3E3E3"
  />
  <path
    d="M228.18 112.124C228.187 113.174 227.551 114.017 227.275 114.974C227.002 115.916 226.344 116.127 225.512 116.306C224.285 116.57 223.059 116.833 221.816 117.023C221.295 117.103 221.105 116.936 221.229 116.424C221.412 115.667 221.648 114.924 221.857 114.174C221.931 113.908 222.071 113.747 222.375 113.743C222.599 113.739 222.753 113.596 222.821 113.375C222.989 112.828 222.988 112.272 222.86 111.726C222.795 111.445 222.623 111.173 222.305 111.122C221.96 111.066 221.795 111.338 221.66 111.597C221.198 112.482 221.022 113.465 220.715 114.403C220.46 115.184 220.259 115.984 220.059 116.783C219.97 117.135 219.77 117.312 219.423 117.353C217.032 117.639 214.651 117.596 212.289 117.1C211.513 116.938 211.483 116.75 211.973 116.133C213.989 113.603 216.048 111.111 218.229 108.723C219.075 107.796 219.952 106.888 221 106.181C222.499 105.171 223.908 105.662 224.409 107.388C224.773 108.645 225.409 109.544 226.799 109.831C227.719 110.022 228.182 110.92 228.18 112.124Z"
    fill="#F6BD41"
  />
  <path
    d="M182.395 99.1821C182.833 100.391 183.264 101.582 183.695 102.774C183.82 103.121 183.928 103.476 184.076 103.813C184.214 104.124 184.312 104.489 184.759 104.518C185.207 104.546 185.586 104.42 185.809 104.015C186.245 103.221 186.645 102.409 187.086 101.617C187.387 101.078 187.712 100.552 188.063 100.045C188.418 99.5363 188.566 99.5574 188.876 100.097C190.207 102.417 191.462 104.779 192.704 107.148C193.114 107.931 193.159 108.581 192.854 109.414C191.743 112.448 190.719 115.514 189.66 118.568C189.609 118.717 189.617 118.933 189.405 118.944C189.156 118.957 189.065 118.744 188.981 118.553C187.988 116.293 187.044 114.011 186.134 111.716C185.13 109.188 184.272 106.611 183.462 104.017C182.974 102.458 182.482 100.89 182.395 99.1821Z"
    fill="#E3E3E3"
  />
  <path
    d="M209.313 99.2886C209.075 101.629 208.348 103.843 207.598 106.041C206.336 109.743 204.9 113.38 203.326 116.962C203.086 117.508 202.853 118.055 202.616 118.603C202.541 118.778 202.441 118.963 202.24 118.97C202.032 118.978 202.017 118.757 201.966 118.609C201.358 116.859 200.749 115.109 200.148 113.356C199.655 111.914 199.179 110.468 198.684 109.027C198.513 108.531 198.533 108.098 198.804 107.615C200.126 105.265 201.275 102.822 202.651 100.5C202.682 100.447 202.704 100.388 202.737 100.335C203.215 99.5462 203.393 99.5487 203.901 100.339C204.58 101.395 205.178 102.498 205.759 103.61C205.834 103.756 205.912 103.901 206.001 104.038C206.219 104.373 206.519 104.565 206.932 104.536C207.355 104.508 207.521 104.187 207.645 103.856C207.905 103.163 208.135 102.457 208.388 101.761C208.693 100.935 209.006 100.112 209.313 99.2886Z"
    fill="#E3E3E3"
  />
  <path
    d="M195.803 108.07C194.697 108.11 194.001 107.588 193.511 106.608C192.231 104.052 190.943 101.497 189.401 99.083C189.229 98.813 189.213 98.5455 189.42 98.2829C189.47 98.2185 189.515 98.1479 189.563 98.081C190.35 97.006 191.038 96.134 192.751 96.5911C194.731 97.1174 196.851 96.8326 198.908 96.6394C199.174 96.6146 199.464 96.6121 199.697 96.5031C200.411 96.1675 200.887 96.4325 201.332 96.9985C202.815 98.8873 202.75 98.3349 201.613 100.298C200.425 102.349 199.352 104.46 198.295 106.58C197.77 107.635 196.888 108.013 195.803 108.07Z"
    fill="#F6BD41"
  />
  <path
    d="M195.382 95.5668C194.664 95.7575 193.956 95.6931 193.248 95.5903C193.961 95.4441 194.667 95.0255 195.382 95.5668Z"
    fill="#B3BFB6"
  />
  <path
    d="M198.424 95.5842C197.801 95.7551 197.298 95.7266 196.801 95.744C196.669 95.7489 196.473 95.7514 196.462 95.573C196.45 95.391 196.619 95.2869 196.783 95.256C197.324 95.1544 197.806 95.3588 198.424 95.5842Z"
    fill="#B3BFB6"
  />
  <path
    d="M189.856 69.9663C189.856 68.0478 189.852 66.1293 189.857 64.2108C189.861 62.3071 190.587 61.0834 192.379 60.474C194.826 59.6417 197.334 59.6232 199.766 60.5818C201.261 61.1713 202.048 62.3021 202.014 63.9903C201.943 67.3914 201.969 70.7961 201.872 74.196C201.829 75.712 201.867 77.2502 201.402 78.7328C200.9 80.3268 200.041 81.5876 198.382 82.1475C197.723 82.3704 197.054 82.4459 196.388 82.1896C196.148 82.0967 195.915 82.0422 195.668 82.14C193.873 82.8559 191.635 81.4229 190.857 79.9131C190.173 78.5854 189.976 77.171 189.95 75.7219C189.915 73.8033 189.941 71.8848 189.941 69.9663C189.913 69.9663 189.884 69.9663 189.856 69.9663ZM191.252 73.0875C191.312 73.0751 191.341 73.0788 191.351 73.0664C193.039 70.8283 198.102 70.6326 200.161 72.7964C200.241 72.8819 200.322 73.0268 200.46 72.9673C200.665 72.8794 200.564 72.6812 200.566 72.5276C200.582 69.5588 200.584 66.5913 200.618 63.6224C200.625 62.9239 200.313 62.4532 199.78 62.0718C199 61.512 198.12 61.32 197.173 61.258C195.724 61.1627 194.301 61.1751 192.902 61.6457C191.84 62.0024 191.233 62.7022 191.223 63.7822C191.2 66.4823 191.186 69.1835 191.192 71.8836C191.195 72.2799 191.096 72.6961 191.252 73.0875ZM198.887 74.0436C198.273 72.8918 196.017 72.1548 195.137 72.8955C196.549 72.9822 197.695 73.5779 198.887 74.0436Z"
    fill="#201011"
  />
  <path
    d="M184.188 61.4548C185.785 61.4548 187.115 62.6983 187.11 64.1871C187.105 65.7068 185.787 66.9899 184.235 66.9874C182.555 66.9837 181.218 65.7922 181.221 64.2986C181.223 62.5906 182.407 61.4548 184.188 61.4548ZM184.31 63.0897C184.329 63.6149 184.757 64.1128 185.126 64.0905C185.567 64.062 185.647 63.761 185.632 63.3944C185.61 62.8445 185.258 62.3912 184.866 62.4506C184.483 62.5088 184.339 62.7962 184.31 63.0897Z"
    fill="#201011"
  />
  <path
    d="M207.756 61.4585C209.505 61.4981 210.687 62.6995 210.64 64.3852C210.605 65.5829 209.407 67.0555 207.65 66.9688C206.059 66.8908 204.785 65.6844 204.82 64.2081C204.857 62.5744 206.09 61.4201 207.756 61.4585ZM209.229 63.4216C209.239 62.9113 208.896 62.4283 208.503 62.4444C208.097 62.4617 207.952 62.7516 207.933 63.1107C207.91 63.569 208.307 64.0731 208.694 64.0805C209.146 64.0904 209.218 63.7771 209.229 63.4216Z"
    fill="#201011"
  />
  <path
    d="M191.252 73.0874C191.096 72.6947 191.193 72.2786 191.193 71.8835C191.187 69.1834 191.201 66.4822 191.224 63.7821C191.234 62.7021 191.84 62.0023 192.903 61.6456C194.302 61.175 195.725 61.1626 197.174 61.2579C198.122 61.3199 199.001 61.5119 199.781 62.0717C200.314 62.4532 200.626 62.9238 200.619 63.6224C200.585 66.5899 200.583 69.5587 200.567 72.5275C200.565 72.6811 200.666 72.8793 200.461 72.9672C200.324 73.0267 200.243 72.8805 200.162 72.7963C198.103 70.6326 193.04 70.8295 191.352 73.0663C191.342 73.0787 191.312 73.0762 191.252 73.0874Z"
    fill="#B3BFB6"
  />
  <path
    d="M198.887 74.0434C197.694 73.5777 196.549 72.9819 195.137 72.8952C196.016 72.1546 198.274 72.8915 198.887 74.0434Z"
    fill="#B3BFB6"
  />
  <path
    d="M184.31 63.0898C184.341 62.7963 184.483 62.5077 184.866 62.4495C185.257 62.39 185.609 62.8433 185.632 63.3933C185.647 63.7599 185.567 64.0609 185.126 64.0893C184.757 64.1141 184.329 63.615 184.31 63.0898Z"
    fill="#B3BFB6"
  />
  <path
    d="M209.229 63.4215C209.218 63.777 209.145 64.0903 208.695 64.0816C208.309 64.0742 207.911 63.5701 207.935 63.1118C207.953 62.7514 208.098 62.4628 208.504 62.4455C208.897 62.4282 209.24 62.9112 209.229 63.4215Z"
    fill="#B3BFB6"
  />
  <path
    d="M197.616 85.0549C197.247 85.0873 196.829 85.0295 196.421 84.9072C196.059 84.7975 195.71 84.8379 195.346 84.9349C193.961 85.302 192.778 84.9187 191.789 83.9027C191.549 83.6556 191.335 83.382 191.114 83.1164C191.05 83.0414 191.009 82.9421 191.081 82.8555C191.166 82.755 191.25 82.8382 191.333 82.882C192.682 83.6013 194.098 83.8288 195.597 83.4778C196.179 83.3415 196.741 83.517 197.308 83.6002C198.385 83.7584 199.393 83.5794 200.364 83.0829C200.616 82.9536 200.987 82.6442 201.178 82.8589C201.407 83.1141 201.032 83.4201 200.845 83.6163C199.99 84.5204 198.982 85.1323 197.616 85.0549Z"
    fill="#8B8E87"
  />
  <path
    d="M176.001 53.4708C176.29 53.2168 176.34 52.8562 176.387 52.5154C176.529 51.4883 176.862 50.5107 177.129 49.517C177.187 49.3001 177.284 49.0883 177.394 48.8925C177.667 48.408 177.852 48.4055 178.198 48.8367C178.333 49.004 178.426 49.2877 178.693 49.2394C178.94 49.1948 178.899 48.9098 178.955 48.724C179.443 47.0785 180.245 45.614 181.442 44.3762C181.589 44.2238 181.726 43.9549 181.992 44.0788C182.219 44.1841 182.123 44.4456 182.127 44.6413C182.153 45.8358 182.057 47.0314 182.21 48.2246C182.36 49.3856 182.801 50.45 183.248 51.5093C184.181 53.7198 185.557 55.6688 186.885 57.65C187.795 59.0068 188.942 60.1603 189.905 61.4638C190.212 61.8801 190.457 61.4155 190.719 61.5146C189.953 62.4588 189.882 63.5615 189.905 64.72C189.954 67.3617 189.944 70.0045 189.954 72.6474C189.955 72.8915 190.006 73.1443 189.886 73.3784C189.604 73.2199 189.696 72.9435 189.695 72.7106C189.684 71.2039 189.679 69.6973 189.687 68.1906C189.689 67.6739 189.506 67.441 188.973 67.6293C188.818 67.6838 188.658 67.7247 188.507 67.7879C187.49 68.2104 186.762 68.9922 186.016 69.7642C185.199 70.6104 184.725 71.6488 184.504 72.7552C184.212 74.2074 184.122 75.6868 184.336 77.1798C184.517 78.435 184.812 79.6319 185.464 80.7334C186.098 81.8064 186.884 82.7679 187.823 83.5584C188.85 84.4245 189.845 85.4058 191.275 85.6276C191.442 85.6536 191.603 85.6883 191.66 85.8816C191.494 85.9275 191.333 85.9039 191.175 85.8507C189.75 85.3761 188.27 85.0924 186.859 84.5633C183.121 83.1644 179.758 81.1956 177 78.269C174.913 76.0548 173.847 73.433 173.776 70.3886C173.74 68.8287 174.06 67.3121 174.252 65.7806C174.298 65.4188 174.5 65.0719 174.335 64.694C174.345 64.6296 174.355 64.5651 174.365 64.5007C174.55 64.3161 174.607 64.0732 174.648 63.8316C175.046 61.4799 175.623 59.1691 176.221 56.8633C176.519 55.706 176.698 54.5624 176.001 53.4708ZM181.271 64.2541C181.261 65.772 182.561 66.9515 184.257 66.9615C185.774 66.9714 187.099 65.7026 187.125 64.217C187.151 62.7301 185.823 61.4774 184.221 61.4762C182.443 61.4737 181.282 62.5666 181.271 64.2541Z"
    fill="#8B8E87"
  />
  <path
    d="M201.508 61.7771C202.016 61.6594 202.29 61.232 202.562 60.8714C203.714 59.3474 204.97 57.9039 206.05 56.3254C207.214 54.6266 208.284 52.8635 209.116 50.9888C209.616 49.86 209.942 48.6272 209.998 47.3535C210.036 46.4923 210.191 45.6386 209.907 44.7837C209.831 44.5532 209.774 44.2063 210.093 44.0749C210.393 43.951 210.497 44.262 210.662 44.4355C211.821 45.656 212.591 47.0784 212.922 48.7337C212.953 48.8911 212.984 49.0881 213.172 49.129C213.397 49.1786 213.486 48.9791 213.594 48.8304C213.737 48.6309 213.87 48.3608 214.145 48.393C214.456 48.4302 214.42 48.7585 214.492 48.984C214.859 50.1376 215.325 51.2601 215.574 52.4521C215.634 52.7408 215.716 53.0692 216.073 53.1782C215.657 53.742 215.216 54.3181 215.276 55.0591C215.33 55.7108 215.398 56.3662 215.572 57.0081C215.849 58.0204 216.116 59.0376 216.312 60.0673C216.772 62.4908 217.303 64.9008 217.704 67.338C218.282 70.8581 217.856 74.1416 215.73 77.1041C215.348 77.6357 214.835 78.0693 214.566 78.6839L214.568 78.6827C214.362 78.7372 214.192 78.8574 214.057 79.0135C213.568 79.5748 212.984 80.0332 212.408 80.4916C209.553 82.7641 206.349 84.3327 202.81 85.231C202.26 85.371 201.68 85.4825 201.193 85.8183C201.113 85.7972 201.031 85.7749 200.95 85.7539C200.967 85.6423 201.027 85.568 201.13 85.5234C202.769 84.8122 204.057 83.6735 205.224 82.3329C206.083 81.3466 206.744 80.2476 207.113 79.042C207.639 77.3247 207.815 75.538 207.529 73.724C207.078 70.8705 205.738 68.7294 202.916 67.706C202.177 67.4383 202.186 67.4235 202.178 68.245C202.154 70.9684 202.242 73.693 202.064 76.4152C202.041 76.782 202.048 77.1611 201.774 77.4597C201.724 76.1463 201.892 74.8416 201.931 73.5307C201.997 71.2484 201.924 68.9661 201.99 66.6825C202.035 65.042 202.331 63.3445 201.508 61.7771ZM207.826 61.4785C206.13 61.4438 204.912 62.5627 204.867 64.1995C204.827 65.638 206.099 66.8783 207.657 66.9241C209.279 66.9712 210.64 65.7929 210.667 64.3159C210.696 62.6953 209.512 61.5132 207.826 61.4785Z"
    fill="#8B8E87"
  />
  <path
    d="M217.167 45.9471C217.472 45.3139 217.473 45.3127 216.747 45.1826C216.606 45.1578 216.461 45.1492 216.317 45.1368C215.99 45.1083 215.648 45.1343 215.56 44.6771C215.471 44.2124 215.617 43.8965 216.017 43.6437C216.601 43.2745 217.159 42.8656 217.807 42.4208C217.298 42.142 216.912 42.448 216.521 42.3935C216.157 42.3415 215.78 42.3849 215.409 42.3787C215.238 42.3749 215.074 42.3365 215.016 42.1445C214.966 41.9797 215.069 41.8669 215.173 41.7666C216.039 40.929 217.013 40.2351 218.11 39.7407C218.738 39.457 219.385 39.2575 219.983 38.8647C220.72 38.3803 221.668 38.4199 222.511 38.4955C223.545 38.5884 224.652 38.7198 225.451 39.4843C226.105 40.11 226.641 40.8621 227.22 41.5634C227.468 41.8632 227.742 42.1408 227.855 42.5397C227.985 43.0006 227.857 43.2423 227.368 43.1865C226.957 43.1394 226.745 43.1977 226.795 43.697C226.845 44.1852 226.55 44.4119 226.059 44.3611C225.773 44.3314 225.488 44.2769 225.202 44.2719C225.006 44.2682 224.829 44.3834 224.802 44.5916C224.772 44.8084 224.96 44.8592 225.126 44.8865C226.58 45.1306 227.581 47.0709 227.453 48.4252C227.426 48.7126 227.432 48.9679 227.014 48.9072C226.632 48.8514 226.701 49.1575 226.727 49.3669C226.781 49.7956 226.883 50.2181 226.934 50.6468C227.064 51.7359 226.716 52.7581 226.468 53.7927C226.403 54.0653 226.242 54.302 225.95 54.3503C225.659 54.3986 225.616 54.0938 225.477 53.9303C225.337 53.7655 225.284 53.5102 225.009 53.4842C224.827 53.5945 224.941 53.7456 224.954 53.8733C225.093 55.1643 224.906 56.3836 224.158 57.4751C223.911 57.8345 223.662 58.1764 223.109 58.034C222.814 57.9584 222.621 58.2533 222.485 58.4676C221.915 59.3647 221.188 60.1044 220.391 60.8032C219.946 61.1935 219.475 61.3385 218.928 61.3199C218.442 61.3038 218.22 61.5243 218.292 61.9902C218.431 62.8811 218.586 63.7695 218.759 64.6542C218.814 64.9292 218.925 65.1659 219.314 64.9503C221.314 63.8438 223.288 62.7113 224.806 60.9395C225.689 59.9086 226.015 58.6188 226.528 57.4144C226.6 57.2459 226.546 56.9263 226.839 56.9572C227.134 56.9882 227.313 57.2385 227.313 57.526C227.315 57.9708 227.499 58.3673 227.569 58.791C227.612 59.0537 227.764 59.1305 227.991 59.1429C227.97 59.216 227.948 59.2891 227.927 59.3622C227.741 59.4415 227.561 59.418 227.386 59.33L227.389 59.325C227.353 59.1689 227.316 59.014 227.28 58.8579C227.235 58.6064 227.191 58.3536 227.146 58.1021C227.126 57.8568 227.129 57.5755 226.812 57.5346C226.688 57.5185 226.659 57.6982 226.664 57.8258C226.653 57.8952 226.641 57.9646 226.631 58.034C226.284 58.3053 226.307 58.7353 226.175 59.0983C226.135 59.2259 226.094 59.3535 226.055 59.4824C226.015 59.5617 225.974 59.6398 225.933 59.7191C225.768 59.8702 225.744 60.0858 225.674 60.2816C225.498 60.3534 225.424 60.4997 225.392 60.6756C225.291 60.8181 225.108 60.8999 225.082 61.0969C224.967 61.1452 224.869 61.2109 224.838 61.3422C224.788 61.4066 224.739 61.4711 224.689 61.5367C224.475 61.6656 224.274 61.8081 224.163 62.0435C223.764 62.3694 223.365 62.6952 222.966 63.0211C222.494 63.2863 222.012 63.5378 221.666 63.9764C221.606 63.9937 221.548 64.0099 221.489 64.0272C221.278 64.0446 221.145 64.1709 221.045 64.3432C220.989 64.3642 220.934 64.3853 220.878 64.4064C220.734 64.42 220.625 64.4869 220.556 64.6158L220.517 64.6108L220.489 64.6356C220.284 64.6604 220.147 64.7756 220.053 64.9528C219.993 64.9714 219.932 64.9912 219.873 65.0098C219.727 65.0296 219.621 65.1039 219.564 65.2427C219.457 65.2836 219.348 65.3232 219.24 65.3641C219.106 65.3988 219.006 65.4769 218.942 65.6008L218.915 65.581C218.915 65.581 218.888 65.6008 218.887 65.6008C218.788 65.5227 218.688 65.4434 218.589 65.3641C218.563 65.1857 218.537 65.0073 218.511 64.8289C218.529 64.5563 218.484 64.2998 218.325 64.0706C218.266 63.7447 218.208 63.4188 218.148 63.0917C218.175 62.9901 218.158 62.9022 218.074 62.8328C218.058 62.7535 218.042 62.6742 218.026 62.5961C218.059 62.4945 218.035 62.409 217.959 62.3359C217.935 62.1761 217.913 62.015 217.889 61.8552C217.793 60.8664 218.249 60.0239 218.6 59.1528C218.711 58.8802 218.878 58.8492 219.055 59.0673C219.248 59.3052 219.392 59.584 219.585 59.8219C219.759 60.035 219.949 60.1763 220.139 59.8008C220.769 58.5606 221.38 57.3203 221.049 55.8607C220.987 55.5906 221.048 55.4097 221.361 55.3973C221.792 55.3812 221.687 55.1061 221.589 54.8806C221.276 54.1644 220.976 53.4383 220.408 52.8709C220.314 52.7767 220.143 52.6714 220.253 52.5153C220.357 52.3703 220.532 52.4657 220.651 52.5227C221.333 52.8535 222.064 53.1001 222.596 53.6824C222.72 53.8175 222.878 53.9513 223.083 53.8646C223.269 53.7865 223.246 53.5982 223.259 53.4359C223.339 52.4719 223.397 51.5079 223.076 50.5712C223.01 50.3779 223.07 50.2738 223.22 50.1549C223.59 49.8662 223.503 49.549 223.308 49.1736C222.698 48.0051 221.671 47.4339 220.468 47.0932C220.313 47.0498 220.108 47.0709 220.111 46.8405C220.113 46.6633 220.283 46.6323 220.418 46.584C221.013 46.3671 221.574 46.0648 222.223 45.988C222.743 45.926 223.137 45.1987 222.89 44.8344C221.486 42.7603 218.384 42.0627 216.466 43.7751C215.918 43.8667 215.862 44.21 216.011 44.6585C216.032 44.936 216.221 44.9311 216.423 44.9075C216.892 44.9621 217.36 45.0153 217.829 45.0686C217.864 45.1702 217.899 45.2718 217.934 45.3747C217.759 45.5655 217.583 45.7575 217.408 45.9483C217.329 45.9471 217.249 45.9471 217.167 45.9471Z"
    fill="#8B8E87"
  />
  <path
    d="M173.42 63.0783C173.199 62.7313 173.46 62.4005 173.461 62.0585C173.464 61.4279 173.31 61.1838 172.687 61.2247C171.846 61.2792 171.343 60.7724 170.87 60.2347C170.288 59.5693 169.759 58.8556 169.225 58.1506C169.039 57.9053 168.873 57.8161 168.625 58.0515C168.255 58.4034 167.996 58.132 167.831 57.8445C167.16 56.6737 166.591 55.4705 166.867 54.0518C166.902 53.8697 167 53.5922 166.738 53.5141C166.543 53.4559 166.531 53.7223 166.445 53.8499C166.277 54.0964 166.054 54.3232 165.762 54.322C165.484 54.322 165.492 53.9911 165.41 53.7966C164.814 52.3791 164.576 50.9245 164.971 49.4017C165.047 49.1105 165.203 48.6979 164.589 48.7611C164.338 48.7872 164.313 48.5654 164.299 48.3721C164.211 47.1863 165.054 45.6561 166.106 45.1233C166.266 45.0428 166.458 45.0229 166.638 44.987C166.813 44.9511 166.968 44.8854 166.974 44.6859C166.98 44.5013 166.855 44.37 166.695 44.3117C166.396 44.2039 166.075 44.1767 165.793 44.3303C165.395 44.5471 165.237 44.3997 165.276 44.0094C165.332 43.4679 165.168 43.2201 164.58 43.2164C164.192 43.2139 164.045 43.0107 164.229 42.5461C164.506 41.8535 165.014 41.3393 165.416 40.7482C165.644 40.4137 165.934 40.1262 166.149 39.7669C166.479 39.2131 167.121 39.1214 167.674 38.9045C168.827 38.4523 170.023 38.5452 171.217 38.5985C171.338 38.6035 171.485 38.6332 171.567 38.7088C172.432 39.5067 173.619 39.6306 174.605 40.1783C175.413 40.6256 176.016 41.307 176.74 41.8485C176.865 41.9427 176.917 42.0802 176.849 42.2326C176.776 42.3949 176.62 42.3924 176.476 42.3875C175.859 42.3689 175.251 42.2128 174.627 42.2735C174.446 42.2909 174.263 42.2921 174.016 42.3045C174.279 42.9599 175.13 42.9314 175.315 43.5695C175.113 43.5931 174.966 43.4816 174.808 43.3787C174.242 43.0107 173.63 42.8397 172.942 42.8385C171.276 42.836 170.048 43.6451 169.012 44.8519C168.897 44.987 168.791 45.1902 168.961 45.2794C169.34 45.4789 169.527 45.889 169.982 46.0303C170.704 46.2545 171.502 46.3884 172.044 47.0488C171.958 47.1008 171.911 47.1467 171.856 47.1615C171.697 47.2037 171.535 47.2359 171.374 47.2693C170.214 47.5122 169.266 48.0735 168.622 49.0932C168.444 49.3745 168.293 49.7127 168.737 49.8255C169.122 49.9234 169.052 50.02 168.934 50.3062C168.539 51.2727 168.521 52.3098 168.467 53.3344C168.456 53.5513 168.532 53.7483 168.743 53.8486C168.976 53.9589 169.058 53.7433 169.192 53.6256C169.83 53.0668 170.498 52.5551 171.344 52.342C171.478 52.3085 171.634 52.1821 171.738 52.332C171.844 52.4857 171.673 52.5861 171.588 52.6939C171.126 53.2737 170.698 53.8759 170.417 54.5673C170.324 54.7965 170.195 55.1038 170.561 55.1645C171.079 55.25 170.919 55.5585 170.866 55.8522C170.661 56.9648 170.827 58.0341 171.339 59.0291C171.527 59.3946 171.681 59.9955 172.066 60.0017C172.371 60.0067 172.539 59.4058 172.728 59.0464C172.8 58.9101 172.827 58.6945 173.049 58.7354C173.207 58.7652 173.243 58.9349 173.287 59.0712C173.534 59.8568 173.798 60.6386 173.826 61.4737C173.808 61.6769 173.79 61.8789 173.772 62.0821C173.704 62.1614 173.686 62.2481 173.725 62.346C173.704 62.4241 173.683 62.5009 173.662 62.5789C173.574 62.6446 173.549 62.7326 173.575 62.8367C173.526 62.9184 173.474 62.999 173.42 63.0783Z"
    fill="#8B8E87"
  />
  <g opacity="0.1" clip-path="url(#clip0_173_3364)">
    <path
      d="M387.602 327.596C376.378 335.093 376.392 340.263 374.599 345.656C374.599 345.656 369.34 358.376 378.933 368.051C378.933 368.051 391.936 380.332 391.936 396.947C391.936 396.947 393.988 423.833 373.154 431.623C373.154 431.623 359.027 439.217 353.649 448.96C353.649 448.96 352.842 455.462 331.977 455.462C331.977 455.462 311.375 453.048 298.024 438.847C293.423 436.123 288.198 434.63 282.853 434.512C282.853 434.512 278.388 441.736 266.238 441.736C266.238 441.736 252.575 440.838 248.178 435.957C245.001 439.291 241.624 442.427 238.064 445.348C231.644 450.699 220.824 456.131 216.392 459.074C216.392 459.074 212.351 462.768 211.335 464.853C211.335 464.853 210.269 467.999 202.666 472.8C195.063 477.6 193.275 488.505 193.275 491.582C193.275 491.582 193.997 502.447 193.997 510.365C193.997 510.365 193.275 517.827 193.275 522.646C193.275 522.646 193.997 533.496 193.997 535.649C193.997 535.649 192.552 547.677 192.552 556.599C192.552 556.599 191.83 575.678 191.83 584.05C191.83 584.05 191.915 602.197 194.72 605H149.93C150.161 602.784 150.645 600.603 151.375 598.498C152.223 595.19 152.707 591.798 152.82 588.385C152.82 588.385 154.265 574.204 154.265 568.88C154.688 565.688 155.414 562.543 156.432 559.488C156.432 559.488 160.766 531.914 160.766 524.091C160.766 524.091 159.538 512.366 155.71 507.475C155.71 507.475 142.49 486.301 138.372 480.024C138.372 480.024 129.703 466.346 129.703 464.131C129.703 464.131 129.428 460.822 128.981 458.352L124.646 438.124C124.646 438.124 123.48 445.348 113.088 445.348C113.088 445.348 103.732 444.16 99.3619 441.014C99.3619 441.014 89.7778 463.408 74.8001 463.408C74.8001 463.408 64.542 463.427 58.9072 459.074C55.2172 456.223 49.0001 457.824 43.0143 459.796C39.8588 460.836 37.4799 462.482 34.3454 462.686C34.3454 462.686 13.3956 464.077 13.3956 433.067C13.3956 433.067 12.0397 409.262 26.3989 396.947C26.3989 396.947 33.2119 391.799 35.0678 386.111C35.0678 386.111 35.5735 377.587 24.2317 375.275C24.2317 375.275 9.0612 374.703 9.57194 341.163C9.8479 341.077 10.501 321.722 27.8438 318.205C27.8438 318.205 32.4267 317.531 32.9006 308.091C31.2906 304.61 29.091 301.432 26.3989 298.7C26.3989 298.7 17.7301 290.798 17.7301 261.857C17.7301 261.857 20.494 236.993 53.8504 219.235C53.8504 219.235 58.7895 216.432 73.3553 215.623C87.9212 214.815 94.0934 205.542 108.753 196.841C123.413 188.139 139.301 173.107 161.489 173.001C183.677 172.896 203.264 179.527 230.84 188.894C230.84 188.894 233.904 189.869 238.786 188.894C244.654 187.722 253.416 184.421 266.238 182.393C266.238 182.393 280.117 180.79 297.301 190.339C297.301 190.339 316.404 203.612 316.806 227.904C317.549 230.721 321.51 232.34 334.144 232.961C334.144 232.961 352.736 235.113 360.15 264.024C360.15 264.024 362.636 275.16 373.876 275.583C373.876 275.583 398.438 278.629 398.438 304.479C398.438 304.479 398.826 320.1 387.602 327.596ZM165.101 480.746C164.956 479.112 160.766 456.184 160.766 456.184C158.854 449.414 157.877 437.402 157.877 437.402C150.091 440.37 139.817 436.679 139.817 436.679L142.706 451.85C143.784 458.996 146.238 465.865 149.93 472.077C153.989 477.441 158.599 482.913 158.599 482.913C165.646 494.234 169.435 495.194 169.435 495.194C169.435 495.194 165.245 482.38 165.101 480.746ZM198.332 438.847C197.9 436.361 197.172 433.935 196.164 431.623C194.107 431.528 192.552 427.288 192.552 427.288C191.258 426.46 189.754 426.019 188.218 426.019C186.681 426.019 185.177 426.46 183.883 427.288C175.595 435.09 170.158 434.512 170.158 434.512C170.158 436.627 170.88 442.459 170.88 442.459C171.684 444.541 172.171 446.733 172.325 448.96V459.796C172.325 473.739 178.104 480.746 178.104 480.746L180.994 474.245C183.198 468.37 185.458 465.378 188.218 464.853C190.977 464.329 193.275 460.519 193.275 460.519C198.108 455.518 198.933 442.645 198.332 438.847ZM220.004 433.067C214.266 434.282 206.278 429.455 206.278 429.455C206.14 431.174 206.387 432.901 207 434.512C209.548 437.537 209.168 440.291 209.168 440.291C209.141 442.716 208.9 445.134 208.445 447.516C208.445 450.711 209.89 450.405 209.89 450.405C211.318 450.405 217.114 446.071 217.114 446.071C231.452 437.613 231.562 433.79 231.562 433.79C230.967 433.248 225.742 431.852 220.004 433.067Z"
      fill="#201011"
    />
  </g>
  <defs>
    <clipPath id="clip0_173_3364">
      <rect
        width="432"
        height="432"
        fill="white"
        transform="translate(-12 173)"
      />
    </clipPath>
  </defs>
</svg>
