<svg width="142" height="142" viewBox="0 0 142 142" fill="none" xmlns="http://www.w3.org/2000/svg">
<circle cx="71.0001" cy="71.0001" r="70.0001" fill="#B3BFB6" stroke="#201011" stroke-width="2"/>
<path d="M29.2588 26.9632L29.4907 25.5428L31.4389 25.2327C31.3112 26.4378 31.0107 27.8268 30.62 29.2633L31.5218 28.4034L31.9985 26.266L33.8245 26.5175L30.501 29.6862C30.2514 30.6012 29.942 31.5345 29.6138 32.4278L32.8967 29.2977L33.1851 27.9975L34.409 28.1653L30.1027 32.2711L30.7316 33.722L33.1127 31.4517L33.5723 29.6208L35.2307 29.8385L34.8558 30.196L36.0151 31.4119C36.701 32.1313 36.4689 33.1457 35.3847 34.1794L35.0659 33.8451L33.3042 34.6349L34.7937 33.2147L33.2576 31.6037L30.8258 33.9223L31.1453 34.6428L29.2404 35.6273L28.7918 34.5075C28.247 35.7621 27.6756 36.8872 27.1305 37.7357L28.2212 31.8599L25.0598 34.8741L24.9052 34.712L27.6714 32.0746L26.2416 30.575L24.2252 32.4975L24.0803 32.3455L26.0967 30.423L24.9664 29.2375L26.5167 27.7594L27.647 28.9449L28.0117 28.5971L28.3902 26.8435L29.2588 26.9632ZM29.1091 27.8409L27.7919 29.0968L28.7483 30.1L29.1091 27.8409Z" fill="#201011"/>
<path d="M41.0064 25.4478L40.4635 26.292L38.7788 24.9369L40.2152 23.9026L39.0859 21.6969L37.7276 22.3924L37.6319 22.2054L38.9902 21.51L37.7843 19.1547L39.6784 18.1849L40.8652 20.5028L41.4002 19.4896L42.3882 20.0061L40.98 20.7271L41.9563 22.6337L43.4797 21.5234L42.3263 23.3564L43.7492 26.1354C44.1958 27.0077 43.6663 27.9394 42.314 28.616L42.1099 28.2173L40.6267 28.3003L42.0847 27.5538L41.0064 25.4478ZM45.3757 26.6395L45.2736 26.4401L48.6631 24.7046L46.5176 17.7188L48.735 17.1653L49.2613 24.3984L50.9311 23.5434L51.5707 22.3351L52.5909 22.9452L45.3757 26.6395ZM46.4324 24.5256L42.8377 19.8703C44.2509 20.3264 46.6999 21.7305 47.8304 22.7403L46.4324 24.5256ZM42.0886 19.4517L41.9929 19.2648L44.1363 18.1673L43.2111 16.3604L45.1053 15.3905L46.0305 17.1975L47.0648 16.6679L47.6487 15.5353L48.6808 16.0764L42.0886 19.4517Z" fill="#201011"/>
<path d="M58.7858 11.9883L58.7462 11.7821L62.7058 11.0215L63.7022 9.97477L65.208 10.9116L61.8923 14.3568L64.9445 13.7706L66.1165 12.7471L67.2399 13.7716L66.8275 13.8508L67.7439 18.6216C67.9181 19.5291 67.1111 20.2258 65.7362 20.4899L65.6596 20.0912L63.7424 19.8322L65.7772 19.4413L65.2464 16.6778C64.0551 18.7884 62.0665 20.6815 59.9755 21.5964C61.8484 19.3976 63.429 16.642 64.2005 14.1273L63.5268 14.2567C62.9024 16.2014 61.3748 18.4907 59.0331 19.8814C60.0138 18.3815 61.1871 16.1032 61.6845 14.6106L61.6432 14.6185L60.1597 16.1723L58.8168 15.1187L62.4567 11.2832L58.7858 11.9883ZM60.2747 17.2906L56.6438 21.3952L54.914 19.5891L56.4952 18.9147L55.7109 14.8314L54.2947 15.1034L54.2525 14.8834L55.6686 14.6114L55.0982 11.6417L57.188 11.2403L57.7584 14.21L58.0196 14.1598L58.695 13.4456L59.4505 14.1131L57.8007 14.43L58.4978 18.0596L60.2747 17.2906Z" fill="#201011"/>
<path d="M71.8795 15.3816L74.3222 9.46701L76.5355 10.1541C76.177 10.8234 75.7501 11.4721 75.2993 12.0764L77.0276 12.2396C77.1541 11.9422 77.2807 11.6447 77.3946 11.3321L79.3711 12.2921C78.196 15.9498 74.9598 18.9489 71.4226 19.9228C73.3935 18.112 75.5941 15.5073 76.9521 12.4434L75.1402 12.2723C74.8041 12.7046 74.4414 13.1204 74.0674 13.5069C74.6709 13.8171 75.1982 14.1903 75.6299 14.681L73.861 15.9906L73.3373 14.2396C72.8618 14.6587 72.375 15.0487 71.8795 15.3816ZM78.8482 20.5113L79.8312 10.0996L81.9498 10.2997L80.9668 20.7114L78.8482 20.5113ZM82.7498 17.1673L81.9075 12.9816C82.9825 13.6596 84.2505 14.9746 84.8077 16.2225L82.7498 17.1673Z" fill="#201011"/>
<path d="M95.7629 19.6827C96.6024 17.381 96.3579 15.3546 94.9111 14.8269C93.4512 14.2944 91.9727 15.6924 91.1332 17.9941C90.2937 20.2958 90.5202 22.3306 91.9801 22.8631C93.4269 23.3908 94.9234 21.9844 95.7629 19.6827ZM89.1472 17.2698C90.1545 14.5077 92.6444 13.6872 95.0119 14.5507C97.3662 15.4094 98.7431 17.6403 97.7357 20.4023C96.7235 23.1775 94.2337 23.998 91.8794 23.1393C89.5119 22.2758 88.135 20.045 89.1472 17.2698Z" fill="#201011"/>
<path d="M103.883 18.7815L110.841 23.2065L109.722 24.9667L109.521 24.839C110.076 23.9143 109.839 22.8514 108.977 22.303L108.138 21.7695L103.826 28.5505L104.665 29.0839L104.537 29.2847L101.052 27.0684L101.18 26.8676L102.03 27.4085L106.342 20.6276L105.504 20.0942C104.63 19.5382 103.567 19.7748 102.964 20.6694L102.764 20.5417L103.883 18.7815Z" fill="#201011"/>
<path d="M118.893 34.1009L118.723 33.9345C119.794 32.2993 119.671 30.9641 118.641 30.0149C117.05 28.5174 115.124 29.7857 113.743 31.1965C112.353 32.6173 111.136 34.561 112.658 36.1286C113.639 37.1278 114.976 37.2222 116.588 36.1158L116.758 36.2822L115.28 37.7931C114.207 37.5275 113.432 37.2587 112.452 36.3387C110.612 34.5766 110.136 31.8394 112.222 29.7081C114.308 27.5769 117.055 27.9927 118.846 29.8048C119.797 30.7548 120.083 31.5239 120.371 32.59L118.893 34.1009Z" fill="#201011"/>
<circle cx="71.0001" cy="79.4002" r="51.1001" fill="#F6BD41"/>
<path d="M123.493 78.8987C123.493 82.1288 123.177 85.0233 122.617 87.8757C122.018 90.9263 121.163 93.9112 120.026 96.8242C118.935 99.6172 117.649 102.306 116.121 104.871C113.9 108.599 111.262 112.013 108.179 115.083C105.142 118.109 101.832 120.778 98.1358 122.95C96.2569 124.054 94.3223 125.048 92.3257 125.943C89.9861 126.99 87.5784 127.803 85.1211 128.485C82.5573 129.198 79.9588 129.725 77.3033 130.016C74.7779 130.292 72.2575 130.541 69.7185 130.471C66.7261 130.388 63.7672 130.006 60.8232 129.435C58.5727 128.999 56.3681 128.416 54.192 127.725C52.3081 127.127 50.4887 126.341 48.694 125.508C45.7364 124.134 42.9298 122.506 40.2843 120.593C37.5037 118.583 34.9325 116.345 32.5991 113.826C29.6315 110.62 27.033 107.151 24.9485 103.308C23.3644 100.389 22.0515 97.3581 21.0112 94.1948C20.0934 91.4044 19.401 88.5668 19.0121 85.6686C18.6753 83.1581 18.4474 80.6289 18.5105 78.0837C18.5638 75.9584 18.7037 73.8367 18.9886 71.7337C19.3032 69.4077 19.7776 67.1052 20.4538 64.8485C21.3369 61.9045 22.407 59.036 23.7917 56.2889C25.7523 52.3937 28.0882 48.7474 30.9518 45.4479C31.5872 44.7147 31.576 43.7238 31.8819 42.8593C31.986 42.5658 31.7036 42.4035 31.4162 42.3168C30.688 42.0976 30.5678 41.726 30.8998 41.0188C31.7284 39.2551 32.8814 37.7565 34.4247 36.5575C34.6662 36.3693 34.8966 36.1587 35.0266 35.8627C35.636 34.4755 36.8361 33.7745 38.1441 33.2172C40.0106 32.4233 41.9625 32.0628 43.99 32.1087C44.2885 32.1149 44.5498 32.0344 44.7777 31.8188C45.262 31.3618 45.8478 31.337 46.4597 31.4758C46.6802 31.5253 46.9254 31.5402 47.1149 31.6479C48.6569 32.5261 50.028 31.8337 51.4424 31.2503C54.4607 30.0044 57.6067 29.1906 60.8058 28.5515C65.059 27.7019 69.3568 27.4728 73.6719 27.6623C76.9504 27.8072 80.1929 28.2791 83.3908 29.0643C86.3423 29.7889 89.2145 30.724 91.9851 31.9724C92.5462 32.2251 93.1159 32.1297 93.6795 31.9551C94.191 31.7965 94.7013 31.6368 95.2165 31.4919C95.8655 31.3086 96.46 31.3333 96.9963 31.8473C97.4509 32.2821 98.0813 32.2127 98.6461 32.2065C100.649 32.1817 102.526 32.6474 104.3 33.5553C105.332 34.0829 106.196 34.7877 106.705 35.8652C107.052 36.5997 107.766 37.0047 108.28 37.5893C109.243 38.6879 110.241 39.7629 110.731 41.1835C110.955 41.8363 110.835 42.1087 110.189 42.3775C109.907 42.4952 109.82 42.6723 109.881 42.9584C110.069 43.8526 110.359 44.6725 111.004 45.3822C113.299 47.9052 115.25 50.6857 116.936 53.6471C119.004 57.2798 120.591 61.123 121.702 65.1508C122.971 69.747 123.576 74.4387 123.493 78.8987ZM46.9923 47.0629C46.5253 46.5762 46.2702 46.4511 44.8929 46.0226C43.8315 45.6919 43.6767 45.1618 44.4173 44.3901C44.5598 44.2415 44.7034 44.0929 44.8558 43.9529C46.4783 42.4654 49.1498 42.4778 50.7377 43.9715C50.9804 44.1994 51.0163 44.4781 50.9482 44.7667C50.8776 45.0652 50.5927 44.9896 50.3809 45.0181C50.0342 45.0627 49.6799 45.0664 49.3381 45.137C49.0173 45.2039 48.9182 45.3872 49.1932 45.6535C49.3851 45.8392 49.5945 46.0151 49.7542 46.2269C49.9797 46.5279 50.3859 46.7954 50.2063 47.2388C50.0441 47.6413 49.6229 47.4196 49.3195 47.4704C48.8724 47.546 48.8513 47.7404 49.1065 48.0464C49.2638 48.2359 49.4619 48.3956 49.5994 48.5975C50.1394 49.3902 50.132 49.4125 49.2291 49.7035C48.8129 49.8373 48.8674 50.0417 49.1213 50.2683C49.3975 50.5148 49.7109 50.7191 49.9858 50.9669C50.4664 51.4028 50.428 51.632 49.8583 51.902C49.3814 52.1274 49.3554 52.3119 49.758 52.6401C49.883 52.7417 50.0106 52.8433 50.1469 52.9275C51.1823 53.5629 51.6059 54.5215 51.4028 55.7056C51.2839 56.3991 51.0696 57.0667 50.9172 57.7492C50.3426 60.3415 49.675 62.9164 49.2625 65.5434C49.0123 67.1312 48.699 68.7116 48.7361 70.3304C48.7869 72.54 49.3009 74.6108 50.5482 76.4686C52.3985 79.2244 54.9487 81.1739 57.8147 82.7506C59.8038 83.8455 61.8958 84.6592 64.0905 85.2847C66.3694 85.9349 68.6595 86.2904 71.014 86.3213C73.8106 86.3585 76.4834 85.7293 79.1265 84.871C82.909 83.6436 86.2705 81.7436 89.1228 78.9482C92.1375 75.993 93.3575 72.4173 92.8013 68.2682C92.2836 64.4064 91.4365 60.604 90.4964 56.8227C90.3366 56.1812 90.2413 55.521 90.2722 54.8621C90.323 53.7709 91.1293 53.1801 91.8935 52.577C92.0334 52.4667 92.2564 52.416 92.2403 52.1843C92.2229 51.9354 91.995 51.949 91.8254 51.8896C91.3882 51.736 91.3597 51.4945 91.6445 51.1465C91.8947 50.8405 92.1796 50.5755 92.493 50.3426C92.6478 50.2274 92.8187 50.1222 92.7679 49.9067C92.7221 49.711 92.5276 49.7184 92.3666 49.6837C91.756 49.55 91.6891 49.3753 92.0533 48.8725C92.1858 48.6904 92.3344 48.5207 92.4682 48.3399C92.6329 48.117 93.0268 47.9758 92.9103 47.6574C92.7927 47.3329 92.4013 47.4964 92.1338 47.432C92.114 47.4271 92.0929 47.4296 92.0718 47.4271C91.5294 47.3602 91.429 47.1732 91.6755 46.6926C91.8873 46.2802 92.2155 45.9668 92.5648 45.677C92.7023 45.5631 92.8199 45.4516 92.7654 45.267C92.7085 45.0738 92.5227 45.0614 92.3604 45.0466C92.0112 45.0131 91.6619 44.9847 91.3114 44.9686C91.05 44.9562 90.8915 44.8422 90.8172 44.5883C90.7404 44.3233 90.7639 44.0434 90.9968 43.922C91.6879 43.5628 92.2923 43.003 93.0924 42.8927C94.9143 42.6413 96.4786 43.1045 97.6503 44.6106C98.064 45.1432 97.8472 45.9049 97.1796 45.9965C96.5306 46.0857 95.9708 46.3855 95.3701 46.5873C95.2326 46.6332 95.0667 46.6666 95.0617 46.8425C95.0555 47.0753 95.2611 47.0506 95.4159 47.0951C96.6148 47.4444 97.6466 48.0104 98.2535 49.1809C98.4492 49.5574 98.5433 49.8683 98.1519 50.1494C98.0181 50.246 97.9364 50.3563 97.9983 50.5111C98.3563 51.4028 98.2547 52.3305 98.2163 53.2532C98.2076 53.47 98.2943 53.7499 98.033 53.8614C97.7816 53.9679 97.6131 53.7437 97.4595 53.5864C96.9381 53.0575 96.2495 52.821 95.6067 52.5051C95.4878 52.4469 95.3107 52.354 95.2041 52.489C95.0555 52.6785 95.271 52.7813 95.3713 52.8879C95.9052 53.4551 96.2049 54.1574 96.517 54.851C96.6334 55.1098 96.7127 55.386 96.2532 55.3897C95.9621 55.3922 95.9225 55.5854 95.9758 55.8183C96.3003 57.25 95.7503 58.4824 95.1249 59.7098C94.9056 60.1396 94.7236 60.0392 94.5056 59.7593C94.3297 59.5327 94.196 59.2738 94.0176 59.0484C93.8925 58.8899 93.7179 58.7858 93.5903 59.0608C93.0887 60.1482 92.6193 61.227 93.0069 62.4854C93.2423 63.2508 93.3587 64.0546 93.5185 64.8424C93.6547 65.5174 93.7587 65.5855 94.3619 65.2189C95.4692 64.5451 96.5839 63.8775 97.6478 63.1406C98.7315 62.39 99.7199 61.528 100.449 60.3935C100.97 59.5835 101.169 58.6484 101.565 57.7938C101.621 57.6736 101.605 57.4792 101.802 57.4891C101.969 57.499 102.035 57.6513 102.068 57.7925C102.149 58.1331 102.214 58.4774 102.286 58.8205C102.332 59.0373 102.307 59.3048 102.58 59.3865C102.829 59.4608 102.943 59.2317 103.079 59.0905C104.112 58.0155 104.986 56.824 105.658 55.4888C106.02 54.7667 106.366 54.036 106.775 53.1938C106.92 53.5121 107.01 53.6942 107.086 53.8812C107.145 54.0261 107.119 54.2552 107.325 54.2651C107.524 54.275 107.555 54.0509 107.616 53.9084C108.063 52.8643 108.484 51.814 108.479 50.6486C108.475 49.4719 108.479 48.2953 108.488 47.1199C108.489 46.9478 108.413 46.7508 108.588 46.5923C108.8 46.679 108.869 47.079 109.171 46.9106C109.428 46.7669 109.363 46.4808 109.343 46.2368C109.249 45.0156 109.003 43.8303 108.501 42.707C108.256 42.157 107.867 41.7706 107.28 41.5588C106.751 41.3681 106.248 41.103 105.702 40.8566C105.911 40.5989 106.148 40.5754 106.365 40.5878C107.104 40.6299 107.853 40.6126 108.567 40.8615C108.763 40.9296 109.003 41.0622 109.129 40.859C109.232 40.6943 109.097 40.4701 108.976 40.293C108.556 39.6799 108.104 39.0953 107.611 38.5368C106.274 37.022 104.528 36.1587 102.713 35.3945C102.419 35.2707 101.929 35.153 101.977 34.8607C102.032 34.5139 102.508 34.7455 102.793 34.6861C102.977 34.6477 103.253 34.7195 103.276 34.4248C103.294 34.1795 103.052 34.1671 102.888 34.0978C100.755 33.1936 98.5433 33.0351 96.2792 33.4104C95.6785 33.5107 95.084 33.6507 94.4115 33.7881C94.4759 33.6024 94.5006 33.507 94.5403 33.4178C94.6171 33.2419 94.9069 33.0958 94.7335 32.8902C94.565 32.6883 94.295 32.8208 94.1031 32.9187C93.5891 33.1775 93.0429 33.3658 92.5574 33.6878C90.4915 35.0589 88.9977 36.9762 87.535 38.9232C86.8551 39.8286 86.2866 40.8194 85.4914 41.6344C84.8214 42.3205 83.776 42.4753 83.1345 42.001C81.1416 40.5283 78.9085 39.5883 76.4859 39.1511C72.9523 38.5145 69.4002 38.4723 65.8653 39.1573C63.4167 39.6316 61.0932 40.4577 58.9852 41.8363C57.6562 42.7057 56.8004 42.5001 55.8231 41.2083C54.3084 39.2043 52.8791 37.1335 51.0882 35.3512C50.054 34.3232 48.9306 33.4413 47.5496 32.9311C47.3638 32.8617 47.1372 32.7465 46.9638 32.9026C46.7433 33.1007 47.0344 33.211 47.0975 33.3608C47.1421 33.4698 47.2796 33.5763 47.1904 33.6915C47.0839 33.829 46.918 33.7559 46.7891 33.7052C46.1662 33.4612 45.5011 33.4079 44.8521 33.3237C42.8122 33.0574 40.8243 33.2952 38.9107 34.073C38.767 34.1312 38.5553 34.1486 38.5701 34.3653C38.5875 34.6217 38.824 34.5808 38.9937 34.6328C39.3108 34.7307 39.7083 34.5375 39.9833 34.9152C39.4755 35.2595 38.9305 35.4924 38.3744 35.7005C35.9828 36.5947 34.0667 38.0896 32.6585 40.2249C32.5346 40.4119 32.3427 40.6287 32.4814 40.8417C32.6424 41.0894 32.8876 40.8937 33.0945 40.8355C33.9181 40.6039 34.7566 40.5345 35.6075 40.6138C35.74 40.6262 35.9308 40.6126 35.9518 40.8008C35.9679 40.9433 35.8106 40.9829 35.7053 41.0423C35.3462 41.2455 34.9758 41.4213 34.5845 41.5613C33.9441 41.7892 33.4202 42.1632 33.1192 42.8073C32.6127 43.8922 32.4083 45.0416 32.3613 46.2257C32.3513 46.4783 32.2523 46.8053 32.5718 46.9391C32.8715 47.0654 32.8554 46.6319 33.0784 46.5861C33.1168 46.5787 33.1576 46.5849 33.2369 46.5849C33.2369 47.7565 33.2468 48.9257 33.2344 50.0962C33.2208 51.4239 33.6147 52.6587 34.0581 53.8837C34.1051 54.0149 34.1373 54.1784 34.3268 54.1722C34.4978 54.1673 34.5683 54.0385 34.6191 53.896C34.7021 53.6694 34.7058 53.4118 34.899 53.1901C35.3003 53.5406 35.3982 54.0459 35.5902 54.4856C36.306 56.118 37.1767 57.6488 38.424 58.9369C38.5974 59.1165 38.7509 59.4447 39.0494 59.3692C39.3727 59.2874 39.2724 58.9233 39.3417 58.6781C39.3863 58.5195 39.4012 58.3499 39.4619 58.1988C39.5733 57.9201 39.5833 57.4247 39.8471 57.4247C40.1641 57.4247 40.2087 57.8966 40.3041 58.2C40.6459 59.2862 41.0856 60.3179 41.8424 61.1948C43.3806 62.9783 45.4193 64.0744 47.3898 65.2672C47.8419 65.5409 47.9819 65.2944 48.0636 64.9167C48.2296 64.1512 48.3249 63.3648 48.5615 62.6229C48.969 61.3484 48.6036 60.1792 48.2122 59.0001C48.1738 58.8849 48.1119 58.7437 47.9658 58.7735C47.8853 58.7896 47.8085 58.8948 47.7602 58.9778C47.5707 59.2961 47.3936 59.6219 47.2115 59.9451C47.0914 60.1581 46.9576 60.1309 46.8375 59.955C45.989 58.7239 45.5333 57.3912 45.8119 55.8777C45.8701 55.5606 46.0596 55.2275 45.475 55.1903C45.1976 55.173 45.2434 54.8695 45.3277 54.6862C45.4726 54.3716 45.5679 54.0385 45.7946 53.7524C46.1414 53.3151 46.43 52.8321 46.7891 52.3008C45.6967 52.4147 44.9561 52.9968 44.2241 53.5975C44.0606 53.7313 43.969 54.0224 43.6791 53.8614C43.4512 53.7363 43.4104 53.5009 43.4252 53.2681C43.4909 52.2438 43.4896 51.2071 43.9219 50.2435C43.9888 50.0937 44.1164 49.95 43.8179 49.8906C43.2085 49.7704 43.3856 49.4187 43.5986 49.0706C44.1572 48.1603 45.0032 47.6475 45.9952 47.328C46.3135 47.2289 46.6665 47.2958 46.9923 47.0629ZM121.86 78.4962C121.923 74.4399 121.383 70.6437 120.477 66.9095C119.565 63.1567 118.22 59.5475 116.418 56.1217C114.871 53.1826 113.114 50.3785 110.98 47.8222C110.878 47.7008 110.82 47.5088 110.603 47.572C110.407 47.629 110.386 47.8036 110.371 47.9696C110.231 49.5388 109.841 51.0523 109.366 52.5473C108.927 53.9282 108.377 55.256 107.494 56.4214C107.27 56.7175 107.019 56.9664 106.617 56.6828C106.367 56.5057 106.311 56.7212 106.207 56.871C105.785 57.4816 105.375 58.1009 104.926 58.6905C104.262 59.5624 103.532 60.3724 102.582 60.9508C102.389 61.0685 102.164 61.2345 101.959 61.0499C101.581 60.7093 101.422 60.9954 101.242 61.2518C100.657 62.0853 99.9218 62.7678 99.1502 63.4254C97.7271 64.638 96.081 65.4988 94.492 66.4475C94.1316 66.663 94.0176 66.912 94.0672 67.3071C94.1563 68.023 94.2331 68.7413 94.2876 69.4622C94.4771 71.9776 93.9482 74.3346 92.701 76.5281C91.8811 77.9698 90.8308 79.2232 89.596 80.3255C89.2603 80.6252 89.0337 80.92 89.4721 81.3287C90.9844 82.7357 92.2465 84.3508 93.3475 86.0934C93.5346 86.3894 93.7699 86.5802 94.0944 86.7016C95.6376 87.2812 97.1747 87.8782 98.7167 88.4566C102.46 89.8611 106.191 91.2978 109.957 92.6441C111.806 93.3055 113.415 94.1874 114.293 96.039C114.919 97.3605 115.52 98.6932 116.136 100.02C116.209 100.178 116.189 100.44 116.421 100.449C116.651 100.459 116.751 100.248 116.848 100.057C117.471 98.8332 117.981 97.5624 118.501 96.2929C119.528 93.7861 120.282 91.1975 120.837 88.5557C121.546 85.1794 121.97 81.7647 121.86 78.4962ZM20.1132 78.7798C20.1628 81.9344 20.4873 85.1918 21.14 88.4132C21.9426 92.3717 23.2455 96.1641 24.9931 99.8042C25.0711 99.9677 25.0897 100.189 25.3288 100.194C25.5913 100.201 25.6421 99.9702 25.7276 99.7856C26.2502 98.666 26.7865 97.5525 27.2956 96.4267C27.9954 94.881 29.0382 93.6858 30.662 93.0764C33.0164 92.1933 35.3746 91.3214 37.7291 90.4395C41.0076 89.2121 44.286 87.981 47.5632 86.7511C47.8964 86.626 48.1912 86.4576 48.3918 86.143C49.322 84.6802 50.3847 83.3191 51.5638 82.0496C52.6289 80.9027 52.6227 80.92 51.4994 79.7979C49.3765 77.6775 47.8952 75.2165 47.4555 72.1894C47.2264 70.6165 47.3502 69.0621 47.567 67.5077C47.6376 66.9987 47.5682 66.6444 47.053 66.4005C46.534 66.1552 46.0596 65.8159 45.5655 65.5211C43.699 64.4076 41.9167 63.1877 40.5778 61.4351C40.3152 61.092 40.1332 60.7044 39.6316 61.1279C39.4928 61.2444 39.3281 61.1341 39.177 61.0499C38.8314 60.8567 38.5379 60.6028 38.2481 60.3365C37.1891 59.3655 36.3506 58.2235 35.6038 57.0048C35.496 56.8277 35.3635 56.4561 35.1418 56.637C34.4581 57.1931 34.255 56.5564 34.0234 56.2022C32.5173 53.8985 31.8225 51.2988 31.3246 48.6309C31.2899 48.4427 31.3915 48.169 31.119 48.112C30.9245 48.0711 30.8019 48.2619 30.688 48.4117C30.195 49.0669 29.6835 49.7085 29.2067 50.3748C26.5673 54.0694 24.515 58.0762 22.978 62.3392C21.0793 67.6031 20.1826 73.0552 20.1132 78.7798ZM90.8048 33.4141C90.7466 33.1391 90.5298 33.0884 90.3478 33.0066C89.3891 32.5756 88.407 32.2102 87.4112 31.8709C83.1728 30.4267 78.8206 29.5449 74.3544 29.2699C69.493 28.9714 64.6726 29.2934 59.9067 30.3574C56.9849 31.0088 54.1226 31.8312 51.3743 33.0301C50.7092 33.32 50.6881 33.4116 51.2207 33.8847C51.8375 34.4334 52.4085 35.0267 52.9621 35.6385C54.3195 37.1384 55.4256 38.8377 56.7335 40.376C57.385 41.1414 57.5707 41.1835 58.3758 40.6435C60.1061 39.483 62.0085 38.7126 64.0137 38.2036C67.3008 37.37 70.6338 37.1384 74.0175 37.4617C76.1255 37.6636 78.1716 38.0772 80.152 38.8179C81.3361 39.2601 82.4235 39.8831 83.4689 40.5853C84.1984 41.0745 84.4832 41.0386 85.0406 40.3748C85.266 40.1072 85.4902 39.836 85.6908 39.5511C87.1536 37.479 88.6584 35.4428 90.562 33.7398C90.6648 33.6482 90.7317 33.5157 90.8048 33.4141ZM70.8517 128.858C71.6481 128.878 72.4358 129.006 72.9003 128.041C73.9072 125.953 74.9972 123.905 76.0462 121.838C76.4587 121.024 76.689 120.199 76.1862 119.323C76.0462 119.079 75.9843 118.789 75.8926 118.517C74.8349 115.421 73.7722 112.327 72.7319 109.226C72.6092 108.861 72.4098 108.763 72.0891 108.863C71.2357 109.131 70.3947 109.148 69.5413 108.851C69.2899 108.763 69.0273 108.759 68.9072 109.131C68.4192 110.638 67.9213 112.143 67.3999 113.639C66.7831 115.407 66.1527 117.17 65.5 118.925C65.1556 119.853 64.9302 120.742 65.5557 121.654C65.8071 122.02 65.9595 122.452 66.1688 122.849C67.1398 124.688 68.065 126.553 69.1524 128.329C69.3828 128.706 69.6664 128.895 70.1098 128.861C70.3551 128.843 70.604 128.858 70.8517 128.858ZM55.0156 82.7209C54.6725 82.7679 54.753 83.0032 54.7691 83.2014C54.8472 84.1266 54.9128 85.0531 55.0131 85.9745C55.0912 86.6904 55.1345 87.4261 55.3314 88.1123C56.4387 91.9505 57.5844 95.7789 58.7263 99.6073C59.031 100.63 59.3691 101.643 59.6998 102.659C59.7568 102.834 59.8274 103.033 60.0256 103.083C60.1729 103.119 60.2163 102.959 60.2695 102.85C61.3508 100.638 62.7144 98.6115 64.2973 96.7301C65.3872 95.4346 66.5403 94.2419 68.4044 94.2022C68.5493 94.1998 68.7326 94.1923 68.7524 94.0202C68.7623 93.9322 68.6434 93.8121 68.5567 93.7328C68.3746 93.5656 68.1814 93.4108 67.9845 93.2609C65.8827 91.6669 63.8143 90.032 61.8016 88.3253C59.711 86.5529 57.6079 84.7954 55.5048 83.0367C55.3537 82.9091 55.2299 82.7159 55.0156 82.7209ZM86.8947 83.2349C86.9269 83.0825 86.9913 82.893 86.808 82.7976C86.6111 82.6948 86.4538 82.8187 86.3076 82.9401C85.5942 83.5333 84.8796 84.1241 84.1686 84.7199C81.881 86.6396 79.581 88.5445 77.317 90.4903C76.066 91.5666 74.7408 92.5463 73.4651 93.5892C73.3226 93.7056 73.1257 93.8307 73.1616 94.0227C73.205 94.2505 73.4502 94.2084 73.6273 94.2183C74.6479 94.2778 75.4777 94.746 76.2035 95.4247C77.5808 96.714 78.6905 98.2251 79.7482 99.7733C80.3514 100.656 80.9224 101.564 81.3906 102.531C81.4736 102.702 81.5751 102.888 81.7782 102.891C82.021 102.894 82.0136 102.65 82.0767 102.486C82.6737 100.925 83.1815 99.3348 83.6472 97.7309C84.2219 95.7517 84.6987 93.744 85.3131 91.7784C86.1838 88.9904 86.8006 86.1653 86.8947 83.2349ZM103.18 112.124C103.183 110.92 102.72 110.022 101.801 109.833C100.411 109.545 99.7732 108.646 99.4103 107.389C98.9111 105.664 97.5017 105.172 96.0018 106.183C94.9527 106.89 94.0771 107.798 93.2311 108.724C91.05 111.112 88.9903 113.604 86.9752 116.135C86.4835 116.751 86.5145 116.94 87.291 117.102C89.6529 117.597 92.0334 117.641 94.4251 117.354C94.7719 117.312 94.9713 117.135 95.0605 116.785C95.2611 115.987 95.4618 115.186 95.7169 114.404C96.0228 113.467 96.1999 112.483 96.6619 111.599C96.7969 111.339 96.9616 111.066 97.3072 111.123C97.6255 111.175 97.7964 111.447 97.8621 111.728C97.9896 112.274 97.9909 112.83 97.8224 113.376C97.7543 113.598 97.6007 113.74 97.3766 113.744C97.0719 113.749 96.9332 113.909 96.8588 114.175C96.6495 114.926 96.4142 115.669 96.2309 116.426C96.107 116.937 96.2965 117.104 96.818 117.025C98.059 116.836 99.2852 116.572 100.514 116.308C101.346 116.13 102.004 115.919 102.276 114.975C102.551 114.018 103.188 113.176 103.18 112.124ZM57.3949 99.1825C57.4828 100.89 57.9733 102.458 58.4613 104.019C59.2713 106.613 60.1296 109.19 61.1328 111.718C62.0432 114.013 62.9869 116.294 63.9802 118.555C64.0645 118.745 64.1549 118.958 64.4038 118.946C64.6169 118.935 64.6082 118.718 64.659 118.57C65.7179 115.516 66.7435 112.45 67.8532 109.415C68.1579 108.583 68.1133 107.933 67.7033 107.15C66.4611 104.781 65.2064 102.419 63.875 100.099C63.5653 99.559 63.4167 99.5392 63.0625 100.047C62.7107 100.552 62.3862 101.08 62.0853 101.619C61.6443 102.409 61.2443 103.223 60.8083 104.017C60.5866 104.422 60.2064 104.548 59.758 104.519C59.3109 104.491 59.2131 104.126 59.0756 103.815C58.927 103.478 58.8192 103.122 58.6941 102.775C58.2643 101.583 57.8333 100.393 57.3949 99.1825ZM84.3136 99.289C84.0052 100.113 83.693 100.935 83.3921 101.761C83.1382 102.457 82.909 103.163 82.6489 103.857C82.5251 104.187 82.3591 104.508 81.9355 104.537C81.5231 104.565 81.2234 104.373 81.0054 104.039C80.9162 103.901 80.8382 103.755 80.7626 103.61C80.1817 102.498 79.5835 101.396 78.9048 100.339C78.3958 99.5491 78.2186 99.5466 77.7406 100.336C77.7084 100.389 77.6861 100.447 77.6551 100.5C76.2791 102.821 75.1285 105.265 73.8082 107.616C73.5369 108.099 73.5171 108.531 73.688 109.028C74.1834 110.468 74.6578 111.915 75.152 113.356C75.7514 115.109 76.3608 116.859 76.9702 118.609C77.0222 118.758 77.0371 118.978 77.2439 118.971C77.4445 118.963 77.5449 118.778 77.6204 118.603C77.857 118.056 78.0911 117.508 78.3301 116.962C79.9043 113.38 81.3386 109.742 82.6019 106.042C83.3487 103.843 84.077 101.63 84.3136 99.289ZM70.8034 108.07C71.8884 108.015 72.7703 107.636 73.2966 106.579C74.3531 104.46 75.4269 102.348 76.6147 100.297C77.7517 98.3341 77.8161 98.8852 76.3336 96.9977C75.8889 96.4316 75.4121 96.1666 74.6987 96.5022C74.4658 96.6112 74.176 96.6137 73.9097 96.6385C71.8525 96.8317 69.7321 97.1178 67.7529 96.5902C66.04 96.1344 65.3513 97.0051 64.5648 98.0801C64.5165 98.147 64.472 98.2164 64.4212 98.282C64.2143 98.5446 64.2292 98.8121 64.4026 99.0821C65.9434 101.497 67.2314 104.051 68.5121 106.608C69.0013 107.587 69.6962 108.11 70.8034 108.07ZM70.3823 95.5671C69.6677 95.0259 68.9617 95.4445 68.2483 95.5907C68.9567 95.6935 69.664 95.7579 70.3823 95.5671ZM73.4242 95.5845C72.8062 95.359 72.3244 95.1547 71.7831 95.2562C71.6196 95.2872 71.4512 95.3913 71.4623 95.5733C71.4735 95.7517 71.6692 95.748 71.8017 95.7442C72.2984 95.7269 72.8025 95.7554 73.4242 95.5845Z" fill="#201011"/>
<path d="M46.9922 47.063C46.6665 47.2958 46.3135 47.229 46.0014 47.3293C45.0105 47.6488 44.1646 48.1628 43.6048 49.0719C43.3918 49.42 43.2146 49.7717 43.824 49.8919C44.1225 49.9501 43.9962 50.0937 43.9281 50.2448C43.4958 51.2097 43.497 52.2451 43.4314 53.2694C43.4165 53.5022 43.4574 53.7376 43.6853 53.8627C43.9764 54.0237 44.068 53.7326 44.2303 53.5988C44.9622 52.9994 45.7029 52.416 46.7953 52.3021C46.4349 52.8347 46.1463 53.3177 45.8007 53.7537C45.5741 54.0398 45.4775 54.3729 45.3338 54.6875C45.2496 54.8708 45.205 55.1743 45.4812 55.1916C46.0658 55.2288 45.8763 55.562 45.8181 55.879C45.5394 57.3938 45.9964 58.7252 46.8436 59.9563C46.965 60.1322 47.0987 60.1595 47.2176 59.9464C47.3985 59.6232 47.5768 59.2974 47.7663 58.9791C47.8159 58.8961 47.8927 58.7909 47.9719 58.7748C48.1181 58.745 48.18 58.8862 48.2184 59.0014C48.611 60.1805 48.9752 61.3497 48.5677 62.6242C48.3311 63.3661 48.2357 64.1525 48.0698 64.918C47.988 65.2957 47.8481 65.5422 47.396 65.2685C45.4255 64.077 43.3868 62.9809 41.8485 61.1961C41.0918 60.318 40.6521 59.2875 40.3102 58.2013C40.2149 57.8979 40.1703 57.4272 39.8532 57.426C39.5894 57.426 39.5795 57.9214 39.468 58.2001C39.4073 58.3512 39.3925 58.5208 39.3479 58.6794C39.2785 58.9246 39.3801 59.2887 39.0556 59.3705C38.7571 59.446 38.6035 59.1166 38.4301 58.9382C37.1829 57.6501 36.311 56.1193 35.5963 54.4869C35.4043 54.0472 35.3065 53.5419 34.9052 53.1914C34.712 53.4131 34.707 53.6707 34.6253 53.8973C34.5745 54.0385 34.5027 54.1673 34.333 54.1735C34.1435 54.1797 34.1113 54.0162 34.0642 53.885C33.6208 52.66 33.227 51.4252 33.2406 50.0975C33.253 48.9283 33.2431 47.7578 33.2431 46.5862C33.1626 46.5862 33.1217 46.58 33.0845 46.5874C32.8616 46.632 32.8777 47.0655 32.578 46.9404C32.2584 46.8066 32.3575 46.4784 32.3674 46.227C32.4132 45.0442 32.6188 43.8935 33.1254 42.8086C33.4264 42.1645 33.9503 41.7905 34.5906 41.5626C34.982 41.4239 35.3511 41.2468 35.7115 41.0436C35.8168 40.9842 35.9728 40.9446 35.958 40.8021C35.9369 40.6139 35.7462 40.6263 35.6137 40.6151C34.764 40.5358 33.9243 40.6064 33.1006 40.8368C32.8938 40.895 32.6486 41.0907 32.4875 40.843C32.3488 40.63 32.5408 40.4132 32.6647 40.2262C34.0741 38.0909 35.9889 36.596 38.3806 35.7018C38.9367 35.4937 39.4804 35.2608 39.9895 34.9165C39.7133 34.5388 39.3169 34.732 38.9999 34.6341C38.8302 34.5821 38.5936 34.623 38.5763 34.3666C38.5626 34.1486 38.7744 34.1325 38.9169 34.0743C40.8304 33.2977 42.8183 33.0599 44.8582 33.325C45.5084 33.4092 46.1723 33.4625 46.7953 33.7065C46.9241 33.7572 47.0901 33.8303 47.1966 33.6928C47.2858 33.5764 47.1483 33.4699 47.1037 33.3621C47.0405 33.2123 46.7507 33.102 46.9699 32.9039C47.1433 32.7478 47.37 32.8642 47.5558 32.9324C48.9368 33.4426 50.0601 34.3245 51.0943 35.3525C52.8865 37.1348 54.3158 39.2069 55.8293 41.2096C56.8065 42.5026 57.6624 42.707 58.9913 41.8376C61.0993 40.4578 63.4229 39.6329 65.8715 39.1586C69.4063 38.4736 72.9585 38.5158 76.4921 39.1524C78.9147 39.5883 81.1478 40.5284 83.1406 42.0023C83.7822 42.4766 84.8275 42.3218 85.4976 41.6357C86.2927 40.8195 86.8612 39.8286 87.5412 38.9245C89.0039 36.9775 90.4976 35.0614 92.5635 33.6891C93.049 33.3671 93.5952 33.1788 94.1092 32.92C94.3024 32.8221 94.5712 32.6896 94.7396 32.8915C94.913 33.0983 94.6232 33.2432 94.5464 33.4191C94.5068 33.5083 94.482 33.6037 94.4176 33.7894C95.0902 33.652 95.6834 33.5108 96.2854 33.4117C98.5494 33.0364 100.761 33.1949 102.894 34.0991C103.058 34.1684 103.301 34.1796 103.282 34.4261C103.26 34.7208 102.983 34.649 102.799 34.6874C102.514 34.7468 102.038 34.514 101.983 34.862C101.936 35.1543 102.424 35.2707 102.72 35.3958C104.534 36.16 106.282 37.0233 107.617 38.538C108.109 39.0966 108.562 39.6812 108.982 40.2943C109.103 40.4714 109.238 40.6956 109.135 40.8603C109.009 41.0635 108.767 40.9309 108.573 40.8628C107.86 40.6139 107.11 40.63 106.371 40.5891C106.154 40.5767 105.916 40.6002 105.708 40.8579C106.254 41.1043 106.757 41.3694 107.286 41.5601C107.872 41.7719 108.261 42.1583 108.507 42.7083C109.009 43.8316 109.255 45.0169 109.35 46.2381C109.368 46.4821 109.434 46.7682 109.177 46.9119C108.875 47.0803 108.806 46.6815 108.594 46.5936C108.419 46.7509 108.495 46.9478 108.494 47.1212C108.485 48.2978 108.48 49.4745 108.485 50.6499C108.489 51.8153 108.068 52.8656 107.622 53.9097C107.561 54.0534 107.53 54.2776 107.331 54.2664C107.126 54.2565 107.151 54.0274 107.092 53.8825C107.015 53.6955 106.926 53.5134 106.781 53.1951C106.372 54.0373 106.027 54.768 105.664 55.4901C104.994 56.8253 104.119 58.0168 103.085 59.0918C102.949 59.233 102.836 59.4634 102.586 59.3878C102.315 59.3061 102.338 59.0386 102.292 58.8218C102.22 58.4787 102.155 58.1344 102.074 57.7938C102.041 57.6526 101.975 57.5003 101.808 57.4904C101.612 57.4792 101.627 57.6749 101.571 57.7951C101.175 58.6509 100.976 59.5848 100.456 60.3948C99.7273 61.5293 98.7377 62.3913 97.654 63.1419C96.59 63.8801 95.4753 64.5464 94.3681 65.2202C93.7637 65.588 93.6609 65.5199 93.5246 64.8437C93.3661 64.0547 93.2497 63.2521 93.0131 62.4867C92.6254 61.2283 93.0936 60.1495 93.5965 59.0621C93.7228 58.7871 93.8974 58.8912 94.0238 59.0497C94.2021 59.2739 94.3359 59.534 94.5117 59.7606C94.7285 60.0406 94.9118 60.1421 95.131 59.7111C95.7565 58.4837 96.3064 57.2513 95.9819 55.8196C95.9287 55.5867 95.9683 55.3935 96.2593 55.391C96.7188 55.3861 96.6396 55.1111 96.5232 54.8523C96.211 54.1587 95.9113 53.4564 95.3775 52.8892C95.2772 52.7826 95.0617 52.6798 95.2103 52.4903C95.3168 52.3541 95.4939 52.4482 95.6128 52.5064C96.2556 52.8223 96.9443 53.0601 97.4657 53.5877C97.6205 53.7438 97.7877 53.9692 98.0391 53.8627C98.2992 53.7524 98.2125 53.4725 98.2225 53.2545C98.2608 52.3318 98.3624 51.4041 98.0045 50.5124C97.9425 50.3563 98.0243 50.2461 98.1581 50.1507C98.5494 49.8696 98.4553 49.5587 98.2596 49.1822C97.6515 48.0117 96.6198 47.4457 95.4221 47.0964C95.2673 47.0519 95.0617 47.0766 95.0679 46.8438C95.0716 46.6679 95.2388 46.6345 95.3763 46.5886C95.977 46.3868 96.5368 46.087 97.1858 45.9978C97.8546 45.9062 98.0701 45.1445 97.6564 44.6119C96.4848 43.1046 94.9205 42.6426 93.0986 42.894C92.2985 43.0043 91.694 43.5641 91.0029 43.9233C90.7688 44.0447 90.7466 44.3246 90.8233 44.5896C90.8964 44.8435 91.0562 44.9575 91.3175 44.9698C91.668 44.9859 92.0173 45.0144 92.3666 45.0479C92.5288 45.064 92.7146 45.0751 92.7716 45.2683C92.8261 45.4529 92.7084 45.5644 92.5709 45.6783C92.2217 45.9681 91.8935 46.2802 91.6817 46.6939C91.4352 47.1745 91.5355 47.3615 92.078 47.4284C92.099 47.4309 92.1201 47.4284 92.1399 47.4333C92.4074 47.499 92.7988 47.3342 92.9165 47.6587C93.0317 47.9771 92.6378 48.1183 92.4743 48.3412C92.3406 48.522 92.1919 48.6917 92.0594 48.8738C91.6953 49.3766 91.7622 49.5513 92.3728 49.685C92.5325 49.7197 92.7282 49.7123 92.7741 49.908C92.8236 50.1247 92.6527 50.23 92.4991 50.3439C92.1857 50.5768 91.9009 50.8418 91.6507 51.1477C91.3658 51.4958 91.3943 51.7373 91.8315 51.8909C92 51.9503 92.2291 51.9367 92.2464 52.1856C92.2625 52.4173 92.0396 52.4668 91.8997 52.5783C91.1355 53.1827 90.3304 53.7722 90.2784 54.8634C90.2474 55.5223 90.3428 56.1825 90.5026 56.824C91.4414 60.6053 92.2898 64.4077 92.8075 68.2695C93.3636 72.4187 92.1436 75.9944 89.129 78.9495C86.2766 81.7449 82.9152 83.6461 79.1327 84.8723C76.4896 85.7294 73.8168 86.3598 71.0201 86.3226C68.6657 86.2917 66.3743 85.935 64.0966 85.286C61.9019 84.6605 59.81 83.8468 57.8209 82.7519C54.9549 81.174 52.4047 79.2257 50.5543 76.47C49.3083 74.6134 48.7931 72.5413 48.7423 70.3317C48.7051 68.7129 49.0197 67.1325 49.2687 65.5447C49.6824 62.9177 50.3487 60.344 50.9234 57.7505C51.0745 57.068 51.29 56.4004 51.4089 55.7069C51.6108 54.5228 51.1884 53.5629 50.153 52.9288C50.0155 52.8446 49.8892 52.743 49.7641 52.6414C49.3603 52.3132 49.3876 52.1287 49.8644 51.9033C50.4342 51.6345 50.4726 51.4041 49.992 50.9682C49.7183 50.7192 49.4037 50.5148 49.1275 50.2696C48.8736 50.043 48.8179 49.8398 49.2352 49.7048C50.1382 49.4138 50.1456 49.3915 49.6056 48.5988C49.4681 48.3969 49.2699 48.2372 49.1126 48.0477C48.8575 47.7417 48.8785 47.546 49.3257 47.4717C49.6279 47.4209 50.049 47.6439 50.2125 47.2401C50.3921 46.7967 49.9858 46.5292 49.7604 46.2282C49.6006 46.0164 49.3913 45.8405 49.1993 45.6548C48.9244 45.3885 49.0235 45.2052 49.3442 45.1383C49.6848 45.0677 50.0403 45.064 50.3871 45.0194C50.5989 44.9921 50.8838 45.0665 50.9544 44.768C51.0225 44.4794 50.9866 44.2019 50.7438 43.9728C49.156 42.4791 46.4844 42.4667 44.8619 43.9542C44.7096 44.0942 44.5659 44.2428 44.4235 44.3914C43.6828 45.1631 43.8376 45.6932 44.8991 46.0239C46.2702 46.4524 46.5253 46.5762 46.9922 47.063ZM64.8559 69.9663C64.8843 69.9663 64.9128 69.9663 64.9413 69.9663C64.9413 71.8848 64.9153 73.8046 64.95 75.7219C64.976 77.171 65.1729 78.5842 65.8566 79.9131C66.6344 81.4242 68.8712 82.8559 70.6684 82.14C70.9136 82.0422 71.1465 82.0967 71.388 82.1896C72.0556 82.446 72.7231 82.3704 73.3821 82.1475C75.0405 81.5876 75.9013 80.3268 76.4016 78.7328C76.8673 77.2502 76.8302 75.712 76.8723 74.196C76.9689 70.7949 76.9417 67.3914 77.0135 63.9903C77.0494 62.3021 76.2605 61.1713 74.7655 60.5818C72.3342 59.6232 69.8262 59.6417 67.3788 60.474C65.5878 61.0834 64.8621 62.3071 64.8571 64.2108C64.8521 66.1305 64.8559 68.0478 64.8559 69.9663ZM59.1883 61.455C57.4085 61.455 56.2232 62.5907 56.2207 64.2975C56.2182 65.7911 57.5546 66.9839 59.2353 66.9863C60.7872 66.9888 62.1038 65.7057 62.11 64.186C62.115 62.6985 60.7847 61.455 59.1883 61.455ZM82.7567 61.4587C81.0908 61.4215 79.8572 62.5759 79.8188 64.2083C79.7841 65.6846 81.0586 66.8898 82.6489 66.969C84.4064 67.0557 85.6053 65.5831 85.6388 64.3854C85.6871 62.6985 84.5055 61.4971 82.7567 61.4587Z" fill="#B3BFB6"/>
<path d="M70.8513 128.858C70.6036 128.858 70.3547 128.842 70.1094 128.862C69.666 128.896 69.3824 128.707 69.152 128.33C68.0646 126.553 67.1394 124.689 66.1684 122.85C65.959 122.453 65.8067 122.02 65.5553 121.654C64.9298 120.744 65.1552 119.854 65.4995 118.926C66.1523 117.171 66.7827 115.407 67.3995 113.64C67.9209 112.144 68.4188 110.639 68.9068 109.131C69.0269 108.76 69.2883 108.764 69.5409 108.851C70.3943 109.149 71.2353 109.131 72.0886 108.864C72.4094 108.764 72.6088 108.861 72.7314 109.227C73.7731 112.328 74.8357 115.422 75.8922 118.518C75.9851 118.79 76.0458 119.079 76.1858 119.323C76.6886 120.2 76.4582 121.025 76.0458 121.839C74.9968 123.906 73.9068 125.955 72.8999 128.042C72.4354 129.005 71.6477 128.878 70.8513 128.858Z" fill="#F6BD41"/>
<path d="M55.0153 82.7206C55.2309 82.7157 55.3535 82.9101 55.5046 83.0364C57.6076 84.794 59.7107 86.5527 61.8014 88.3251C63.814 90.0318 65.8824 91.6667 67.9842 93.2607C68.1811 93.4106 68.3744 93.5654 68.5564 93.7326C68.6419 93.8119 68.762 93.932 68.7521 94.0199C68.7323 94.1921 68.549 94.1995 68.4041 94.202C66.5401 94.2416 65.387 95.4343 64.297 96.7299C62.7142 98.6112 61.3505 100.638 60.2693 102.85C60.216 102.959 60.1714 103.118 60.0253 103.082C59.8259 103.033 59.7553 102.833 59.6995 102.659C59.3689 101.643 59.032 100.63 58.726 99.607C57.5841 95.7787 56.4384 91.9503 55.3312 88.112C55.133 87.4259 55.0909 86.6914 55.0129 85.9743C54.9125 85.0516 54.8457 84.1251 54.7689 83.2012C54.7515 83.003 54.6723 82.7677 55.0153 82.7206Z" fill="#E3E3E3"/>
<path d="M86.8943 83.2346C86.8001 86.165 86.1833 88.9901 85.3114 91.7781C84.6971 93.7437 84.2202 95.7526 83.6455 97.7306C83.1798 99.3333 82.6733 100.925 82.0751 102.485C82.0119 102.65 82.0206 102.894 81.7766 102.89C81.5734 102.888 81.4719 102.701 81.3889 102.531C80.9207 101.565 80.3498 100.657 79.7466 99.773C78.6889 98.2248 77.5791 96.7137 76.2018 95.4244C75.4761 94.7457 74.6462 94.2775 73.6257 94.2181C73.4485 94.2081 73.2033 94.2503 73.16 94.0224C73.124 93.8304 73.3197 93.7053 73.4634 93.5889C74.7404 92.546 76.0644 91.5663 77.3153 90.49C79.5794 88.543 81.8806 86.6394 84.167 84.7196C84.8779 84.1226 85.5925 83.5318 86.306 82.9398C86.4521 82.8184 86.6094 82.6946 86.8063 82.7974C86.9909 82.8927 86.9265 83.0822 86.8943 83.2346Z" fill="#E3E3E3"/>
<path d="M103.18 112.124C103.187 113.174 102.551 114.017 102.275 114.974C102.002 115.916 101.344 116.127 100.512 116.306C99.2847 116.57 98.0585 116.833 96.8162 117.023C96.2948 117.103 96.1053 116.935 96.2292 116.424C96.4125 115.667 96.6478 114.924 96.8571 114.174C96.9314 113.908 97.0714 113.747 97.3748 113.743C97.599 113.739 97.7526 113.596 97.8207 113.375C97.9892 112.828 97.9879 112.272 97.8603 111.726C97.7947 111.445 97.6225 111.173 97.3055 111.122C96.9599 111.066 96.7952 111.338 96.6602 111.597C96.1982 112.482 96.0223 113.465 95.7152 114.403C95.46 115.184 95.2594 115.984 95.0587 116.783C94.9696 117.135 94.7702 117.312 94.4234 117.353C92.0317 117.639 89.6512 117.596 87.2893 117.1C86.5127 116.938 86.483 116.75 86.9735 116.133C88.9886 113.603 91.0483 111.111 93.2294 108.723C94.0753 107.796 94.9522 106.888 96 106.181C97.4987 105.17 98.9082 105.662 99.4085 107.388C99.7727 108.645 100.409 109.544 101.799 109.831C102.719 110.022 103.182 110.92 103.18 112.124Z" fill="#F6BD41"/>
<path d="M57.3945 99.1821C57.833 100.391 58.264 101.582 58.695 102.774C58.8201 103.121 58.9279 103.476 59.0765 103.813C59.214 104.124 59.3118 104.489 59.7589 104.518C60.2073 104.546 60.5863 104.42 60.8092 104.015C61.2452 103.221 61.6452 102.409 62.0862 101.617C62.3871 101.078 62.7116 100.552 63.0634 100.045C63.4176 99.5363 63.5662 99.5574 63.8759 100.097C65.2073 102.417 66.462 104.779 67.7042 107.148C68.1142 107.931 68.1588 108.581 67.8541 109.414C66.7431 112.448 65.7188 115.514 64.6599 118.568C64.6091 118.717 64.6165 118.933 64.4047 118.944C64.1558 118.957 64.0654 118.744 63.9811 118.553C62.9878 116.293 62.0441 114.011 61.1337 111.716C60.1305 109.188 59.2722 106.611 58.4622 104.017C57.9742 102.458 57.4825 100.89 57.3945 99.1821Z" fill="#E3E3E3"/>
<path d="M84.3133 99.2886C84.0755 101.629 83.3484 103.843 82.5979 106.041C81.3358 109.743 79.9003 113.38 78.3261 116.961C78.0858 117.508 77.853 118.055 77.6164 118.603C77.5409 118.778 77.4405 118.963 77.2399 118.97C77.0318 118.978 77.017 118.757 76.9662 118.609C76.3581 116.859 75.7487 115.109 75.148 113.356C74.655 111.914 74.1794 110.468 73.684 109.027C73.5131 108.531 73.5329 108.098 73.8042 107.615C75.1257 105.265 76.2751 102.822 77.6511 100.5C77.6821 100.447 77.7044 100.388 77.7366 100.335C78.2146 99.5462 78.393 99.5487 78.9008 100.339C79.5795 101.395 80.1777 102.498 80.7586 103.61C80.8342 103.756 80.9122 103.901 81.0014 104.038C81.2194 104.373 81.5191 104.565 81.9315 104.536C82.3551 104.508 82.5211 104.187 82.6449 103.856C82.905 103.163 83.1354 102.457 83.3881 101.761C83.6928 100.935 84.0061 100.112 84.3133 99.2886Z" fill="#E3E3E3"/>
<path d="M70.8031 108.07C69.6971 108.11 69.001 107.588 68.5105 106.608C67.2311 104.052 65.943 101.497 64.401 99.083C64.2289 98.813 64.2128 98.5455 64.4196 98.2829C64.4704 98.2185 64.515 98.1479 64.5633 98.081C65.3498 97.0059 66.0384 96.134 67.7513 96.591C69.7305 97.1174 71.8509 96.8325 73.9082 96.6393C74.1744 96.6146 74.4643 96.6121 74.6971 96.5031C75.4105 96.1674 75.8874 96.4325 76.332 96.9985C77.8145 98.8873 77.7501 98.3349 76.6131 100.298C75.4254 102.349 74.3516 104.46 73.2951 106.58C72.7699 107.635 71.8881 108.013 70.8031 108.07Z" fill="#F6BD41"/>
<path d="M70.3821 95.5667C69.6637 95.7575 68.9565 95.6931 68.248 95.5903C68.9615 95.4441 69.6674 95.0255 70.3821 95.5667Z" fill="#B3BFB6"/>
<path d="M73.4239 95.5842C72.8009 95.7551 72.2981 95.7266 71.8014 95.7439C71.6689 95.7489 71.4732 95.7514 71.4621 95.573C71.4497 95.391 71.6194 95.2869 71.7828 95.2559C72.3241 95.1544 72.8059 95.3587 73.4239 95.5842Z" fill="#B3BFB6"/>
<path d="M64.856 69.9663C64.856 68.0478 64.8522 66.1293 64.8572 64.2107C64.8609 62.3071 65.5867 61.0834 67.3789 60.474C69.8263 59.6417 72.3343 59.6231 74.7656 60.5818C76.2605 61.1713 77.0483 62.3021 77.0136 63.9903C76.943 67.3913 76.969 70.7961 76.8724 74.1959C76.829 75.7119 76.8674 77.2502 76.4017 78.7328C75.9001 80.3268 75.0406 81.5876 73.3821 82.1474C72.7232 82.3704 72.0544 82.4459 71.3881 82.1896C71.1478 82.0967 70.9149 82.0422 70.6685 82.14C68.8726 82.8559 66.6345 81.4229 65.8567 79.9131C65.173 78.5854 64.9761 77.1709 64.9501 75.7218C64.9154 73.8033 64.9414 71.8848 64.9414 69.9663C64.9129 69.9663 64.8844 69.9663 64.856 69.9663ZM66.2518 73.0874C66.3125 73.075 66.341 73.0788 66.3509 73.0664C68.039 70.8283 73.1022 70.6326 75.1607 72.7964C75.2412 72.8818 75.3217 73.0267 75.4604 72.9673C75.6648 72.8794 75.5645 72.6812 75.5657 72.5276C75.5818 69.5588 75.5843 66.5912 75.6177 63.6224C75.6252 62.9239 75.313 62.4532 74.7805 62.0718C74.0002 61.5119 73.1196 61.32 72.1733 61.258C70.7242 61.1627 69.3011 61.175 67.9016 61.6457C66.8401 62.0024 66.2332 62.7022 66.2233 63.7822C66.1998 66.4822 66.1862 69.1835 66.1923 71.8836C66.1948 72.2799 66.0957 72.6961 66.2518 73.0874ZM73.8875 74.0436C73.2731 72.8918 71.0165 72.1548 70.1371 72.8955C71.5491 72.9822 72.6947 73.5779 73.8875 74.0436Z" fill="#201011"/>
<path d="M59.1883 61.4548C60.7848 61.4548 62.115 62.6983 62.11 64.1871C62.1051 65.7068 60.7872 66.9899 59.2353 66.9874C57.5546 66.9837 56.2182 65.7922 56.2207 64.2985C56.2232 62.5906 57.4072 61.4548 59.1883 61.4548ZM59.3097 63.0897C59.3295 63.6149 59.7568 64.1128 60.1259 64.0905C60.5668 64.062 60.6473 63.761 60.6324 63.3944C60.6101 62.8445 60.2584 62.3912 59.8658 62.4506C59.4831 62.5088 59.3394 62.7962 59.3097 63.0897Z" fill="#201011"/>
<path d="M82.7563 61.4585C84.5051 61.4981 85.6867 62.6995 85.6396 64.3852C85.6049 65.5829 84.4073 67.0555 82.6497 66.9688C81.0594 66.8908 79.785 65.6844 79.8197 64.2081C79.8568 62.5744 81.0904 61.4201 82.7563 61.4585ZM84.2289 63.4216C84.2388 62.9113 83.8957 62.4283 83.5031 62.4444C83.0969 62.4617 82.952 62.7515 82.9334 63.1107C82.9098 63.569 83.3074 64.0731 83.6939 64.0805C84.1459 64.0904 84.2178 63.7771 84.2289 63.4216Z" fill="#201011"/>
<path d="M66.2516 73.0874C66.0955 72.6947 66.1934 72.2786 66.1934 71.8835C66.1872 69.1834 66.2008 66.4822 66.2243 63.7821C66.2342 62.7021 66.8399 62.0023 67.9026 61.6456C69.3021 61.175 70.7252 61.1626 72.1743 61.2579C73.1218 61.3199 74.0012 61.5119 74.7815 62.0717C75.3141 62.4532 75.6262 62.9238 75.6188 63.6223C75.5853 66.5899 75.5828 69.5587 75.5667 72.5275C75.5655 72.6811 75.6658 72.8793 75.4615 72.9672C75.324 73.0267 75.2435 72.8805 75.1617 72.7963C73.1033 70.6325 68.0401 70.8295 66.3519 73.0663C66.342 73.0787 66.3123 73.0762 66.2516 73.0874Z" fill="#B3BFB6"/>
<path d="M73.887 74.0434C72.6943 73.5777 71.5487 72.9819 70.1367 72.8952C71.0161 72.1546 73.274 72.8915 73.887 74.0434Z" fill="#B3BFB6"/>
<path d="M59.3096 63.0898C59.3405 62.7963 59.483 62.5077 59.8657 62.4495C60.2571 62.39 60.6088 62.8433 60.6323 63.3932C60.6472 63.7599 60.5667 64.0608 60.1258 64.0893C59.7567 64.1141 59.3294 63.615 59.3096 63.0898Z" fill="#B3BFB6"/>
<path d="M84.2289 63.4215C84.2177 63.7769 84.1446 64.0903 83.6951 64.0816C83.3086 64.0742 82.9111 63.5701 82.9346 63.1118C82.9532 62.7514 83.0981 62.4628 83.5043 62.4455C83.8969 62.4282 84.24 62.9112 84.2289 63.4215Z" fill="#B3BFB6"/>
<path d="M72.6164 85.0549C72.2469 85.0873 71.8289 85.0295 71.4214 84.9071C71.0588 84.7975 70.7102 84.8379 70.3465 84.9348C68.961 85.302 67.7775 84.9187 66.7892 83.9027C66.5491 83.6556 66.3355 83.3819 66.1138 83.1164C66.0503 83.0413 66.0087 82.9421 66.0814 82.8555C66.1657 82.755 66.25 82.8381 66.3331 82.882C67.6817 83.6013 69.0984 83.8288 70.597 83.4778C71.1789 83.3415 71.7412 83.517 72.3081 83.6002C73.3853 83.7583 74.3933 83.5794 75.3643 83.0829C75.616 82.9536 75.9866 82.6442 76.1782 82.8589C76.4068 83.1141 76.0316 83.42 75.8446 83.6163C74.9902 84.5204 73.9822 85.1323 72.6164 85.0549Z" fill="#8B8E87"/>
<path d="M51.0013 53.4707C51.29 53.2167 51.3396 52.8562 51.3866 52.5154C51.5291 51.4883 51.8624 50.5107 52.1288 49.517C52.1871 49.3001 52.2837 49.0882 52.394 48.8925C52.6666 48.408 52.8524 48.4055 53.1981 48.8367C53.3332 49.004 53.4261 49.2877 53.6925 49.2394C53.9403 49.1948 53.8994 48.9098 53.9552 48.724C54.4434 47.0785 55.245 45.614 56.4419 44.3762C56.5894 44.2238 56.7257 43.9549 56.9921 44.0788C57.2188 44.1841 57.1234 44.4456 57.1271 44.6413C57.1532 45.8358 57.0565 47.0314 57.2102 48.2246C57.3601 49.3856 57.8012 50.4499 58.2485 51.5093C59.1815 53.7198 60.5568 55.6688 61.8851 57.65C62.7945 59.0068 63.9419 60.1603 64.9046 61.4638C65.2119 61.8801 65.4572 61.4155 65.7187 61.5146C64.9529 62.4587 64.8823 63.5615 64.9046 64.72C64.9542 67.3616 64.9443 70.0045 64.9542 72.6474C64.9554 72.8915 65.0062 73.1443 64.886 73.3784C64.6035 73.2198 64.6965 72.9435 64.6952 72.7106C64.6841 71.2039 64.6791 69.6972 64.6865 68.1906C64.689 67.6739 64.5056 67.441 63.9728 67.6293C63.818 67.6838 63.6581 67.7247 63.507 67.7879C62.4897 68.2104 61.7624 68.9922 61.0165 69.7642C60.1987 70.6104 59.7254 71.6487 59.5036 72.7552C59.2124 74.2074 59.122 75.6868 59.3363 77.1798C59.5172 78.435 59.8121 79.6319 60.4639 80.7334C61.0983 81.8064 61.8838 82.7679 62.823 83.5584C63.8502 84.4245 64.8451 85.4058 66.275 85.6276C66.4423 85.6536 66.6033 85.6883 66.6603 85.8816C66.4943 85.9275 66.3332 85.9039 66.1746 85.8506C64.7497 85.3761 63.2703 85.0923 61.859 84.5633C58.1208 83.1644 54.7581 81.1956 52 78.2689C49.9134 76.0548 48.8466 73.4329 48.776 70.3886C48.74 68.8287 49.0597 67.3121 49.2518 65.7806C49.2976 65.4188 49.4996 65.0719 49.3348 64.694C49.3447 64.6296 49.3546 64.5651 49.3645 64.5007C49.5504 64.3161 49.6074 64.0732 49.6483 63.8316C50.046 61.4799 50.6234 59.1691 51.2206 56.8632C51.5192 55.706 51.6976 54.5623 51.0013 53.4707ZM56.271 64.2541C56.261 65.7719 57.5608 66.9515 59.257 66.9614C60.7736 66.9714 62.0994 65.7026 62.1254 64.217C62.1515 62.7301 60.8232 61.4774 59.2211 61.4762C57.4431 61.4737 56.2821 62.5665 56.271 64.2541Z" fill="#8B8E87"/>
<path d="M76.508 61.7771C77.016 61.6594 77.2898 61.232 77.5624 60.8714C78.7135 59.3474 79.9699 57.9039 81.0503 56.3253C82.2138 54.6266 83.2843 52.8635 84.1157 50.9888C84.6163 49.86 84.9422 48.6272 84.9979 47.3534C85.0363 46.4923 85.1912 45.6386 84.9075 44.7837C84.8307 44.5532 84.7737 44.2063 85.0933 44.0749C85.3932 43.951 85.4973 44.262 85.6621 44.4355C86.8206 45.656 87.5913 47.0784 87.9221 48.7337C87.9531 48.8911 87.984 49.0881 88.1724 49.129C88.3966 49.1785 88.4858 48.9791 88.5936 48.8304C88.7374 48.6309 88.8699 48.3608 89.145 48.393C89.456 48.4302 89.4201 48.7585 89.492 48.984C89.8587 50.1376 90.3246 51.2601 90.5736 52.4521C90.6343 52.7408 90.7161 53.0692 91.073 53.1782C90.6567 53.742 90.2155 54.3181 90.2763 55.059C90.3295 55.7108 90.3977 56.3662 90.5724 57.0081C90.8487 58.0204 91.1163 59.0376 91.3121 60.0673C91.7718 62.4908 92.3033 64.9008 92.7035 67.338C93.2822 70.8581 92.856 74.1416 90.7298 77.1041C90.3481 77.6357 89.8352 78.0693 89.5663 78.6839L89.5675 78.6826C89.3618 78.7372 89.1921 78.8574 89.057 79.0135C88.5676 79.5748 87.984 80.0332 87.4079 80.4916C84.5531 82.764 81.349 84.3327 77.8102 85.231C77.2601 85.371 76.6802 85.4825 76.1933 85.8183C76.1128 85.7972 76.031 85.7749 75.9504 85.7539C75.9665 85.6423 76.0273 85.568 76.1301 85.5234C77.7694 84.8122 79.0567 83.6735 80.2239 82.3329C81.0826 81.3466 81.7442 80.2476 82.1134 79.042C82.6388 77.3247 82.8147 75.5379 82.5285 73.724C82.0775 70.8705 80.7381 68.7294 77.9156 67.706C77.1771 67.4383 77.1858 67.4235 77.1783 68.2449C77.1536 70.9684 77.2415 73.693 77.0643 76.4152C77.0408 76.7819 77.0482 77.1611 76.7744 77.4597C76.7236 76.1463 76.8921 74.8416 76.9305 73.5307C76.9974 71.2484 76.9243 68.9661 76.99 66.6825C77.0346 65.042 77.3307 63.3445 76.508 61.7771ZM82.8259 61.4785C81.1296 61.4438 79.9117 62.5627 79.8671 64.1995C79.8274 65.638 81.0987 66.8783 82.6574 66.9241C84.2793 66.9712 85.6398 65.7929 85.667 64.3159C85.6955 62.6953 84.5122 61.5132 82.8259 61.4785Z" fill="#8B8E87"/>
<path d="M92.1669 45.9471C92.4717 45.3139 92.4729 45.3127 91.7468 45.1826C91.6056 45.1578 91.4606 45.1492 91.3169 45.1368C90.9898 45.1083 90.6478 45.1343 90.5598 44.6771C90.4706 44.2124 90.6168 43.8965 91.017 43.6437C91.6006 43.2745 92.1594 42.8656 92.8075 42.4208C92.2982 42.142 91.9116 42.448 91.5213 42.3935C91.157 42.3415 90.7804 42.3849 90.4087 42.3787C90.2377 42.3749 90.0741 42.3365 90.0159 42.1445C89.9663 41.9797 90.0692 41.8669 90.1732 41.7666C91.0393 40.929 92.0132 40.2351 93.1098 39.7407C93.738 39.457 94.3848 39.2575 94.9832 38.8647C95.7204 38.3803 96.6683 38.4199 97.5109 38.4955C98.5455 38.5884 99.6519 38.7198 100.451 39.4843C101.105 40.11 101.641 40.8621 102.22 41.5634C102.468 41.8632 102.742 42.1408 102.855 42.5397C102.985 43.0006 102.857 43.2423 102.368 43.1865C101.957 43.1394 101.745 43.1977 101.795 43.697C101.845 44.1852 101.55 44.4119 101.059 44.3611C100.773 44.3314 100.488 44.2769 100.202 44.2719C100.006 44.2682 99.8291 44.3834 99.8018 44.5916C99.7721 44.8084 99.9604 44.8592 100.126 44.8865C101.58 45.1306 102.581 47.0709 102.453 48.4252C102.426 48.7126 102.432 48.9679 102.014 48.9072C101.632 48.8514 101.701 49.1575 101.727 49.3669C101.781 49.7956 101.883 50.2181 101.934 50.6468C102.064 51.7359 101.716 52.7581 101.468 53.7927C101.403 54.0653 101.242 54.302 100.95 54.3503C100.659 54.3986 100.616 54.0938 100.477 53.9303C100.337 53.7655 100.284 53.5102 100.009 53.4842C99.8266 53.5945 99.9406 53.7456 99.9543 53.8733C100.093 55.1643 99.9059 56.3836 99.1575 57.4751C98.911 57.8345 98.6619 58.1764 98.1093 58.034C97.8144 57.9584 97.6211 58.2533 97.4848 58.4676C96.9149 59.3647 96.1876 60.1044 95.3909 60.8032C94.946 61.1935 94.4752 61.3385 93.9275 61.3199C93.4418 61.3038 93.2201 61.5243 93.2919 61.9902C93.4307 62.8811 93.5856 63.7695 93.759 64.6542C93.8136 64.9292 93.9251 65.1659 94.3141 64.9503C96.3139 63.8438 98.2877 62.7113 99.8056 60.9395C100.689 59.9086 101.015 58.6188 101.528 57.4144C101.6 57.2459 101.546 56.9263 101.839 56.9572C102.134 56.9882 102.313 57.2385 102.313 57.526C102.315 57.9708 102.499 58.3673 102.569 58.791C102.612 59.0537 102.764 59.1305 102.991 59.1429C102.97 59.216 102.948 59.2891 102.927 59.3622C102.741 59.4415 102.561 59.418 102.386 59.33L102.389 59.325C102.353 59.1689 102.316 59.014 102.28 58.8579C102.235 58.6064 102.191 58.3536 102.146 58.1021C102.126 57.8568 102.129 57.5755 101.812 57.5346C101.688 57.5185 101.659 57.6982 101.664 57.8258C101.653 57.8952 101.641 57.9646 101.631 58.034C101.284 58.3053 101.307 58.7353 101.175 59.0983C101.135 59.2259 101.094 59.3535 101.055 59.4824C101.015 59.5617 100.974 59.6398 100.933 59.7191C100.768 59.8702 100.744 60.0858 100.674 60.2816C100.498 60.3534 100.424 60.4997 100.392 60.6756C100.291 60.8181 100.108 60.8999 100.082 61.0969C99.9666 61.1452 99.8688 61.2109 99.8378 61.3422C99.7882 61.4066 99.7387 61.4711 99.6891 61.5367C99.4747 61.6656 99.274 61.8081 99.1625 62.0435C98.7635 62.3694 98.3646 62.6952 97.9656 63.0211C97.4935 63.2863 97.0115 63.5378 96.6658 63.9764C96.6064 63.9937 96.5481 64.0099 96.4886 64.0272C96.278 64.0446 96.1454 64.1709 96.0451 64.3432C95.9893 64.3642 95.9336 64.3853 95.8778 64.4064C95.7341 64.42 95.625 64.4869 95.5556 64.6158L95.5172 64.6108L95.4887 64.6356C95.2843 64.6604 95.1468 64.7756 95.0526 64.9528C94.9931 64.9714 94.9324 64.9912 94.8729 65.0098C94.7267 65.0296 94.6214 65.1039 94.5644 65.2427C94.4566 65.2836 94.3476 65.3232 94.2398 65.3641C94.106 65.3988 94.0056 65.4769 93.9424 65.6008L93.9151 65.581C93.9151 65.581 93.8879 65.6008 93.8867 65.6008C93.7875 65.5227 93.6884 65.4434 93.5893 65.3641C93.5633 65.1857 93.5372 65.0073 93.5112 64.8289C93.5286 64.5563 93.484 64.2998 93.3254 64.0706C93.2659 63.7447 93.2077 63.4188 93.1482 63.0917C93.1754 62.9901 93.1581 62.9022 93.0738 62.8328C93.0577 62.7535 93.0416 62.6742 93.0255 62.5961C93.059 62.4945 93.0354 62.409 92.9586 62.3359C92.9351 62.1761 92.9128 62.015 92.8892 61.8552C92.7926 60.8664 93.2485 60.0239 93.6004 59.1528C93.7107 58.8802 93.878 58.8492 94.0552 59.0673C94.2485 59.3052 94.3922 59.584 94.5855 59.8219C94.7589 60.035 94.9485 60.1763 95.1393 59.8008C95.7688 58.5606 96.3796 57.3203 96.0488 55.8607C95.9868 55.5906 96.0475 55.4097 96.361 55.3973C96.7922 55.3812 96.6869 55.1061 96.589 54.8806C96.2755 54.1644 95.9757 53.4383 95.4082 52.8709C95.314 52.7767 95.143 52.6714 95.2533 52.5153C95.3574 52.3703 95.5321 52.4657 95.6511 52.5227C96.3325 52.8535 97.0636 53.1001 97.5964 53.6824C97.7203 53.8175 97.8776 53.9513 98.0833 53.8646C98.2692 53.7865 98.2456 53.5982 98.2592 53.4359C98.3385 52.4719 98.3968 51.5079 98.0759 50.5712C98.0102 50.3779 98.0697 50.2738 98.2196 50.1549C98.5901 49.8662 98.5033 49.549 98.3076 49.1736C97.698 48.0051 96.6708 47.4339 95.4677 47.0932C95.3128 47.0498 95.1084 47.0709 95.1108 46.8405C95.1133 46.6633 95.2831 46.6323 95.4181 46.584C96.0129 46.3671 96.5741 46.0648 97.2234 45.988C97.7426 45.926 98.1366 45.1987 97.89 44.8344C96.4862 42.7603 93.3836 42.0627 91.4656 43.7751C90.9179 43.8667 90.8622 44.21 91.0108 44.6585C91.0319 44.936 91.2215 44.9311 91.4234 44.9075C91.8918 44.9621 92.3602 45.0153 92.8285 45.0686C92.8644 45.1702 92.8991 45.2718 92.9338 45.3747C92.7591 45.5655 92.5832 45.7575 92.4085 45.9483C92.3292 45.9471 92.2486 45.9471 92.1669 45.9471Z" fill="#8B8E87"/>
<path d="M48.4204 63.0783C48.1987 62.7313 48.4601 62.4005 48.4613 62.0585C48.4638 61.4279 48.3102 61.1838 47.6869 61.2247C46.8456 61.2792 46.3426 60.7724 45.8705 60.2347C45.2881 59.5693 44.7591 58.8556 44.225 58.1506C44.0392 57.9053 43.8732 57.8161 43.6253 58.0515C43.2549 58.4034 42.9959 58.132 42.8311 57.8445C42.1596 56.6737 41.5908 55.4705 41.8671 54.0518C41.9018 53.8697 41.9997 53.5922 41.7383 53.5141C41.5425 53.4559 41.5314 53.7223 41.4446 53.8499C41.2774 54.0964 41.0543 54.3232 40.7619 54.322C40.4844 54.322 40.4918 53.9911 40.41 53.7966C39.8141 52.3791 39.5762 50.9245 39.9714 49.4017C40.047 49.1105 40.2031 48.6979 39.5885 48.7611C39.3383 48.7872 39.3135 48.5654 39.2986 48.3721C39.2106 47.1863 40.0544 45.6561 41.1064 45.1233C41.2662 45.0428 41.4583 45.0229 41.6379 44.987C41.8126 44.9511 41.9675 44.8854 41.9737 44.6859C41.9799 44.5013 41.8548 44.37 41.6949 44.3117C41.3963 44.2039 41.0754 44.1767 40.7929 44.3303C40.3952 44.5471 40.2366 44.3997 40.2762 44.0094C40.332 43.4679 40.1684 43.2201 39.5799 43.2164C39.1921 43.2139 39.0446 43.0107 39.2292 42.5461C39.5055 41.8535 40.0135 41.3393 40.4162 40.7482C40.6442 40.4137 40.9341 40.1262 41.1485 39.7669C41.4793 39.2131 42.1211 39.1214 42.6738 38.9045C43.8273 38.4523 45.023 38.5452 46.2174 38.5985C46.3376 38.6035 46.4851 38.6332 46.5668 38.7088C47.4317 39.5067 48.6187 39.6306 49.605 40.1783C50.4128 40.6256 51.0162 41.307 51.7398 41.8485C51.865 41.9427 51.917 42.0802 51.8489 42.2326C51.7758 42.3949 51.6197 42.3924 51.4759 42.3875C50.8589 42.3689 50.2505 42.2128 49.6273 42.2735C49.4464 42.2909 49.263 42.2921 49.0164 42.3045C49.2791 42.9599 50.1303 42.9314 50.3149 43.5695C50.113 43.5931 49.9655 43.4816 49.8082 43.3787C49.2419 43.0107 48.6298 42.8397 47.9422 42.8385C46.2757 42.836 45.0478 43.6451 44.0119 44.8519C43.8967 44.987 43.7914 45.1902 43.9611 45.2794C44.3403 45.4789 44.5274 45.889 44.9821 46.0303C45.7045 46.2545 46.5024 46.3884 47.0439 47.0488C46.9584 47.1008 46.9113 47.1467 46.8555 47.1615C46.6969 47.2037 46.5346 47.2359 46.3735 47.2693C45.2138 47.5122 44.2659 48.0735 43.6216 49.0932C43.4444 49.3745 43.2933 49.7127 43.7369 49.8255C44.1222 49.9234 44.0516 50.02 43.9339 50.3062C43.5386 51.2727 43.5213 52.3098 43.4668 53.3344C43.4556 53.5513 43.5324 53.7483 43.7431 53.8486C43.976 53.9589 44.0578 53.7433 44.1916 53.6256C44.8297 53.0668 45.4975 52.5551 46.3438 52.342C46.4776 52.3085 46.6337 52.1821 46.7378 52.332C46.8444 52.4857 46.6734 52.5861 46.5879 52.6939C46.1257 53.2737 45.6983 53.8759 45.417 54.5673C45.3241 54.7965 45.1952 55.1038 45.5607 55.1645C46.0787 55.25 45.9188 55.5585 45.8655 55.8522C45.6611 56.9648 45.8271 58.0341 46.3389 59.0291C46.5272 59.3946 46.6808 59.9955 47.0662 60.0017C47.371 60.0067 47.5395 59.4058 47.7278 59.0464C47.7997 58.9101 47.8269 58.6945 48.0487 58.7354C48.2073 58.7652 48.2433 58.9349 48.2866 59.0712C48.5344 59.8568 48.7984 60.6386 48.8256 61.4737C48.8083 61.6769 48.7897 61.8789 48.7723 62.0821C48.7042 62.1614 48.6856 62.2481 48.7253 62.346C48.7042 62.4241 48.6831 62.5009 48.6621 62.5789C48.5741 62.6446 48.5493 62.7326 48.5753 62.8367C48.5258 62.9184 48.4737 62.999 48.4204 63.0783Z" fill="#8B8E87"/>
</svg>
