<svg width="18" height="18" viewBox="0 0 18 18" fill="none" xmlns="http://www.w3.org/2000/svg">
<path d="M8.99913 17.6158C6.48567 17.6158 1.8114 13.7704 1.8114 10.134V2.8902L2.52608 2.87834C2.54122 2.87834 4.13667 2.84438 5.78286 2.17634C7.47117 1.49029 8.56017 0.702794 8.5704 0.695431L8.99708 0.384521L9.42745 0.695431C9.43767 0.703203 10.5267 1.49029 12.215 2.17634C13.8612 2.84438 15.4566 2.87834 15.4734 2.87834L16.1848 2.8902L16.1881 10.134C16.1885 13.77 11.5142 17.6158 8.99913 17.6158ZM3.26286 4.27866V10.1336C3.26286 12.9452 7.33454 16.164 8.99913 16.164C10.6641 16.164 14.7354 12.9452 14.7354 10.1336V4.27866C14.024 4.20175 12.8691 4.00743 11.6697 3.52061C10.4404 3.0207 9.50681 2.47743 8.99872 2.15384C8.49226 2.47743 7.55749 3.0207 6.3294 3.52061C5.12913 4.00784 3.97386 4.20175 3.26286 4.27866ZM8.61458 12.8557L5.56276 10.2559L6.50122 9.15175L8.45913 10.8184L12.1749 6.53766L13.2721 7.48961L8.61458 12.8557Z" fill="#F6BD41"/>
</svg>
