<svg width="14" height="14" viewBox="0 0 14 14" fill="none" xmlns="http://www.w3.org/2000/svg">
<path d="M8.5 3.25V3.25C8.5 2.55109 8.5 2.20163 8.38582 1.92597C8.23358 1.55843 7.94157 1.26642 7.57403 1.11418C7.29837 1 6.94891 1 6.25 1H4C2.58579 1 1.87868 1 1.43934 1.43934C1 1.87868 1 2.58579 1 4V6.25C1 6.94891 1 7.29837 1.11418 7.57402C1.26642 7.94157 1.55843 8.23358 1.92597 8.38582C2.20163 8.5 2.55109 8.5 3.25 8.5V8.5" stroke="#F6BD41" stroke-width="0.75"/>
<rect x="5.5" y="5.5" width="7.5" height="7.5" rx="1.5" stroke="#F6BD41" stroke-width="0.75"/>
</svg>
