<svg width="58" height="58" viewBox="0 0 58 58" fill="none" xmlns="http://www.w3.org/2000/svg">
<circle cx="29" cy="29" r="29" fill="#B3BFB6"/>
<circle cx="29" cy="29.3314" r="21.17" fill="#F6BD41"/>
<path d="M50.7469 29.1236C50.7469 30.4618 50.616 31.661 50.3841 32.8427C50.1358 34.1065 49.7817 35.3431 49.3107 36.5499C48.8586 37.707 48.326 38.821 47.6928 39.8836C46.7728 41.4281 45.6799 42.8422 44.4027 44.1143C43.1446 45.3678 41.773 46.4735 40.2419 47.3735C39.4635 47.8307 38.662 48.2428 37.8349 48.6132C36.8656 49.0473 35.8681 49.3839 34.8501 49.6666C33.788 49.9617 32.7115 50.1803 31.6113 50.3009C30.5651 50.4153 29.5209 50.5184 28.469 50.4892C27.2294 50.4548 26.0035 50.2968 24.7839 50.0602C23.8515 49.8796 22.9382 49.6379 22.0366 49.3516C21.2562 49.1038 20.5024 48.7784 19.7589 48.4331C18.5336 47.8641 17.3709 47.1893 16.2749 46.3971C15.123 45.5643 14.0577 44.6371 13.091 43.5934C11.8616 42.2655 10.7851 40.8283 9.92152 39.2361C9.26525 38.0267 8.72135 36.7711 8.29034 35.4606C7.91012 34.3045 7.62329 33.129 7.46217 31.9283C7.3226 30.8882 7.22819 29.8405 7.25436 28.786C7.27642 27.9055 7.33441 27.0265 7.45242 26.1553C7.58275 25.1916 7.77928 24.2378 8.05944 23.3029C8.42529 22.0832 8.86862 20.8948 9.44228 19.7567C10.2545 18.143 11.2223 16.6324 12.4086 15.2655C12.6718 14.9617 12.6672 14.5512 12.7939 14.1931C12.837 14.0714 12.72 14.0042 12.601 13.9683C12.2993 13.8775 12.2495 13.7236 12.387 13.4306C12.7303 12.6999 13.208 12.079 13.8474 11.5823C13.9474 11.5043 14.0429 11.4171 14.0967 11.2945C14.3492 10.7198 14.8464 10.4294 15.3882 10.1985C16.1615 9.86956 16.9702 9.72024 17.8101 9.73923C17.9338 9.74179 18.0421 9.70844 18.1365 9.61916C18.3371 9.42982 18.5798 9.41956 18.8333 9.47703C18.9246 9.49755 19.0262 9.50371 19.1047 9.54835C19.7435 9.91215 20.3116 9.62532 20.8975 9.38364C22.148 8.86745 23.4513 8.53034 24.7767 8.26557C26.5387 7.91357 28.3192 7.81865 30.1069 7.89715C31.4651 7.95719 32.8084 8.15268 34.1333 8.478C35.356 8.77817 36.546 9.16557 37.6938 9.68279C37.9262 9.78746 38.1623 9.74795 38.3957 9.6756C38.6076 9.60993 38.819 9.54373 39.0325 9.4837C39.3014 9.40776 39.5477 9.41802 39.7698 9.63096C39.9582 9.81107 40.2193 9.78233 40.4533 9.77977C41.283 9.76951 42.0609 9.96244 42.7957 10.3385C43.2231 10.5571 43.5813 10.8491 43.7921 11.2955C43.9358 11.5998 44.2314 11.7676 44.4443 12.0098C44.8435 12.4649 45.2571 12.9103 45.4598 13.4988C45.5526 13.7692 45.5029 13.8821 45.2355 13.9935C45.1185 14.0422 45.0826 14.1156 45.1078 14.2341C45.1858 14.6046 45.3058 14.9443 45.5732 15.2383C46.524 16.2835 47.3321 17.4354 48.0305 18.6623C48.8874 20.1672 49.5447 21.7594 50.0049 23.4281C50.5309 25.3322 50.7813 27.2759 50.7469 29.1236ZM19.0539 15.9346C18.8605 15.7329 18.7548 15.6811 18.1842 15.5035C17.7445 15.3665 17.6803 15.1469 17.9872 14.8273C18.0462 14.7657 18.1057 14.7041 18.1688 14.6461C18.841 14.0299 19.9478 14.035 20.6056 14.6538C20.7061 14.7482 20.721 14.8637 20.6928 14.9833C20.6636 15.1069 20.5455 15.0756 20.4578 15.0874C20.3141 15.1059 20.1674 15.1074 20.0258 15.1367C19.8929 15.1644 19.8518 15.2403 19.9657 15.3506C20.0453 15.4276 20.132 15.5005 20.1982 15.5882C20.2915 15.7129 20.4598 15.8237 20.3854 16.0074C20.3182 16.1742 20.1438 16.0823 20.0181 16.1034C19.8328 16.1347 19.8241 16.2152 19.9298 16.342C19.995 16.4205 20.0771 16.4867 20.134 16.5703C20.3577 16.8987 20.3547 16.9079 19.9806 17.0285C19.8082 17.0839 19.8308 17.1686 19.936 17.2625C20.0504 17.3646 20.1802 17.4493 20.2941 17.5519C20.4932 17.7325 20.4773 17.8274 20.2413 17.9393C20.0437 18.0327 20.0329 18.1091 20.1997 18.2451C20.2515 18.2872 20.3044 18.3293 20.3608 18.3642C20.7898 18.6274 20.9653 19.0245 20.8811 19.5151C20.8319 19.8024 20.7431 20.079 20.68 20.3617C20.4419 21.4357 20.1653 22.5024 19.9945 23.5907C19.8908 24.2485 19.761 24.9033 19.7764 25.5739C19.7974 26.4893 20.0104 27.3472 20.5271 28.1169C21.2937 29.2586 22.3502 30.0662 23.5375 30.7194C24.3616 31.173 25.2282 31.5101 26.1375 31.7692C27.0816 32.0386 28.0303 32.1859 29.0058 32.1987C30.1644 32.2141 31.2717 31.9535 32.3666 31.5979C33.9337 31.0894 35.3263 30.3023 36.508 29.1442C37.7569 27.9199 38.2623 26.4385 38.0319 24.7196C37.8175 23.1197 37.4665 21.5444 37.077 19.9779C37.0108 19.7121 36.9713 19.4386 36.9842 19.1656C37.0052 18.7136 37.3392 18.4688 37.6558 18.2189C37.7138 18.1733 37.8062 18.1522 37.7995 18.0563C37.7923 17.9531 37.6979 17.9588 37.6276 17.9342C37.4465 17.8705 37.4347 17.7705 37.5527 17.6263C37.6563 17.4996 37.7743 17.3898 37.9042 17.2933C37.9683 17.2456 38.0391 17.202 38.0181 17.1127C37.9991 17.0316 37.9185 17.0347 37.8518 17.0203C37.5989 16.9649 37.5712 16.8925 37.722 16.6842C37.7769 16.6088 37.8385 16.5385 37.8939 16.4636C37.9621 16.3712 38.1253 16.3127 38.0771 16.1809C38.0283 16.0464 37.8662 16.1142 37.7554 16.0875C37.7472 16.0854 37.7384 16.0864 37.7297 16.0854C37.505 16.0577 37.4634 15.9802 37.5655 15.7811C37.6533 15.6103 37.7892 15.4805 37.9339 15.3604C37.9909 15.3132 38.0396 15.267 38.0171 15.1905C37.9935 15.1105 37.9165 15.1054 37.8493 15.0992C37.7046 15.0854 37.5599 15.0736 37.4147 15.0669C37.3064 15.0618 37.2407 15.0145 37.2099 14.9094C37.1781 14.7996 37.1879 14.6836 37.2843 14.6333C37.5706 14.4845 37.821 14.2526 38.1525 14.2069C38.9073 14.1028 39.5554 14.2947 40.0408 14.9186C40.2122 15.1392 40.1224 15.4548 39.8458 15.4928C39.5769 15.5297 39.345 15.6539 39.0961 15.7375C39.0392 15.7565 38.9704 15.7704 38.9684 15.8432C38.9658 15.9397 39.051 15.9294 39.1151 15.9479C39.6118 16.0926 40.0392 16.3271 40.2907 16.812C40.3717 16.968 40.4107 17.0968 40.2486 17.2132C40.1932 17.2533 40.1593 17.2989 40.185 17.3631C40.3332 17.7325 40.2912 18.1168 40.2753 18.4991C40.2717 18.5889 40.3076 18.7049 40.1993 18.751C40.0952 18.7952 40.0254 18.7023 39.9618 18.6371C39.7457 18.418 39.4604 18.32 39.1941 18.1892C39.1449 18.1651 39.0715 18.1266 39.0274 18.1825C38.9658 18.261 39.0551 18.3036 39.0966 18.3477C39.3178 18.5827 39.442 18.8737 39.5713 19.161C39.6195 19.2683 39.6523 19.3827 39.462 19.3842C39.3414 19.3852 39.325 19.4653 39.347 19.5618C39.4815 20.1549 39.2537 20.6655 38.9945 21.174C38.9037 21.352 38.8283 21.3105 38.738 21.1945C38.6651 21.1006 38.6097 20.9933 38.5358 20.9C38.484 20.8343 38.4116 20.7912 38.3588 20.9051C38.151 21.3556 37.9565 21.8025 38.1171 22.3239C38.2146 22.641 38.2628 22.974 38.329 23.3003C38.3855 23.58 38.4286 23.6082 38.6785 23.4563C39.1372 23.1772 39.599 22.9006 40.0397 22.5953C40.4887 22.2843 40.8982 21.9272 41.2004 21.4572C41.4159 21.1216 41.4985 20.7342 41.6627 20.3802C41.6858 20.3304 41.6791 20.2498 41.7607 20.254C41.83 20.2581 41.8572 20.3212 41.871 20.3797C41.9044 20.5208 41.9316 20.6634 41.9614 20.8056C41.9803 20.8953 41.9701 21.0062 42.083 21.04C42.1861 21.0708 42.2333 20.9759 42.2897 20.9174C42.7177 20.472 43.0799 19.9784 43.3581 19.4253C43.5084 19.1261 43.6516 18.8234 43.8209 18.4745C43.8809 18.6063 43.9184 18.6818 43.9497 18.7593C43.9743 18.8193 43.9635 18.9142 44.0487 18.9183C44.1313 18.9224 44.1441 18.8295 44.1693 18.7705C44.3545 18.338 44.529 17.9029 44.5269 17.42C44.5254 16.9326 44.5269 16.4451 44.5305 15.9582C44.531 15.8868 44.4997 15.8053 44.5721 15.7396C44.6598 15.7755 44.6886 15.9412 44.8138 15.8714C44.92 15.8119 44.8933 15.6934 44.8851 15.5923C44.8461 15.0864 44.744 14.5953 44.5362 14.1299C44.4346 13.9021 44.2734 13.742 44.0302 13.6543C43.8111 13.5753 43.6028 13.4655 43.3765 13.3634C43.4632 13.2566 43.5612 13.2469 43.651 13.252C43.9574 13.2695 44.2678 13.2623 44.5634 13.3654C44.6444 13.3936 44.744 13.4485 44.7963 13.3644C44.8389 13.2961 44.783 13.2033 44.7327 13.1299C44.5587 12.8759 44.3714 12.6337 44.1672 12.4023C43.6136 11.7748 42.8901 11.4171 42.1384 11.1005C42.0163 11.0492 41.8136 11.0005 41.8331 10.8794C41.8562 10.7357 42.0532 10.8316 42.1712 10.807C42.2477 10.7911 42.3621 10.8209 42.3713 10.6988C42.379 10.5972 42.2785 10.592 42.2107 10.5633C41.3271 10.1887 40.4107 10.123 39.4728 10.2785C39.2239 10.3201 38.9776 10.3781 38.699 10.435C38.7257 10.358 38.7359 10.3185 38.7523 10.2816C38.7842 10.2087 38.9042 10.1482 38.8324 10.063C38.7626 9.97937 38.6507 10.0343 38.5712 10.0748C38.3583 10.182 38.132 10.26 37.9309 10.3934C37.075 10.9615 36.4562 11.7558 35.8502 12.5624C35.5685 12.9375 35.333 13.348 35.0035 13.6856C34.7259 13.9699 34.2929 14.034 34.0271 13.8375C33.2015 13.2274 32.2763 12.8379 31.2727 12.6568C29.8088 12.3931 28.3372 12.3756 26.8727 12.6594C25.8583 12.8559 24.8957 13.1981 24.0224 13.7692C23.4718 14.1294 23.1173 14.0443 22.7124 13.5091C22.0849 12.6789 21.4927 11.8209 20.7508 11.0826C20.3223 10.6567 19.8569 10.2913 19.2848 10.0799C19.2079 10.0512 19.114 10.0035 19.0421 10.0681C18.9508 10.1502 19.0714 10.1959 19.0975 10.258C19.116 10.3031 19.173 10.3473 19.136 10.395C19.0919 10.4519 19.0231 10.4217 18.9698 10.4006C18.7117 10.2996 18.4361 10.2775 18.1673 10.2426C17.3222 10.1323 16.4986 10.2308 15.7059 10.553C15.6463 10.5771 15.5586 10.5843 15.5647 10.6741C15.5719 10.7803 15.6699 10.7634 15.7402 10.785C15.8716 10.8255 16.0363 10.7454 16.1502 10.9019C15.9398 11.0446 15.7141 11.1411 15.4837 11.2273C14.4929 11.5977 13.6991 12.2171 13.1157 13.1017C13.0643 13.1791 12.9848 13.2689 13.0423 13.3572C13.109 13.4598 13.2106 13.3787 13.2963 13.3546C13.6375 13.2587 13.9849 13.2299 14.3374 13.2628C14.3923 13.2679 14.4713 13.2623 14.48 13.3403C14.4867 13.3993 14.4215 13.4157 14.3779 13.4403C14.2291 13.5245 14.0757 13.5973 13.9135 13.6553C13.6483 13.7497 13.4312 13.9047 13.3065 14.1715C13.0967 14.621 13.012 15.0972 12.9925 15.5877C12.9884 15.6924 12.9474 15.8278 13.0797 15.8833C13.2039 15.9356 13.1972 15.756 13.2896 15.737C13.3055 15.7339 13.3224 15.7365 13.3553 15.7365C13.3553 16.2219 13.3594 16.7063 13.3543 17.1912C13.3486 17.7412 13.5118 18.2528 13.6955 18.7603C13.715 18.8147 13.7283 18.8824 13.8068 18.8798C13.8776 18.8778 13.9069 18.8244 13.9279 18.7654C13.9623 18.6715 13.9638 18.5648 14.0439 18.4729C14.2101 18.6181 14.2507 18.8275 14.3302 19.0097C14.6268 19.6859 14.9875 20.3201 15.5042 20.8538C15.576 20.9282 15.6397 21.0642 15.7633 21.0329C15.8972 20.999 15.8557 20.8481 15.8844 20.7465C15.9029 20.6809 15.909 20.6106 15.9342 20.548C15.9804 20.4325 15.9845 20.2273 16.0938 20.2273C16.2251 20.2273 16.2436 20.4228 16.2831 20.5485C16.4247 20.9985 16.6069 21.4259 16.9204 21.7892C17.5577 22.5281 18.4023 22.9822 19.2186 23.4763C19.4059 23.5897 19.4639 23.4876 19.4978 23.3311C19.5665 23.014 19.606 22.6882 19.704 22.3808C19.8728 21.8528 19.7215 21.3684 19.5593 20.88C19.5434 20.8322 19.5178 20.7737 19.4572 20.7861C19.4239 20.7927 19.3921 20.8363 19.372 20.8707C19.2935 21.0026 19.2202 21.1375 19.1447 21.2715C19.095 21.3597 19.0396 21.3484 18.9898 21.2756C18.6383 20.7655 18.4495 20.2134 18.5649 19.5864C18.589 19.455 18.6675 19.317 18.4254 19.3016C18.3104 19.2944 18.3294 19.1687 18.3643 19.0928C18.4243 18.9624 18.4638 18.8244 18.5577 18.7059C18.7014 18.5248 18.821 18.3246 18.9698 18.1045C18.5172 18.1517 18.2104 18.3929 17.9071 18.6417C17.8394 18.6972 17.8014 18.8177 17.6813 18.751C17.5869 18.6992 17.57 18.6017 17.5762 18.5053C17.6033 18.0809 17.6028 17.6514 17.7819 17.2522C17.8096 17.1902 17.8625 17.1306 17.7388 17.106C17.4864 17.0562 17.5597 16.9105 17.648 16.7663C17.8794 16.3892 18.2299 16.1768 18.6409 16.0444C18.7727 16.0033 18.919 16.031 19.0539 15.9346ZM50.0706 28.9569C50.0968 27.2764 49.8731 25.7037 49.4975 24.1567C49.1198 22.602 48.5626 21.1067 47.816 19.6875C47.1751 18.4699 46.447 17.3082 45.5629 16.2491C45.5208 16.1988 45.4967 16.1193 45.4069 16.1455C45.3258 16.1691 45.3171 16.2414 45.311 16.3102C45.253 16.9603 45.0913 17.5873 44.8943 18.2066C44.7127 18.7788 44.4848 19.3288 44.119 19.8117C44.0261 19.9343 43.922 20.0374 43.7557 19.9199C43.6521 19.8465 43.629 19.9358 43.5859 19.9979C43.4109 20.2509 43.2411 20.5074 43.0548 20.7517C42.7798 21.1129 42.4776 21.4485 42.084 21.6881C42.0039 21.7368 41.9106 21.8056 41.8259 21.7292C41.6694 21.588 41.6032 21.7066 41.5288 21.8128C41.2866 22.1581 40.9818 22.4408 40.6622 22.7133C40.0726 23.2156 39.3907 23.5723 38.7323 23.9653C38.583 24.0546 38.5358 24.1577 38.5563 24.3214C38.5933 24.618 38.6251 24.9156 38.6477 25.2142C38.7262 26.2564 38.5071 27.2328 37.9904 28.1415C37.6507 28.7388 37.2156 29.2581 36.704 29.7147C36.5649 29.8389 36.471 29.961 36.6527 30.1304C37.2792 30.7133 37.8021 31.3824 38.2582 32.1043C38.3357 32.2269 38.4332 32.306 38.5676 32.3562C39.207 32.5964 39.8437 32.8437 40.4826 33.0833C42.0332 33.6652 43.5792 34.2604 45.1391 34.8182C45.9051 35.0922 46.5717 35.4575 46.9355 36.2246C47.1951 36.7721 47.444 37.3242 47.699 37.8738C47.7293 37.9394 47.7211 38.0477 47.817 38.0518C47.9124 38.0559 47.954 37.9682 47.994 37.8892C48.2521 37.3822 48.4635 36.8557 48.679 36.3298C49.1044 35.2913 49.4169 34.2189 49.6468 33.1244C49.9403 31.7256 50.1163 30.311 50.0706 28.9569ZM7.91833 29.0744C7.93885 30.3813 8.07329 31.7308 8.3437 33.0654C8.6762 34.7053 9.21599 36.2764 9.94 37.7845C9.97232 37.8522 9.98002 37.9441 10.0791 37.9461C10.1878 37.9487 10.2089 37.8532 10.2443 37.7768C10.4608 37.3129 10.683 36.8516 10.8939 36.3852C11.1838 35.7449 11.6158 35.2497 12.2885 34.9972C13.2639 34.6314 14.2409 34.2702 15.2163 33.9048C16.5746 33.3963 17.9328 32.8863 19.2905 32.3768C19.4285 32.325 19.5506 32.2552 19.6337 32.1248C20.0191 31.5188 20.4593 30.9549 20.9478 30.429C21.3891 29.9538 21.3865 29.961 20.9211 29.4962C20.0417 28.6177 19.428 27.5981 19.2458 26.3441C19.1509 25.6924 19.2022 25.0485 19.292 24.4045C19.3212 24.1936 19.2925 24.0469 19.0791 23.9458C18.8641 23.8442 18.6675 23.7036 18.4628 23.5815C17.6895 23.1202 16.9512 22.6148 16.3965 21.8887C16.2877 21.7466 16.2123 21.586 16.0045 21.7615C15.947 21.8097 15.8788 21.764 15.8162 21.7292C15.673 21.6491 15.5514 21.5439 15.4313 21.4336C14.9926 21.0313 14.6452 20.5582 14.3358 20.0533C14.2912 19.9799 14.2363 19.826 14.1444 19.9009C13.8612 20.1313 13.7771 19.8676 13.6811 19.7208C13.0572 18.7664 12.7693 17.6894 12.563 16.5842C12.5487 16.5062 12.5907 16.3928 12.4779 16.3692C12.3973 16.3522 12.3465 16.4313 12.2993 16.4933C12.0951 16.7648 11.8832 17.0306 11.6856 17.3066C10.5922 18.8372 9.74193 20.4972 9.10516 22.2633C8.31856 24.444 7.94706 26.7028 7.91833 29.0744ZM37.2048 10.2801C37.1807 10.1661 37.0909 10.1451 37.0155 10.1112C36.6183 9.93267 36.2114 9.78131 35.7989 9.64071C34.043 9.04242 32.2399 8.67709 30.3896 8.56317C28.3757 8.43951 26.3786 8.57292 24.4042 9.01369C23.1937 9.28359 22.0079 9.62429 20.8693 10.121C20.5938 10.2411 20.585 10.279 20.8057 10.475C21.0612 10.7023 21.2978 10.9481 21.5271 11.2016C22.0895 11.823 22.5477 12.527 23.0896 13.1643C23.3595 13.4814 23.4364 13.4988 23.7699 13.2751C24.4868 12.7943 25.2749 12.4752 26.1056 12.2643C27.4674 11.9189 28.8482 11.823 30.2501 11.9569C31.1234 12.0405 31.971 12.2119 32.7915 12.5188C33.282 12.7019 33.7326 12.96 34.1656 13.251C34.4678 13.4537 34.5859 13.4388 34.8168 13.1637C34.9102 13.0529 35.003 12.9405 35.0861 12.8225C35.6921 11.9641 36.3156 11.1205 37.1042 10.415C37.1468 10.377 37.1745 10.3221 37.2048 10.2801ZM28.9385 49.8211C29.2685 49.8293 29.5948 49.8822 29.7872 49.4824C30.2044 48.6173 30.6559 47.7692 31.0905 46.9128C31.2614 46.5756 31.3568 46.2339 31.1485 45.8706C31.0905 45.7696 31.0649 45.6495 31.0269 45.5371C30.5887 44.2543 30.1485 42.9726 29.7174 41.6877C29.6666 41.5364 29.584 41.4958 29.4511 41.5374C29.0976 41.6482 28.7492 41.6554 28.3957 41.5323C28.2915 41.4958 28.1827 41.4943 28.1329 41.6482C27.9308 42.2727 27.7245 42.8961 27.5085 43.516C27.253 44.2487 26.9918 44.9788 26.7214 45.7059C26.5787 46.0903 26.4853 46.4587 26.7445 46.8363C26.8486 46.9882 26.9117 47.1673 26.9985 47.3315C27.4007 48.0934 27.784 48.8662 28.2345 49.602C28.33 49.758 28.4475 49.8365 28.6312 49.8221C28.7328 49.8149 28.8359 49.8211 28.9385 49.8211ZM22.3779 30.7071C22.2357 30.7266 22.2691 30.8241 22.2758 30.9062C22.3081 31.2895 22.3353 31.6733 22.3768 32.0551C22.4092 32.3516 22.4271 32.6564 22.5087 32.9407C22.9674 34.5308 23.4421 36.1169 23.9152 37.7029C24.0414 38.1267 24.1815 38.5465 24.3185 38.9672C24.3421 39.0396 24.3713 39.1222 24.4534 39.1427C24.5145 39.1576 24.5324 39.0914 24.5545 39.0462C25.0024 38.1298 25.5674 37.2903 26.2231 36.5109C26.6747 35.9742 27.1524 35.4801 27.9246 35.4637C27.9847 35.4626 28.0606 35.4596 28.0688 35.3882C28.0729 35.3518 28.0237 35.302 27.9877 35.2692C27.9123 35.1999 27.8323 35.1358 27.7507 35.0737C26.8799 34.4133 26.023 33.736 25.1892 33.0289C24.3231 32.2947 23.4518 31.5666 22.5805 30.8379C22.5179 30.7851 22.4666 30.705 22.3779 30.7071ZM35.5849 30.92C35.5982 30.8569 35.6249 30.7784 35.549 30.7389C35.4674 30.6963 35.4022 30.7476 35.3417 30.7979C35.0461 31.0437 34.7501 31.2885 34.4555 31.5353C33.5078 32.3306 32.555 33.1198 31.617 33.9259C31.0987 34.3718 30.5497 34.7776 30.0212 35.2097C29.9622 35.2579 29.8806 35.3097 29.8955 35.3893C29.9135 35.4837 30.015 35.4662 30.0884 35.4703C30.5112 35.495 30.855 35.6889 31.1557 35.9701C31.7263 36.5043 32.186 37.1303 32.6242 37.7717C32.8741 38.1375 33.1107 38.5136 33.3046 38.9144C33.339 38.9852 33.3811 39.0621 33.4652 39.0632C33.5658 39.0647 33.5627 38.9636 33.5889 38.8954C33.8362 38.2488 34.0466 37.59 34.2395 36.9255C34.4776 36.1056 34.6751 35.2738 34.9296 34.4595C35.2904 33.3045 35.5459 32.1341 35.5849 30.92ZM42.3318 42.8884C42.3328 42.3897 42.1409 42.0177 41.7602 41.9392C41.1845 41.8201 40.9202 41.4476 40.7699 40.9268C40.5631 40.212 39.9792 40.0083 39.3578 40.427C38.9232 40.72 38.5604 41.0961 38.21 41.4799C37.3064 42.4692 36.4531 43.5016 35.6182 44.5499C35.4145 44.8054 35.4274 44.8834 35.7491 44.9506C36.7276 45.1559 37.7138 45.1738 38.7046 45.0553C38.8483 45.0379 38.9309 44.9645 38.9679 44.8193C39.051 44.4888 39.1341 44.1568 39.2398 43.8331C39.3665 43.4446 39.4399 43.0372 39.6313 42.6709C39.6872 42.5631 39.7555 42.4502 39.8986 42.4738C40.0305 42.4954 40.1013 42.6077 40.1285 42.7242C40.1814 42.9505 40.1819 43.1809 40.1121 43.4072C40.0839 43.499 40.0202 43.558 39.9274 43.5596C39.8011 43.5616 39.7437 43.6278 39.7129 43.7381C39.6262 44.0491 39.5287 44.3569 39.4527 44.6705C39.4014 44.8824 39.4799 44.9516 39.696 44.9188C40.2101 44.8403 40.7181 44.731 41.2271 44.6217C41.5719 44.5478 41.8444 44.4606 41.9572 44.0696C42.0712 43.673 42.3349 43.3241 42.3318 42.8884ZM23.3636 37.5269C23.4 38.2345 23.6032 38.8841 23.8053 39.5306C24.1409 40.6051 24.4965 41.6729 24.9121 42.7201C25.2893 43.6709 25.6803 44.6161 26.0918 45.5525C26.1267 45.6315 26.1641 45.7198 26.2673 45.7146C26.3555 45.71 26.3519 45.6202 26.373 45.5587C26.8117 44.2938 27.2365 43.0234 27.6963 41.7662C27.8225 41.4214 27.804 41.152 27.6342 40.8278C27.1195 39.8462 26.5998 38.8677 26.0482 37.9066C25.9199 37.6829 25.8583 37.6747 25.7116 37.885C25.5658 38.0944 25.4314 38.313 25.3067 38.5362C25.1241 38.8636 24.9583 39.2007 24.7777 39.5296C24.6859 39.6974 24.5283 39.7497 24.3426 39.7379C24.1573 39.7261 24.1168 39.5747 24.0599 39.4459C23.9983 39.3064 23.9536 39.1591 23.9018 39.0154C23.7238 38.5213 23.5452 38.0282 23.3636 37.5269ZM34.5156 37.571C34.3878 37.9122 34.2585 38.253 34.1338 38.5952C34.0286 38.8836 33.9337 39.176 33.8259 39.4634C33.7746 39.6004 33.7059 39.7333 33.5304 39.7451C33.3595 39.7569 33.2353 39.6774 33.145 39.5388C33.1081 39.4819 33.0758 39.4213 33.0445 39.3613C32.8038 38.9005 32.556 38.4438 32.2748 38.0061C32.0639 37.6788 31.9905 37.6777 31.7925 38.0046C31.7791 38.0267 31.7699 38.0508 31.7571 38.0729C31.187 39.0344 30.7103 40.0468 30.1633 41.0207C30.051 41.2208 30.0428 41.3999 30.1136 41.6056C30.3188 42.2024 30.5153 42.8017 30.7201 43.399C30.9684 44.125 31.2209 44.8501 31.4733 45.5751C31.4949 45.6367 31.501 45.728 31.5867 45.7249C31.6698 45.7218 31.7114 45.6449 31.7427 45.5725C31.8407 45.3457 31.9377 45.1189 32.0367 44.8926C32.6889 43.4087 33.2831 41.9017 33.8064 40.3685C34.1159 39.4577 34.4176 38.5408 34.5156 37.571ZM28.9185 41.209C29.368 41.1859 29.7334 41.0289 29.9514 40.5912C30.3891 39.7133 30.834 38.8384 31.3261 37.9887C31.7971 37.1754 31.8238 37.4037 31.2096 36.6218C31.0254 36.3873 30.8278 36.2775 30.5323 36.4165C30.4358 36.4617 30.3157 36.4627 30.2054 36.473C29.3531 36.553 28.4747 36.6715 27.6547 36.4529C26.9451 36.2641 26.6598 36.6248 26.334 37.0702C26.314 37.0979 26.2955 37.1267 26.2745 37.1539C26.1888 37.2626 26.1949 37.3735 26.2668 37.4853C26.9051 38.4859 27.4387 39.5439 27.9693 40.603C28.1719 41.0089 28.4598 41.2254 28.9185 41.209ZM28.7441 36.0291C28.448 35.8049 28.1555 35.9783 27.86 36.0389C28.1535 36.0815 28.4465 36.1081 28.7441 36.0291ZM30.0043 36.0363C29.7482 35.9429 29.5486 35.8582 29.3244 35.9003C29.2567 35.9132 29.1869 35.9563 29.1915 36.0317C29.1961 36.1056 29.2772 36.104 29.3321 36.1025C29.5379 36.0953 29.7467 36.1071 30.0043 36.0363Z" fill="#201011"/>
<path d="M19.0539 15.9346C18.9189 16.0311 18.7727 16.0034 18.6434 16.0449C18.2329 16.1773 17.8824 16.3903 17.6505 16.7669C17.5623 16.9111 17.4889 17.0568 17.7413 17.1066C17.865 17.1307 17.8127 17.1902 17.7844 17.2528C17.6054 17.6525 17.6059 18.0815 17.5787 18.5058C17.5725 18.6023 17.5895 18.6998 17.6839 18.7516C17.8044 18.8183 17.8424 18.6977 17.9096 18.6423C18.2129 18.394 18.5197 18.1523 18.9723 18.1051C18.823 18.3257 18.7034 18.5258 18.5603 18.7064C18.4664 18.825 18.4263 18.963 18.3668 19.0933C18.3319 19.1693 18.3135 19.295 18.4279 19.3022C18.6701 19.3176 18.5916 19.4556 18.5674 19.5869C18.452 20.2145 18.6413 20.7661 18.9923 21.2761C19.0426 21.349 19.098 21.3603 19.1473 21.272C19.2222 21.1381 19.2961 21.0031 19.3746 20.8713C19.3951 20.8369 19.4269 20.7933 19.4598 20.7866C19.5203 20.7743 19.546 20.8328 19.5619 20.8805C19.7245 21.369 19.8754 21.8534 19.7066 22.3814C19.6086 22.6887 19.569 23.0145 19.5003 23.3317C19.4664 23.4882 19.4084 23.5903 19.2212 23.4769C18.4048 22.9832 17.5602 22.5291 16.9229 21.7897C16.6094 21.4259 16.4273 20.999 16.2856 20.549C16.2461 20.4233 16.2276 20.2283 16.0963 20.2278C15.987 20.2278 15.9829 20.4331 15.9367 20.5485C15.9116 20.6111 15.9054 20.6814 15.8869 20.7471C15.8582 20.8487 15.9003 20.9995 15.7658 21.0334C15.6422 21.0647 15.5786 20.9282 15.5067 20.8543C14.99 20.3207 14.6288 19.6865 14.3327 19.0102C14.2532 18.8281 14.2127 18.6187 14.0464 18.4735C13.9664 18.5653 13.9643 18.6721 13.9304 18.766C13.9094 18.8245 13.8796 18.8778 13.8093 18.8804C13.7308 18.883 13.7175 18.8152 13.698 18.7608C13.5143 18.2534 13.3511 17.7418 13.3568 17.1917C13.3619 16.7074 13.3578 16.2225 13.3578 15.7371C13.3245 15.7371 13.3075 15.7345 13.2921 15.7376C13.1998 15.756 13.2064 15.9356 13.0823 15.8838C12.9499 15.8284 12.9909 15.6924 12.995 15.5883C13.014 15.0982 13.0992 14.6215 13.3091 14.1721C13.4337 13.9052 13.6508 13.7503 13.9161 13.6559C14.0782 13.5984 14.2311 13.525 14.3804 13.4409C14.4241 13.4162 14.4887 13.3998 14.4825 13.3408C14.4738 13.2628 14.3948 13.268 14.3399 13.2633C13.9879 13.2305 13.64 13.2597 13.2988 13.3552C13.2131 13.3793 13.1115 13.4604 13.0448 13.3577C12.9873 13.2695 13.0669 13.1797 13.1182 13.1022C13.7021 12.2176 14.4954 11.5983 15.4862 11.2278C15.7166 11.1416 15.9418 11.0451 16.1527 10.9025C16.0383 10.746 15.8741 10.826 15.7428 10.7855C15.6725 10.764 15.5745 10.7809 15.5673 10.6747C15.5616 10.5844 15.6494 10.5777 15.7084 10.5536C16.5011 10.2319 17.3247 10.1333 18.1698 10.2431C18.4392 10.278 18.7142 10.3001 18.9723 10.4012C19.0257 10.4222 19.0944 10.4525 19.1385 10.3955C19.1755 10.3473 19.1185 10.3032 19.1001 10.2585C19.0739 10.1965 18.9538 10.1508 19.0446 10.0687C19.1165 10.004 19.2104 10.0523 19.2873 10.0805C19.8595 10.2919 20.3249 10.6572 20.7533 11.0831C21.4958 11.8215 22.0879 12.6799 22.7149 13.5096C23.1198 14.0453 23.4743 14.13 24.0249 13.7698C24.8982 13.1982 25.8608 12.8564 26.8753 12.6599C28.3397 12.3762 29.8113 12.3936 31.2752 12.6573C32.2789 12.838 33.204 13.2274 34.0296 13.838C34.2954 14.0345 34.7285 13.9704 35.0061 13.6861C35.3355 13.348 35.571 12.9375 35.8527 12.5629C36.4587 11.7563 37.0775 10.9625 37.9334 10.394C38.1345 10.2606 38.3608 10.1826 38.5737 10.0754C38.6538 10.0348 38.7651 9.97992 38.8349 10.0636C38.9068 10.1492 38.7867 10.2093 38.7549 10.2821C38.7385 10.3191 38.7282 10.3586 38.7015 10.4356C38.9801 10.3786 39.2259 10.3201 39.4753 10.2791C40.4133 10.1236 41.3297 10.1893 42.2133 10.5638C42.281 10.5926 42.3816 10.5972 42.3739 10.6993C42.3646 10.8214 42.2502 10.7917 42.1737 10.8076C42.0557 10.8322 41.8587 10.7357 41.8356 10.8799C41.8161 11.001 42.0183 11.0493 42.1409 11.1011C42.8926 11.4177 43.6166 11.7753 44.1698 12.4028C44.3735 12.6343 44.5613 12.8764 44.7352 13.1304C44.7855 13.2038 44.8414 13.2967 44.7988 13.3649C44.7465 13.4491 44.6464 13.3942 44.5659 13.366C44.2703 13.2628 43.9599 13.2695 43.6536 13.2526C43.5638 13.2474 43.4653 13.2572 43.379 13.3639C43.6053 13.466 43.8137 13.5758 44.0328 13.6548C44.2755 13.7426 44.4366 13.9027 44.5387 14.1305C44.7465 14.5959 44.8486 15.0869 44.8876 15.5929C44.8953 15.694 44.9225 15.8125 44.8163 15.872C44.6911 15.9418 44.6623 15.7766 44.5746 15.7401C44.5023 15.8053 44.5336 15.8869 44.533 15.9587C44.5294 16.4462 44.5274 16.9336 44.5294 17.4206C44.531 17.9034 44.3565 18.3385 44.1718 18.7711C44.1467 18.8306 44.1338 18.9235 44.0512 18.9189C43.9666 18.9148 43.9768 18.8198 43.9522 18.7598C43.9204 18.6823 43.8834 18.6069 43.8234 18.475C43.6541 18.8239 43.5109 19.1267 43.3606 19.4258C43.083 19.979 42.7207 20.4726 42.2923 20.918C42.2358 20.9765 42.1891 21.0719 42.0855 21.0406C41.9731 21.0067 41.9829 20.8959 41.9639 20.8061C41.9341 20.664 41.9069 20.5213 41.8736 20.3802C41.8597 20.3217 41.8325 20.2586 41.7633 20.2545C41.6822 20.2499 41.6883 20.331 41.6652 20.3807C41.5011 20.7353 41.4184 21.1222 41.2029 21.4578C40.9012 21.9278 40.4912 22.2849 40.0423 22.5958C39.6015 22.9017 39.1397 23.1777 38.681 23.4568C38.4306 23.6092 38.388 23.581 38.3316 23.3009C38.2659 22.974 38.2176 22.6415 38.1196 22.3244C37.959 21.8031 38.153 21.3562 38.3613 20.9056C38.4136 20.7917 38.486 20.8348 38.5383 20.9005C38.6122 20.9934 38.6676 21.1011 38.7405 21.195C38.8303 21.311 38.9062 21.3531 38.9971 21.1745C39.2562 20.666 39.484 20.1555 39.3496 19.5623C39.3275 19.4659 39.3439 19.3858 39.4645 19.3848C39.6549 19.3827 39.622 19.2688 39.5738 19.1616C39.4445 18.8742 39.3203 18.5833 39.0992 18.3483C39.0576 18.3042 38.9683 18.2616 39.0299 18.1831C39.074 18.1266 39.1474 18.1656 39.1967 18.1897C39.463 18.3206 39.7483 18.4191 39.9643 18.6377C40.0284 18.7023 40.0977 18.7957 40.2018 18.7516C40.3096 18.7059 40.2737 18.59 40.2778 18.4997C40.2937 18.1174 40.3358 17.7331 40.1875 17.3636C40.1618 17.299 40.1957 17.2533 40.2511 17.2138C40.4133 17.0973 40.3743 16.9685 40.2932 16.8125C40.0412 16.3276 39.6138 16.0932 39.1176 15.9485C39.0535 15.93 38.9683 15.9402 38.9709 15.8438C38.9724 15.7709 39.0417 15.7571 39.0987 15.7381C39.3475 15.6544 39.5794 15.5303 39.8483 15.4933C40.1254 15.4554 40.2147 15.1398 40.0433 14.9192C39.5579 14.2947 38.9098 14.1033 38.155 14.2075C37.8236 14.2531 37.5732 14.4851 37.2868 14.6339C37.1899 14.6841 37.1806 14.8001 37.2125 14.9099C37.2427 15.0151 37.3089 15.0623 37.4172 15.0674C37.5624 15.0741 37.7071 15.0859 37.8518 15.0998C37.919 15.1064 37.996 15.1111 38.0196 15.1911C38.0422 15.2676 37.9934 15.3137 37.9365 15.3609C37.7918 15.481 37.6558 15.6103 37.568 15.7817C37.4659 15.9808 37.5075 16.0583 37.7322 16.086C37.741 16.087 37.7497 16.086 37.7579 16.088C37.8687 16.1152 38.0309 16.047 38.0796 16.1814C38.1273 16.3133 37.9642 16.3718 37.8964 16.4641C37.841 16.5391 37.7794 16.6093 37.7245 16.6848C37.5737 16.8931 37.6014 16.9655 37.8544 17.0209C37.9205 17.0352 38.0016 17.0322 38.0206 17.1132C38.0411 17.203 37.9703 17.2466 37.9067 17.2938C37.7769 17.3903 37.6589 17.5001 37.5552 17.6269C37.4372 17.771 37.449 17.8711 37.6301 17.9347C37.6999 17.9593 37.7948 17.9537 37.802 18.0568C37.8087 18.1528 37.7163 18.1733 37.6583 18.2195C37.3418 18.4699 37.0082 18.7141 36.9867 19.1662C36.9739 19.4392 37.0134 19.7127 37.0796 19.9785C37.4685 21.545 37.82 23.1203 38.0345 24.7201C38.2648 26.4391 37.7594 27.9204 36.5105 29.1447C35.3288 30.3028 33.9362 31.0904 32.3692 31.5984C31.2742 31.9535 30.1669 32.2147 29.0083 32.1993C28.0329 32.1864 27.0836 32.0387 26.14 31.7698C25.2307 31.5107 24.3641 31.1736 23.54 30.72C22.3527 30.0663 21.2962 29.2591 20.5296 28.1175C20.0134 27.3483 19.7999 26.4899 19.7789 25.5745C19.7635 24.9038 19.8938 24.2491 19.997 23.5913C20.1684 22.503 20.4444 21.4367 20.6825 20.3623C20.7451 20.0795 20.8344 19.803 20.8836 19.5156C20.9673 19.0251 20.7923 18.6274 20.3633 18.3647C20.3064 18.3298 20.2541 18.2877 20.2022 18.2457C20.035 18.1097 20.0462 18.0332 20.2438 17.9399C20.4798 17.8285 20.4957 17.7331 20.2966 17.5525C20.1832 17.4493 20.0529 17.3647 19.9385 17.2631C19.8333 17.1692 19.8102 17.085 19.9831 17.0291C20.3572 16.9085 20.3603 16.8993 20.1365 16.5709C20.0796 16.4872 19.9975 16.421 19.9323 16.3425C19.8266 16.2158 19.8354 16.1347 20.0206 16.1039C20.1458 16.0829 20.3202 16.1753 20.388 16.008C20.4624 15.8243 20.2941 15.7135 20.2007 15.5888C20.1345 15.501 20.0478 15.4282 19.9682 15.3512C19.8543 15.2409 19.8954 15.1649 20.0283 15.1372C20.1694 15.108 20.3166 15.1064 20.4603 15.088C20.5481 15.0767 20.6661 15.1075 20.6953 14.9838C20.7235 14.8643 20.7087 14.7493 20.6081 14.6544C19.9503 14.0356 18.8435 14.0304 18.1713 14.6467C18.1082 14.7047 18.0487 14.7662 17.9897 14.8278C17.6828 15.1475 17.747 15.3671 18.1867 15.5041C18.7547 15.6816 18.8604 15.7329 19.0539 15.9346ZM26.4545 25.4231C26.4663 25.4231 26.4781 25.4231 26.4899 25.4231C26.4899 26.2179 26.4791 27.0132 26.4935 27.8075C26.5043 28.4079 26.5859 28.9933 26.8691 29.5439C27.1913 30.1699 28.118 30.7631 28.8626 30.4665C28.9642 30.426 29.0606 30.4485 29.1607 30.487C29.4372 30.5932 29.7138 30.5619 29.9868 30.4696C30.6738 30.2376 31.0305 29.7153 31.2378 29.0549C31.4307 28.4407 31.4153 27.8034 31.4327 27.1754C31.4728 25.7664 31.4615 24.3563 31.4912 22.9473C31.5061 22.248 31.1793 21.7795 30.5599 21.5352C29.5527 21.1381 28.5136 21.1458 27.4997 21.4906C26.7578 21.7431 26.4571 22.25 26.455 23.0387C26.453 23.834 26.4545 24.6283 26.4545 25.4231ZM24.1065 21.897C23.3692 21.897 22.8781 22.3675 22.8771 23.0746C22.8761 23.6934 23.4297 24.1875 24.126 24.1885C24.7689 24.1896 25.3144 23.658 25.3169 23.0284C25.319 22.4121 24.7679 21.897 24.1065 21.897ZM33.8705 21.8985C33.1804 21.8831 32.6693 22.3614 32.6534 23.0376C32.6391 23.6493 33.1671 24.1485 33.8259 24.1814C34.554 24.2173 35.0507 23.6072 35.0646 23.111C35.0846 22.4121 34.5951 21.9144 33.8705 21.8985Z" fill="#B3BFB6"/>
<path d="M28.9383 49.8209C28.8357 49.8209 28.7326 49.8143 28.631 49.8225C28.4473 49.8368 28.3298 49.7583 28.2344 49.6023C27.7838 48.866 27.4005 48.0938 26.9983 47.3318C26.9115 47.1676 26.8484 46.988 26.7443 46.8367C26.4851 46.4595 26.5785 46.0906 26.7212 45.7063C26.9916 44.9792 27.2528 44.2485 27.5083 43.5163C27.7243 42.8965 27.9306 42.273 28.1328 41.6486C28.1825 41.4946 28.2908 41.4962 28.3955 41.5326C28.749 41.6558 29.0974 41.6486 29.4509 41.5377C29.5838 41.4962 29.6665 41.5367 29.7172 41.6881C30.1488 42.9729 30.589 44.2547 31.0267 45.5375C31.0652 45.6498 31.0903 45.7699 31.1483 45.871C31.3566 46.2343 31.2612 46.576 31.0903 46.9131C30.6557 47.7695 30.2042 48.6182 29.787 49.4828C29.5946 49.882 29.2683 49.8291 28.9383 49.8209Z" fill="#F6BD41"/>
<path d="M22.3778 30.707C22.467 30.705 22.5178 30.7855 22.5804 30.8379C23.4517 31.566 24.323 32.2946 25.1891 33.0288C26.0229 33.7359 26.8798 34.4132 27.7506 35.0736C27.8322 35.1357 27.9122 35.1998 27.9876 35.2691C28.023 35.3019 28.0728 35.3517 28.0687 35.3881C28.0605 35.4595 27.9845 35.4625 27.9245 35.4636C27.1523 35.48 26.6746 35.9741 26.223 36.5108C25.5673 37.2903 25.0023 38.1297 24.5544 39.0461C24.5323 39.0913 24.5138 39.1575 24.4533 39.1426C24.3707 39.1221 24.3414 39.0395 24.3184 38.9671C24.1814 38.5464 24.0418 38.1266 23.915 37.7028C23.442 36.1168 22.9673 34.5307 22.5086 32.9406C22.4265 32.6563 22.4091 32.3521 22.3767 32.055C22.3352 31.6727 22.3075 31.2889 22.2756 30.9061C22.2685 30.824 22.2356 30.7265 22.3778 30.707Z" fill="#E3E3E3"/>
<path d="M35.5847 30.9199C35.5457 32.134 35.2902 33.3044 34.929 34.4594C34.6744 35.2737 34.4769 36.106 34.2388 36.9254C34.0459 37.5894 33.836 38.2487 33.5882 38.8953C33.562 38.9635 33.5656 39.0646 33.4645 39.063C33.3804 39.062 33.3383 38.9845 33.3039 38.9142C33.11 38.514 32.8734 38.1379 32.6235 37.7715C32.1853 37.1301 31.7256 36.5042 31.155 35.97C30.8543 35.6888 30.5105 35.4949 30.0877 35.4702C30.0144 35.4661 29.9128 35.4836 29.8948 35.3892C29.8799 35.3096 29.961 35.2578 30.0205 35.2096C30.5495 34.7775 31.098 34.3716 31.6163 33.9258C32.5543 33.1191 33.5076 32.3305 34.4548 31.5352C34.7494 31.2878 35.0454 31.0431 35.341 30.7978C35.4015 30.7475 35.4667 30.6962 35.5483 30.7388C35.6247 30.7783 35.5981 30.8568 35.5847 30.9199Z" fill="#E3E3E3"/>
<path d="M42.3316 42.8883C42.3347 43.3234 42.071 43.6729 41.9565 44.069C41.8437 44.4595 41.5712 44.5467 41.2264 44.6211C40.7179 44.7304 40.2099 44.8392 39.6952 44.9182C39.4792 44.951 39.4007 44.8817 39.452 44.6698C39.528 44.3563 39.6255 44.0484 39.7122 43.7375C39.743 43.6277 39.8009 43.561 39.9267 43.5589C40.0195 43.5574 40.0832 43.4984 40.1114 43.4065C40.1812 43.1803 40.1807 42.9499 40.1278 42.7236C40.1006 42.6071 40.0293 42.4942 39.8979 42.4732C39.7548 42.4501 39.6865 42.563 39.6306 42.6702C39.4392 43.0366 39.3663 43.444 39.2391 43.8324C39.1334 44.1562 39.0503 44.4877 38.9671 44.8186C38.9302 44.9644 38.8476 45.0377 38.7039 45.0547C37.7131 45.1732 36.7269 45.1552 35.7484 44.95C35.4267 44.8828 35.4143 44.8048 35.6175 44.5492C36.4524 43.501 37.3057 42.4686 38.2093 41.4793C38.5597 41.0955 38.923 40.7194 39.3571 40.4264C39.978 40.0077 40.5619 40.2114 40.7692 40.9262C40.92 41.447 41.1838 41.8195 41.7595 41.9385C42.1407 42.0175 42.3326 42.3896 42.3316 42.8883Z" fill="#F6BD41"/>
<path d="M23.3634 37.5267C23.545 38.0275 23.7236 38.5211 23.9022 39.0148C23.954 39.1584 23.9986 39.3057 24.0602 39.4453C24.1172 39.5741 24.1577 39.7254 24.3429 39.7372C24.5287 39.749 24.6857 39.6967 24.7781 39.5289C24.9587 39.2 25.1244 38.8634 25.3071 38.5355C25.4318 38.3123 25.5662 38.0942 25.7119 37.8844C25.8587 37.6735 25.9202 37.6822 26.0485 37.9059C26.6001 38.867 27.1199 39.8455 27.6346 40.8271C27.8044 41.1514 27.8229 41.4208 27.6966 41.7656C27.2364 43.0227 26.812 44.2926 26.3733 45.558C26.3523 45.6196 26.3554 45.7094 26.2676 45.714C26.1645 45.7191 26.127 45.6308 26.0921 45.5518C25.6806 44.6154 25.2896 43.6702 24.9125 42.7194C24.4969 41.6722 24.1413 40.6044 23.8057 39.5299C23.6035 38.8839 23.3998 38.2343 23.3634 37.5267Z" fill="#E3E3E3"/>
<path d="M34.5154 37.5709C34.4169 38.5406 34.1157 39.4576 33.8048 40.3684C33.2819 41.9021 32.6872 43.4086 32.035 44.8925C31.9355 45.1188 31.839 45.3456 31.741 45.5724C31.7097 45.6452 31.6682 45.7217 31.585 45.7248C31.4988 45.7278 31.4927 45.6365 31.4716 45.5749C31.2197 44.8499 30.9672 44.1249 30.7184 43.3988C30.5142 42.8015 30.3171 42.2022 30.1119 41.6055C30.0411 41.3997 30.0493 41.2206 30.1617 41.0205C30.7091 40.0466 31.1853 39.0348 31.7554 38.0727C31.7682 38.0506 31.7775 38.0265 31.7908 38.0044C31.9889 37.6776 32.0627 37.6786 32.2731 38.006C32.5543 38.4437 32.8021 38.9003 33.0428 39.3611C33.0741 39.4217 33.1064 39.4817 33.1434 39.5387C33.2337 39.6772 33.3578 39.7567 33.5287 39.7449C33.7042 39.7331 33.7729 39.6002 33.8243 39.4632C33.932 39.1759 34.0275 38.8834 34.1321 38.595C34.2584 38.2528 34.3882 37.9121 34.5154 37.5709Z" fill="#E3E3E3"/>
<path d="M28.9184 41.2089C28.4602 41.2253 28.1718 41.0093 27.9686 40.6034C27.4386 39.5443 26.9049 38.4858 26.2661 37.4857C26.1948 37.3739 26.1881 37.263 26.2738 37.1542C26.2948 37.1276 26.3133 37.0983 26.3333 37.0706C26.6591 36.6252 26.9444 36.264 27.6541 36.4533C28.474 36.6714 29.3525 36.5534 30.2048 36.4733C30.3151 36.4631 30.4351 36.4621 30.5316 36.4169C30.8272 36.2778 31.0247 36.3877 31.2089 36.6221C31.8231 37.4046 31.7964 37.1758 31.3254 37.9891C30.8333 38.8388 30.3884 39.7131 29.9508 40.5916C29.7332 41.0288 29.3679 41.1853 28.9184 41.2089Z" fill="#F6BD41"/>
<path d="M28.744 36.029C28.4464 36.108 28.1534 36.0813 27.8599 36.0387C28.1554 35.9782 28.4479 35.8047 28.744 36.029Z" fill="#B3BFB6"/>
<path d="M30.0041 36.0362C29.746 36.107 29.5377 36.0952 29.332 36.1024C29.2771 36.1044 29.196 36.1054 29.1914 36.0315C29.1862 35.9561 29.2565 35.913 29.3243 35.9002C29.5485 35.8581 29.7481 35.9428 30.0041 36.0362Z" fill="#B3BFB6"/>
<path d="M26.4545 25.4231C26.4545 24.6283 26.453 23.8335 26.455 23.0387C26.4566 22.25 26.7573 21.743 27.4997 21.4906C28.5137 21.1458 29.5527 21.1381 30.56 21.5352C31.1793 21.7795 31.5056 22.2479 31.4913 22.9473C31.462 24.3563 31.4728 25.7669 31.4328 27.1754C31.4148 27.8034 31.4307 28.4407 31.2378 29.0549C31.03 29.7153 30.6739 30.2376 29.9868 30.4696C29.7138 30.5619 29.4367 30.5932 29.1607 30.487C29.0611 30.4485 28.9647 30.4259 28.8626 30.4665C28.1186 30.7631 27.1914 30.1694 26.8691 29.5439C26.5859 28.9938 26.5043 28.4079 26.4935 27.8075C26.4792 27.0127 26.4899 26.2179 26.4899 25.4231C26.4781 25.4231 26.4663 25.4231 26.4545 25.4231ZM27.0328 26.7161C27.058 26.711 27.0698 26.7125 27.0739 26.7074C27.7732 25.7802 29.8708 25.6991 30.7236 26.5956C30.757 26.631 30.7903 26.691 30.8478 26.6664C30.9325 26.6299 30.8909 26.5478 30.8914 26.4842C30.8981 25.2543 30.8991 24.0249 30.913 22.7949C30.9161 22.5055 30.7868 22.3105 30.5661 22.1525C30.2429 21.9206 29.878 21.841 29.486 21.8154C28.8857 21.7759 28.2961 21.781 27.7163 21.976C27.2765 22.1238 27.0251 22.4137 27.021 22.8611C27.0113 23.9797 27.0056 25.0988 27.0082 26.2174C27.0092 26.3816 26.9682 26.554 27.0328 26.7161ZM30.1962 27.1123C29.9417 26.6351 29.0068 26.3298 28.6424 26.6366C29.2274 26.6725 29.702 26.9193 30.1962 27.1123Z" fill="#201011"/>
<path d="M24.1065 21.8969C24.7679 21.8969 25.319 22.4121 25.3169 23.0288C25.3149 23.6584 24.7689 24.19 24.126 24.189C23.4297 24.1874 22.8761 23.6938 22.8771 23.075C22.8781 22.3674 23.3686 21.8969 24.1065 21.8969ZM24.1568 22.5742C24.165 22.7918 24.342 22.998 24.4949 22.9888C24.6776 22.977 24.7109 22.8523 24.7048 22.7004C24.6956 22.4726 24.5498 22.2848 24.3872 22.3095C24.2286 22.3336 24.1691 22.4526 24.1568 22.5742Z" fill="#201011"/>
<path d="M33.8704 21.8984C34.5949 21.9148 35.0844 22.4125 35.0649 23.1109C35.0505 23.6071 34.5544 24.2172 33.8263 24.1812C33.1674 24.1489 32.6394 23.6491 32.6538 23.0375C32.6692 22.3607 33.1802 21.8825 33.8704 21.8984ZM34.4805 22.7117C34.4846 22.5003 34.3424 22.3002 34.1798 22.3068C34.0115 22.314 33.9515 22.4341 33.9438 22.5829C33.934 22.7727 34.0987 22.9816 34.2588 22.9847C34.4461 22.9888 34.4759 22.8589 34.4805 22.7117Z" fill="#201011"/>
<path d="M27.0328 26.7161C26.9681 26.5535 27.0086 26.381 27.0086 26.2174C27.0061 25.0988 27.0117 23.9797 27.0215 22.8611C27.0256 22.4137 27.2765 22.1237 27.7167 21.976C28.2966 21.781 28.8861 21.7759 29.4865 21.8154C29.879 21.841 30.2433 21.9206 30.5666 22.1525C30.7872 22.3105 30.9165 22.5055 30.9134 22.7949C30.8996 24.0243 30.8986 25.2542 30.8919 26.4842C30.8914 26.5478 30.9329 26.6299 30.8483 26.6663C30.7913 26.691 30.758 26.6304 30.7241 26.5955C29.8713 25.6991 27.7737 25.7807 27.0743 26.7074C27.0702 26.7125 27.0579 26.7115 27.0328 26.7161Z" fill="#B3BFB6"/>
<path d="M30.196 27.1122C29.7019 26.9192 29.2273 26.6724 28.6423 26.6365C29.0066 26.3297 29.942 26.635 30.196 27.1122Z" fill="#B3BFB6"/>
<path d="M24.1568 22.5743C24.1696 22.4527 24.2286 22.3331 24.3872 22.309C24.5493 22.2844 24.6951 22.4722 24.7048 22.7C24.711 22.8519 24.6776 22.9766 24.4949 22.9884C24.342 22.9986 24.165 22.7918 24.1568 22.5743Z" fill="#B3BFB6"/>
<path d="M34.4805 22.7117C34.4758 22.8589 34.4456 22.9887 34.2593 22.9851C34.0992 22.9821 33.9345 22.7732 33.9443 22.5834C33.952 22.4341 34.012 22.3145 34.1803 22.3073C34.3429 22.3001 34.4851 22.5002 34.4805 22.7117Z" fill="#B3BFB6"/>
<path d="M29.6696 31.6741C29.5165 31.6874 29.3434 31.6635 29.1745 31.6128C29.0243 31.5674 28.8799 31.5841 28.7292 31.6243C28.1552 31.7764 27.665 31.6176 27.2555 31.1967C27.156 31.0943 27.0675 30.981 26.9757 30.8709C26.9494 30.8399 26.9322 30.7987 26.9623 30.7629C26.9972 30.7212 27.0321 30.7557 27.0666 30.7739C27.6252 31.0718 28.2122 31.1661 28.833 31.0207C29.0741 30.9642 29.307 31.0369 29.5419 31.0714C29.9882 31.1369 30.4058 31.0628 30.808 30.8571C30.9123 30.8035 31.0658 30.6753 31.1452 30.7643C31.2399 30.87 31.0845 30.9967 31.007 31.0781C30.653 31.4526 30.2355 31.7061 29.6696 31.6741Z" fill="#8B8E87"/>
<path d="M20.7148 18.5893C20.8344 18.484 20.855 18.3346 20.8745 18.1935C20.9335 17.7679 21.0716 17.3629 21.1819 16.9513C21.2061 16.8614 21.2461 16.7737 21.2918 16.6925C21.4047 16.4918 21.4817 16.4908 21.6249 16.6695C21.6809 16.7388 21.7194 16.8563 21.8297 16.8363C21.9324 16.8178 21.9155 16.6997 21.9386 16.6227C22.1408 15.9411 22.4729 15.3343 22.9688 14.8215C23.0299 14.7584 23.0863 14.647 23.1967 14.6983C23.2906 14.7419 23.2511 14.8503 23.2527 14.9314C23.2634 15.4262 23.2234 15.9215 23.2871 16.4159C23.3492 16.8968 23.5319 17.3378 23.7172 17.7767C24.1037 18.6924 24.6735 19.4999 25.2238 20.3207C25.6006 20.8828 26.0759 21.3607 26.4748 21.9007C26.6021 22.0731 26.7037 21.8806 26.812 21.9217C26.4948 22.3129 26.4655 22.7697 26.4748 23.2497C26.4953 24.344 26.4912 25.439 26.4953 26.5339C26.4958 26.635 26.5168 26.7397 26.4671 26.8367C26.35 26.771 26.3885 26.6565 26.388 26.56C26.3834 25.9358 26.3813 25.3117 26.3844 24.6875C26.3854 24.4734 26.3095 24.3769 26.0887 24.4549C26.0246 24.4775 25.9584 24.4945 25.8957 24.5206C25.4743 24.6957 25.173 25.0196 24.864 25.3394C24.5252 25.69 24.3291 26.1201 24.2372 26.5785C24.1166 27.1801 24.0791 27.793 24.1679 28.4116C24.2428 28.9316 24.365 29.4274 24.635 29.8838C24.8978 30.3283 25.2233 30.7266 25.6124 31.0541C26.0379 31.4129 26.4501 31.8195 27.0425 31.9114C27.1118 31.9221 27.1785 31.9365 27.2021 32.0166C27.1333 32.0356 27.0666 32.0258 27.0009 32.0038C26.4106 31.8072 25.7977 31.6896 25.213 31.4704C23.6643 30.8909 22.2712 30.0752 21.1286 28.8628C20.2641 27.9455 19.8222 26.8593 19.7929 25.5981C19.778 24.9518 19.9105 24.3235 19.99 23.6891C20.009 23.5392 20.0927 23.3954 20.0244 23.2389C20.0285 23.2122 20.0326 23.1855 20.0367 23.1588C20.1137 23.0823 20.1373 22.9817 20.1543 22.8816C20.3191 21.9073 20.5583 20.95 20.8057 19.9947C20.9294 19.5153 21.0033 19.0415 20.7148 18.5893ZM22.898 23.0567C22.8939 23.6855 23.4323 24.1741 24.1351 24.1783C24.7634 24.1824 25.3126 23.6567 25.3234 23.0413C25.3342 22.4253 24.7839 21.9063 24.1202 21.9058C23.3836 21.9048 22.9026 22.3575 22.898 23.0567Z" fill="#8B8E87"/>
<path d="M31.2819 22.0305C31.4924 21.9817 31.6058 21.8046 31.7187 21.6552C32.1956 21.0239 32.7161 20.4258 33.1637 19.7719C33.6457 19.0681 34.0892 18.3377 34.4337 17.561C34.641 17.0934 34.776 16.5826 34.7991 16.055C34.8151 15.6982 34.8792 15.3445 34.7617 14.9903C34.7298 14.8949 34.7062 14.7511 34.8387 14.6967C34.9629 14.6454 35.006 14.7742 35.0743 14.8461C35.5542 15.3517 35.8735 15.941 36.0106 16.6268C36.0234 16.692 36.0362 16.7736 36.1143 16.7905C36.2072 16.8111 36.2441 16.7284 36.2888 16.6668C36.3483 16.5842 36.4033 16.4723 36.5172 16.4856C36.6461 16.501 36.6312 16.637 36.6609 16.7305C36.8129 17.2084 37.0059 17.6734 37.1091 18.1672C37.1342 18.2868 37.1681 18.4229 37.3159 18.4681C37.1435 18.7016 36.9607 18.9403 36.9859 19.2473C37.0079 19.5173 37.0362 19.7888 37.1086 20.0547C37.223 20.4741 37.3339 20.8955 37.415 21.3221C37.6055 22.3261 37.8257 23.3245 37.9915 24.3342C38.2312 25.7926 38.0546 27.1529 37.1738 28.3802C37.0156 28.6004 36.8031 28.7801 36.6917 29.0347L36.6923 29.0342C36.607 29.0568 36.5367 29.1065 36.4808 29.1712C36.278 29.4038 36.0362 29.5937 35.7975 29.7836C34.6149 30.725 33.2874 31.3749 31.8214 31.747C31.5935 31.805 31.3532 31.8512 31.1515 31.9904C31.1181 31.9816 31.0843 31.9724 31.0509 31.9637C31.0576 31.9175 31.0827 31.8867 31.1253 31.8682C31.8045 31.5735 32.3378 31.1018 32.8213 30.5464C33.1771 30.1378 33.4512 29.6825 33.6041 29.183C33.8218 28.4716 33.8947 27.7314 33.7761 26.9799C33.5893 25.7977 33.0344 24.9107 31.865 24.4867C31.5591 24.3758 31.5627 24.3697 31.5596 24.71C31.5493 25.8383 31.5858 26.967 31.5124 28.0948C31.5026 28.2467 31.5057 28.4038 31.3923 28.5275C31.3712 27.9834 31.441 27.4429 31.4569 26.8998C31.4847 25.9543 31.4544 25.0087 31.4816 24.0627C31.5001 23.3831 31.6227 22.6798 31.2819 22.0305ZM33.8993 21.9068C33.1966 21.8924 32.692 22.3559 32.6735 23.034C32.6571 23.63 33.1837 24.1438 33.8295 24.1628C34.5014 24.1823 35.065 23.6941 35.0763 23.0823C35.0881 22.4108 34.5979 21.9211 33.8993 21.9068Z" fill="#8B8E87"/>
<path d="M37.7691 15.4723C37.8954 15.21 37.8959 15.2095 37.5951 15.1556C37.5366 15.1453 37.4765 15.1417 37.417 15.1366C37.2815 15.1248 37.1398 15.1355 37.1033 14.9461C37.0664 14.7536 37.127 14.6227 37.2928 14.518C37.5345 14.3651 37.766 14.1957 38.0345 14.0114C37.8235 13.8959 37.6634 14.0227 37.5017 14.0001C37.3508 13.9785 37.1947 13.9965 37.0407 13.9939C36.9699 13.9924 36.9021 13.9765 36.878 13.8969C36.8575 13.8286 36.9001 13.7819 36.9432 13.7404C37.302 13.3934 37.7055 13.1059 38.1597 12.9011C38.42 12.7835 38.688 12.7009 38.9359 12.5382C39.2413 12.3375 39.634 12.3539 39.9831 12.3852C40.4117 12.4237 40.8701 12.4781 41.2012 12.7948C41.4722 13.0541 41.6939 13.3656 41.9342 13.6562C42.0368 13.7804 42.1503 13.8954 42.197 14.0607C42.2509 14.2516 42.198 14.3517 41.9953 14.3286C41.8248 14.3091 41.7371 14.3332 41.7581 14.5401C41.7786 14.7424 41.6565 14.8363 41.4532 14.8152C41.3346 14.8029 41.2166 14.7803 41.098 14.7783C41.0169 14.7767 40.9435 14.8245 40.9322 14.9107C40.9199 15.0006 40.9979 15.0216 41.0667 15.0329C41.6688 15.134 42.0835 15.9379 42.0307 16.4989C42.0194 16.618 42.0219 16.7238 41.8484 16.6986C41.6903 16.6755 41.7191 16.8023 41.7299 16.889C41.7519 17.0667 41.7945 17.2417 41.8156 17.4193C41.8695 17.8705 41.7252 18.294 41.6226 18.7226C41.5954 18.8355 41.5286 18.9336 41.408 18.9536C41.2874 18.9736 41.2694 18.8473 41.2119 18.7796C41.1539 18.7113 41.1319 18.6056 41.0179 18.5948C40.9424 18.6405 40.9897 18.7031 40.9953 18.756C41.0528 19.2909 40.9753 19.796 40.6653 20.2482C40.5631 20.397 40.4599 20.5387 40.231 20.4797C40.1088 20.4484 40.0287 20.5705 39.9723 20.6594C39.7361 21.031 39.4348 21.3374 39.1048 21.627C38.9205 21.7886 38.7254 21.8487 38.4985 21.841C38.2973 21.8343 38.2054 21.9257 38.2352 22.1187C38.2927 22.4878 38.3569 22.8558 38.4287 23.2223C38.4513 23.3363 38.4975 23.4343 38.6587 23.345C39.4872 22.8866 40.3049 22.4175 40.9337 21.6834C41.2997 21.2563 41.4347 20.722 41.6472 20.223C41.677 20.1532 41.6549 20.0208 41.7761 20.0336C41.8982 20.0465 41.9727 20.1501 41.9727 20.2692C41.9732 20.4535 42.0497 20.6178 42.0784 20.7933C42.0964 20.9022 42.1595 20.934 42.2535 20.9391C42.2447 20.9694 42.2355 20.9997 42.2268 21.03C42.1498 21.0628 42.0753 21.0531 42.003 21.0166L42.004 21.0146C41.9891 20.9499 41.9737 20.8857 41.9588 20.821C41.9403 20.7168 41.9219 20.6121 41.9034 20.5079C41.8952 20.4063 41.8962 20.2898 41.7648 20.2728C41.7134 20.2662 41.7016 20.3406 41.7037 20.3935C41.6991 20.4222 41.6939 20.4509 41.6898 20.4797C41.5461 20.5921 41.5559 20.7702 41.5009 20.9206C41.4845 20.9735 41.4676 21.0264 41.4511 21.0798C41.4347 21.1126 41.4178 21.1449 41.4008 21.1778C41.3326 21.2404 41.3223 21.3297 41.2936 21.4109C41.2207 21.4406 41.1899 21.5012 41.1765 21.5741C41.1349 21.6331 41.059 21.667 41.0482 21.7486C41.0004 21.7686 40.9599 21.7958 40.9471 21.8502C40.9265 21.8769 40.906 21.9036 40.8855 21.9308C40.7967 21.9842 40.7135 22.0433 40.6673 22.1408C40.502 22.2758 40.3367 22.4108 40.1714 22.5458C39.9759 22.6556 39.7762 22.7598 39.633 22.9416C39.6083 22.9487 39.5842 22.9554 39.5596 22.9626C39.4723 22.9698 39.4174 23.0222 39.3758 23.0935C39.3527 23.1022 39.3296 23.111 39.3065 23.1197C39.247 23.1253 39.2018 23.153 39.173 23.2064L39.1571 23.2044L39.1453 23.2146C39.0606 23.2249 39.0036 23.2726 38.9646 23.3461C38.94 23.3538 38.9148 23.362 38.8902 23.3697C38.8296 23.3779 38.786 23.4087 38.7624 23.4662C38.7177 23.4831 38.6726 23.4995 38.6279 23.5165C38.5725 23.5308 38.5309 23.5632 38.5047 23.6145L38.4934 23.6063C38.4934 23.6063 38.4821 23.6145 38.4816 23.6145C38.4405 23.5822 38.3995 23.5493 38.3584 23.5165C38.3476 23.4426 38.3368 23.3686 38.3261 23.2947C38.3333 23.1818 38.3148 23.0755 38.2491 22.9806C38.2244 22.8456 38.2003 22.7106 38.1757 22.5751C38.187 22.533 38.1798 22.4965 38.1449 22.4678C38.1382 22.4349 38.1315 22.4021 38.1248 22.3697C38.1387 22.3276 38.129 22.2922 38.0971 22.2619C38.0874 22.1957 38.0781 22.129 38.0684 22.0628C38.0283 21.6531 38.2172 21.3041 38.363 20.9432C38.4087 20.8303 38.478 20.8175 38.5514 20.9078C38.6315 21.0064 38.691 21.1219 38.7711 21.2204C38.843 21.3087 38.9215 21.3672 39.0006 21.2117C39.2613 20.6979 39.5144 20.184 39.3773 19.5793C39.3517 19.4674 39.3768 19.3925 39.5067 19.3874C39.6853 19.3807 39.6417 19.2667 39.6011 19.1733C39.4713 18.8766 39.3471 18.5758 39.112 18.3407C39.0729 18.3017 39.0021 18.2581 39.0478 18.1934C39.0909 18.1333 39.1633 18.1728 39.2126 18.1965C39.4949 18.3335 39.7977 18.4357 40.0185 18.6769C40.0698 18.7329 40.135 18.7883 40.2202 18.7524C40.2972 18.72 40.2875 18.642 40.2931 18.5748C40.3259 18.1754 40.3501 17.7761 40.2171 17.388C40.1899 17.3079 40.2146 17.2648 40.2767 17.2155C40.4302 17.0959 40.3942 16.9645 40.3131 16.809C40.0606 16.3249 39.635 16.0883 39.1366 15.9471C39.0724 15.9291 38.9877 15.9379 38.9888 15.8424C38.9898 15.769 39.0601 15.7562 39.1161 15.7361C39.3625 15.6463 39.595 15.5211 39.864 15.4892C40.079 15.4636 40.2423 15.1622 40.1401 15.0113C39.5585 14.152 38.2732 13.863 37.4786 14.5724C37.2517 14.6104 37.2286 14.7526 37.2902 14.9384C37.2989 15.0534 37.3775 15.0514 37.4611 15.0416C37.6552 15.0642 37.8492 15.0863 38.0432 15.1083C38.0581 15.1504 38.0725 15.1925 38.0869 15.2351C38.0145 15.3142 37.9416 15.3937 37.8692 15.4728C37.8364 15.4723 37.803 15.4723 37.7691 15.4723Z" fill="#8B8E87"/>
<path d="M19.6456 22.5695C19.5537 22.4257 19.662 22.2887 19.6625 22.147C19.6636 21.8857 19.5999 21.7846 19.3417 21.8015C18.9932 21.8241 18.7848 21.6142 18.5892 21.3914C18.3479 21.1157 18.1287 20.8201 17.9075 20.528C17.8305 20.4264 17.7617 20.3894 17.6591 20.4869C17.5056 20.6327 17.3983 20.5203 17.33 20.4012C17.0518 19.9161 16.8162 19.4177 16.9307 18.8299C16.945 18.7545 16.9856 18.6395 16.8773 18.6072C16.7962 18.583 16.7916 18.6934 16.7556 18.7463C16.6863 18.8484 16.5939 18.9424 16.4728 18.9419C16.3578 18.9419 16.3609 18.8048 16.327 18.7242C16.0801 18.137 15.9815 17.5343 16.1453 16.9035C16.1766 16.7828 16.2413 16.6119 15.9867 16.6381C15.883 16.6489 15.8727 16.557 15.8666 16.4769C15.8301 15.9857 16.1797 15.3517 16.6155 15.131C16.6817 15.0976 16.7613 15.0894 16.8357 15.0745C16.9081 15.0596 16.9722 15.0324 16.9748 14.9498C16.9774 14.8733 16.9255 14.8189 16.8593 14.7948C16.7356 14.7501 16.6027 14.7388 16.4856 14.8025C16.3208 14.8923 16.2551 14.8312 16.2716 14.6695C16.2947 14.4452 16.2269 14.3425 15.9831 14.341C15.8224 14.34 15.7613 14.2558 15.8378 14.0633C15.9523 13.7763 16.1627 13.5633 16.3296 13.3185C16.424 13.1799 16.5441 13.0608 16.6329 12.9119C16.77 12.6825 17.0359 12.6445 17.2648 12.5546C17.7427 12.3673 18.2381 12.4058 18.7329 12.4279C18.7827 12.4299 18.8438 12.4422 18.8777 12.4735C19.236 12.8041 19.7277 12.8555 20.1363 13.0823C20.471 13.2676 20.721 13.55 21.0208 13.7743C21.0726 13.8133 21.0942 13.8703 21.0659 13.9334C21.0357 14.0007 20.971 13.9996 20.9114 13.9976C20.6558 13.9899 20.4038 13.9252 20.1456 13.9504C20.0706 13.9575 19.9947 13.9581 19.8925 13.9632C20.0013 14.2347 20.354 14.2229 20.4305 14.4873C20.3468 14.497 20.2857 14.4508 20.2205 14.4082C19.9859 14.2558 19.7324 14.1849 19.4475 14.1844C18.757 14.1834 18.2484 14.5186 17.8192 15.0186C17.7715 15.0745 17.7278 15.1587 17.7982 15.1957C17.9552 15.2783 18.0328 15.4482 18.2211 15.5067C18.5204 15.5996 18.851 15.6551 19.0753 15.9287C19.0399 15.9502 19.0204 15.9692 18.9973 15.9754C18.9316 15.9928 18.8643 16.0062 18.7976 16.0201C18.3171 16.1207 17.9244 16.3532 17.6575 16.7757C17.5841 16.8922 17.5215 17.0323 17.7053 17.079C17.8649 17.1196 17.8356 17.1596 17.7869 17.2782C17.6231 17.6786 17.6159 18.1082 17.5934 18.5327C17.5887 18.6226 17.6206 18.7042 17.7078 18.7458C17.8043 18.7914 17.8382 18.7021 17.8936 18.6534C18.158 18.4219 18.4347 18.2099 18.7853 18.1216C18.8407 18.1077 18.9054 18.0554 18.9485 18.1175C18.9927 18.1811 18.9218 18.2227 18.8864 18.2674C18.6949 18.5076 18.5178 18.7571 18.4013 19.0435C18.3628 19.1385 18.3094 19.2658 18.4609 19.2909C18.6754 19.3263 18.6092 19.4541 18.5871 19.5758C18.5024 20.0368 18.5712 20.4797 18.7832 20.8919C18.8613 21.0434 18.9249 21.2923 19.0845 21.2949C19.2108 21.2969 19.2806 21.048 19.3587 20.8991C19.3884 20.8427 19.3997 20.7533 19.4916 20.7703C19.5573 20.7826 19.5722 20.8529 19.5902 20.9094C19.6928 21.2348 19.8022 21.5587 19.8135 21.9047C19.8063 21.9889 19.7986 22.0726 19.7914 22.1568C19.7631 22.1896 19.7555 22.2255 19.7719 22.2661C19.7631 22.2984 19.7544 22.3303 19.7457 22.3626C19.7093 22.3898 19.699 22.4262 19.7098 22.4694C19.6892 22.5032 19.6677 22.5366 19.6456 22.5695Z" fill="#8B8E87"/>
</svg>
