<svg t="1695401226644" class="icon" viewBox="0 0 1024 1024" version="1.1" xmlns="http://www.w3.org/2000/svg" p-id="5129" width="200" height="200"><path d="M303.082667 729.749333a21.333333 21.333333 0 0 0 30.165333 0l30.165333-30.165333a21.333333 21.333333 0 0 0 0-30.165333l-97.813333-97.834667c-13.44-13.44-3.925333-36.416 15.082667-36.416h485.482666a21.333333 21.333333 0 0 0 21.333334-21.333333v-42.666667a21.333333 21.333333 0 0 0-21.333334-21.333333H280.682667c-19.008 0-28.522667-22.976-15.082667-36.416l97.834667-97.834667a21.333333 21.333333 0 0 0 0-30.165333l-30.186667-30.186667a21.333333 21.333333 0 0 0-30.165333 0L80.917333 477.44a21.333333 21.333333 0 0 0 0 30.165333l222.165334 222.165334z" fill="#2c2c2c" p-id="5130"></path><path d="M382.165333 855.168a21.333333 21.333333 0 0 1 21.333334-21.333333h448a21.333333 21.333333 0 0 0 21.333333-21.333334v-640a21.333333 21.333333 0 0 0-21.333333-21.333333h-448a21.333333 21.333333 0 0 1-21.333334-21.333333v-42.666667a21.333333 21.333333 0 0 1 21.333334-21.333333h533.333333a21.333333 21.333333 0 0 1 21.333333 21.333333v810.666667a21.333333 21.333333 0 0 1-21.333333 21.333333h-533.333333a21.333333 21.333333 0 0 1-21.333334-21.333333v-42.666667z" fill="#2c2c2c" p-id="5131"></path></svg>