<svg width="16" height="16" viewBox="0 0 16 16" fill="none" xmlns="http://www.w3.org/2000/svg">
<g clip-path="url(#clip0_176_1349)">
<path d="M8.03115 3.57979C4.58189 3.57979 1.7861 6.36042 1.7861 9.79032C1.7861 13.2194 4.58189 16 8.03115 16C11.4804 16 14.277 13.2194 14.277 9.79032C14.277 6.36042 11.4813 3.57979 8.03115 3.57979ZM11.2429 9.23621L10.0109 10.4295L10.3023 12.1145C10.4 12.6804 10.0749 12.928 9.55283 12.656L8.03115 11.8602L6.50947 12.656C5.99831 12.923 5.66147 12.6922 5.76084 12.1145L6.05136 10.4303L4.8202 9.23621C4.40757 8.83537 4.52378 8.44463 5.10652 8.36042L6.80757 8.11537L7.56883 6.5819C7.82399 6.06737 8.2341 6.05727 8.49431 6.5819L9.25473 8.11453L10.9566 8.36127C11.5284 8.44379 11.664 8.82779 11.2429 9.23621ZM13.8695 3.19305e-06H10.0076C9.90937 0.00067032 9.81421 0.0342037 9.73729 0.0952547C9.66037 0.156306 9.6061 0.241358 9.58315 0.336845L8.39326 2.67116C8.39326 2.67116 10.9423 2.82274 12.448 4.26527L14.2248 0.697266C14.2814 0.624653 14.3133 0.535827 14.3158 0.443793C14.3157 0.385332 14.304 0.327466 14.2815 0.273508C14.259 0.21955 14.2261 0.170559 14.1847 0.129339C14.1432 0.0881178 14.094 0.0554769 14.0399 0.0332839C13.9859 0.011091 13.9279 -0.000218353 13.8695 3.19305e-06ZM7.60589 2.67116L6.41599 0.336845C6.39304 0.241358 6.33878 0.156306 6.26185 0.0952547C6.18493 0.0342037 6.08978 0.000670324 5.99157 3.19305e-06H2.13052C2.07206 -0.000218353 2.01413 0.011091 1.96004 0.0332839C1.90596 0.0554769 1.85678 0.0881178 1.81533 0.129339C1.77387 0.170559 1.74095 0.21955 1.71845 0.273508C1.69595 0.327466 1.68431 0.385332 1.6842 0.443793C1.6842 0.538951 1.7221 0.624845 1.77431 0.697266L3.55199 4.26527C5.05768 2.82358 7.60673 2.67116 7.60673 2.67116H7.60589Z" fill="#F6BD41"/>
</g>
<defs>
<clipPath id="clip0_176_1349">
<rect width="16" height="16" fill="white"/>
</clipPath>
</defs>
</svg>
