<svg width="12" height="12" viewBox="0 0 12 12" fill="none" xmlns="http://www.w3.org/2000/svg">
<path d="M6.00012 0C3.09124 0 0 0.964313 0 2.74994V8.39975C0 10.0804 2.74752 11.4998 6.00012 11.4998C9.25202 11.4998 12 10.0804 12 8.39975V2.74994C12 0.964313 8.90824 0 6.00012 0ZM6.00012 1.00044C9.09769 1.00044 11 2.01947 11 2.74994C11 3.48089 9.09769 4.49992 6.00012 4.49992C2.90231 4.49992 0.999995 3.48089 0.999995 2.74994C0.999995 2.01947 2.90231 1.00044 6.00012 1.00044ZM6.00012 10.5003C2.99406 10.5003 0.999995 9.23565 0.999995 8.39975V7.15465C2.07538 7.96467 3.91396 8.49985 6.00012 8.49985C8.08553 8.49985 9.92437 7.96467 11 7.15465V8.39975C11 9.23565 9.00594 10.5003 6.00012 10.5003ZM6.00012 7.50035C3.18399 7.50035 0.999995 6.42518 0.999995 5.50036V4.31387C2.14569 5.09023 4.10858 5.50036 6.00012 5.50036C7.89119 5.50036 9.85402 5.09022 11 4.31387V5.50036C11 6.42516 8.81552 7.50035 6.00012 7.50035Z" fill="#666666"/>
</svg>
