<svg width="18" height="18" viewBox="0 0 18 18" fill="none" xmlns="http://www.w3.org/2000/svg">
<path d="M6.46873 12.4228L5.34373 13.5478V10.125H4.21873V13.5478L3.09373 12.4228L2.29779 13.2188L4.78123 15.7022L7.26467 13.2188L6.46873 12.4228ZM4.78123 2.29782L2.29779 4.78126L3.09373 5.5772L4.21873 4.4522V7.87501H5.34373V4.4522L6.46873 5.5772L7.26467 4.78126L4.78123 2.29782ZM8.43748 3.37501H15.75V4.50001H8.43748V3.37501ZM8.43748 6.75001H15.75V7.87501H8.43748V6.75001ZM8.43748 10.125H15.75V11.25H8.43748V10.125ZM8.43748 13.5H15.75V14.625H8.43748V13.5Z" fill="#333333"/>
</svg>
