<svg width="12" height="12" viewBox="0 0 12 12" fill="none" xmlns="http://www.w3.org/2000/svg">
<path d="M5.44444 12C5.26508 12 5.0873 11.9317 4.95079 11.7952L0.204762 7.04921C-0.068254 6.77619 -0.068254 6.33333 0.204762 6.06191L6.11746 0.149206C6.2127 0.0539682 6.34127 0 6.47619 0H11.2889C11.681 0 12 0.319048 12 0.711111V5.52381C12 5.65873 11.946 5.7873 11.8508 5.88254L5.9381 11.7952C5.80159 11.9317 5.62381 12 5.44444 12ZM1.14762 6.55556L5.44444 10.8524L10.9841 5.3127V1.01587H6.6873L1.14762 6.55556Z" fill="#666666"/>
<path d="M8.25397 5.36508C7.3619 5.36508 6.63492 4.63809 6.63492 3.74603C6.63492 2.85397 7.3619 2.12698 8.25397 2.12698C9.14603 2.12698 9.87301 2.85397 9.87301 3.74603C9.87301 4.63809 9.14603 5.36508 8.25397 5.36508ZM8.25397 3.14286C7.92063 3.14286 7.65079 3.4127 7.65079 3.74603C7.65079 4.07936 7.92063 4.34921 8.25397 4.34921C8.5873 4.34921 8.85714 4.07936 8.85714 3.74603C8.85714 3.4127 8.5873 3.14286 8.25397 3.14286Z" fill="#666666"/>
</svg>
