<svg width="18" height="18" viewBox="0 0 18 18" fill="none" xmlns="http://www.w3.org/2000/svg">
<g clip-path="url(#clip0_224_1664)">
<path d="M11.943 13.1284L13.4197 6.16757C13.5502 5.55493 13.1985 5.31385 12.7967 5.46428L4.11815 8.80907C3.52542 9.03987 3.53572 9.37157 4.01785 9.522L6.23765 10.215L11.3908 6.9705C11.6318 6.80978 11.853 6.90043 11.6723 7.06115L7.50407 10.8277L7.34335 13.1181C7.57415 13.1181 7.67507 13.0178 7.79528 12.897L8.87978 11.8524L11.1298 13.5097C11.5419 13.7404 11.8331 13.6202 11.9437 13.1278L11.943 13.1284ZM18 9C18 13.9718 13.9718 18 9 18C4.02815 18 0 13.9718 0 9C0 4.02815 4.02815 0 9 0C13.9718 0 18 4.02815 18 9Z" fill="#1296DB"/>
</g>
<defs>
<clipPath id="clip0_224_1664">
<rect width="18" height="18" fill="white"/>
</clipPath>
</defs>
</svg>
