<svg width="20" height="20" viewBox="0 0 20 20" fill="none" xmlns="http://www.w3.org/2000/svg">
<path d="M10 1.25C5.16797 1.25 1.25 5.16797 1.25 10C1.25 14.832 5.16797 18.75 10 18.75C14.832 18.75 18.75 14.832 18.75 10C18.75 5.16797 14.832 1.25 10 1.25ZM14.2051 7.8457C14.2109 7.9375 14.2109 8.0332 14.2109 8.12695C14.2109 10.9941 12.0273 14.2969 8.03711 14.2969C6.80664 14.2969 5.66602 13.9395 4.70508 13.3242C4.88086 13.3438 5.04883 13.3516 5.22852 13.3516C6.24414 13.3516 7.17773 13.0078 7.92188 12.4258C6.96875 12.4062 6.16797 11.7812 5.89453 10.9219C6.22852 10.9707 6.5293 10.9707 6.87305 10.8828C5.88086 10.6816 5.13672 9.80859 5.13672 8.75391V8.72656C5.42383 8.88867 5.76172 8.98828 6.11523 9.00195C5.51172 8.59961 5.14844 7.92188 5.14844 7.19727C5.14844 6.79297 5.25391 6.42383 5.44336 6.10352C6.51172 7.41992 8.11719 8.2793 9.91602 8.37109C9.60938 6.89648 10.7109 5.70312 12.0352 5.70312C12.6602 5.70312 13.2227 5.96484 13.6191 6.38672C14.1094 6.29492 14.5781 6.11133 14.9961 5.86523C14.834 6.36719 14.4941 6.79102 14.043 7.05859C14.4805 7.01172 14.9023 6.89062 15.293 6.7207C14.998 7.1543 14.6289 7.53906 14.2051 7.8457Z" fill="#1296DB"/>
</svg>
