<svg width="88" height="90" viewBox="0 0 88 90" fill="none" xmlns="http://www.w3.org/2000/svg">
<circle cx="41" cy="41" r="40" fill="#B3BFB6" stroke="#201011" stroke-width="1.14286"/>
<path d="M17.1478 15.8361L17.2803 15.0244L18.3936 14.8472C18.3206 15.5358 18.1489 16.3296 17.9257 17.1504L18.441 16.6591L18.7134 15.4377L19.7568 15.5814L17.8577 17.3921C17.7151 17.9149 17.5383 18.4483 17.3507 18.9587L19.2266 17.1701L19.3915 16.4271L20.0908 16.523L17.6301 18.8692L17.9894 19.6982L19.3501 18.4009L19.6127 17.3547L20.5603 17.4791L20.3461 17.6834L21.0086 18.3782C21.4005 18.7893 21.2679 19.3689 20.6483 19.9596L20.4662 19.7685L19.4595 20.2199L20.3107 19.4084L19.4329 18.4877L18.0433 19.8127L18.2259 20.2244L17.1374 20.787L16.881 20.1471C16.5697 20.864 16.2431 21.5069 15.9317 21.9918L16.5549 18.6342L14.7484 20.3566L14.6601 20.2639L16.2408 18.7568L15.4237 17.8999L14.2715 18.9985L14.1887 18.9116L15.3409 17.8131L14.695 17.1356L15.5809 16.291L16.2268 16.9684L16.4352 16.7697L16.6515 15.7676L17.1478 15.8361ZM17.0623 16.3376L16.3096 17.0553L16.8561 17.6285L17.0623 16.3376Z" fill="#201011"/>
<path d="M23.8608 14.9701L23.5505 15.4525L22.5878 14.6782L23.4087 14.0871L22.7633 12.8268L21.9871 13.2242L21.9325 13.1173L22.7086 12.7199L22.0195 11.3741L23.1019 10.8199L23.7801 12.1444L24.0858 11.5654L24.6503 11.8606L23.8457 12.2726L24.4035 13.3621L25.274 12.7276L24.615 13.7751L25.428 15.363C25.6833 15.8615 25.3807 16.3939 24.608 16.7805L24.4913 16.5527L23.6438 16.6001L24.4769 16.1736L23.8608 14.9701ZM26.3575 15.6511L26.2991 15.5372L28.236 14.5454L27.01 10.5535L28.2771 10.2373L28.5778 14.3704L29.532 13.8819L29.8975 13.1914L30.4805 13.5401L26.3575 15.6511ZM26.9613 14.4431L24.9072 11.783C25.7147 12.0436 27.1142 12.846 27.7602 13.423L26.9613 14.4431ZM24.4792 11.5438L24.4245 11.437L25.6493 10.8098L25.1206 9.77732L26.203 9.22313L26.7316 10.2557L27.3227 9.95304L27.6564 9.30583L28.2461 9.61504L24.4792 11.5438Z" fill="#201011"/>
<path d="M34.0204 7.27899L33.9977 7.16115L36.2604 6.72654L36.8298 6.1284L37.6902 6.66371L35.7955 8.63244L37.5397 8.29743L38.2094 7.71261L38.8513 8.29803L38.6156 8.3433L39.1393 11.0695C39.2389 11.588 38.7777 11.9861 37.992 12.137L37.9483 11.9092L36.8527 11.7612L38.0154 11.5379L37.7121 9.95872C37.0314 11.1648 35.8951 12.2465 34.7002 12.7693C35.7704 11.5129 36.6736 9.93825 37.1145 8.5013L36.7295 8.57524C36.3727 9.68649 35.4998 10.9946 34.1617 11.7893C34.7221 10.9322 35.3926 9.63037 35.6768 8.77745L35.6532 8.78198L34.8055 9.66983L34.0381 9.06776L36.118 6.87608L34.0204 7.27899ZM34.8712 10.3089L32.7964 12.6544L31.8079 11.6223L32.7115 11.2369L32.2633 8.9036L31.4541 9.05903L31.4299 8.93333L32.2391 8.7779L31.9132 7.08092L33.1074 6.85154L33.4333 8.54852L33.5826 8.51985L33.9685 8.11172L34.4002 8.49314L33.4575 8.67423L33.8558 10.7483L34.8712 10.3089Z" fill="#201011"/>
<path d="M41.5025 9.21801L42.8983 5.83826L44.163 6.23087C43.9582 6.61331 43.7143 6.98402 43.4567 7.32934L44.4443 7.42258C44.5166 7.25263 44.5889 7.08267 44.6539 6.90399L45.7834 7.45259C45.1119 9.54273 43.2627 11.2565 41.2414 11.813C42.3677 10.7782 43.6251 9.28985 44.4011 7.53904L43.3657 7.44129C43.1737 7.68833 42.9664 7.9259 42.7527 8.14679C43.0976 8.32399 43.3989 8.53725 43.6456 8.81769L42.6348 9.56599L42.3355 8.56543C42.0638 8.80495 41.7856 9.02779 41.5025 9.21801ZM45.4846 12.1493L46.0463 6.19975L47.2569 6.31405L46.6952 12.2636L45.4846 12.1493ZM47.7141 10.2384L47.2328 7.84657C47.8471 8.23402 48.5716 8.98546 48.89 9.69854L47.7141 10.2384Z" fill="#201011"/>
<path d="M55.1501 11.6758C55.6298 10.3605 55.4901 9.20259 54.6634 8.90106C53.8292 8.59678 52.9843 9.39564 52.5046 10.7109C52.0249 12.0261 52.1543 13.1889 52.9885 13.4931C53.8153 13.7947 54.6704 12.991 55.1501 11.6758ZM51.3697 10.297C51.9454 8.71867 53.3681 8.24981 54.721 8.74323C56.0663 9.2339 56.8531 10.5087 56.2775 12.087C55.6991 13.6728 54.2763 14.1417 52.931 13.651C51.5781 13.1576 50.7913 11.8828 51.3697 10.297Z" fill="#201011"/>
<path d="M59.7902 11.1608L63.7663 13.6894L63.1266 14.6952L63.0119 14.6222C63.3289 14.0939 63.1938 13.4865 62.701 13.1731L62.2217 12.8683L59.7575 16.7431L60.2368 17.0479L60.1638 17.1626L58.1724 15.8962L58.2453 15.7814L58.7314 16.0905L61.1956 12.2157L60.7163 11.9109C60.2168 11.5932 59.6094 11.7284 59.2653 12.2396L59.1505 12.1666L59.7902 11.1608Z" fill="#201011"/>
<path d="M68.3671 19.9148L68.27 19.8196C68.8821 18.8852 68.8117 18.1223 68.2231 17.5799C67.3144 16.7242 66.2134 17.4489 65.4244 18.2551C64.6299 19.067 63.9348 20.1777 64.8043 21.0734C65.3649 21.6444 66.1292 21.6983 67.0502 21.0661L67.1474 21.1612L66.3025 22.0246C65.6898 21.8728 65.2469 21.7192 64.6868 21.1935C63.635 20.1866 63.3635 18.6225 64.5554 17.4046C65.7472 16.1867 67.3168 16.4243 68.3406 17.4598C68.8839 18.0027 69.0471 18.4422 69.2121 19.0514L68.3671 19.9148Z" fill="#201011"/>
<circle cx="40.9998" cy="45.8" r="29.2" fill="#F6BD41"/>
<path d="M70.9957 45.5134C70.9957 47.3592 70.8152 49.0132 70.4953 50.6432C70.1528 52.3863 69.6644 54.092 69.0147 55.7566C68.3912 57.3526 67.6566 58.8891 66.7832 60.3548C65.5142 62.4851 64.0067 64.4357 62.2452 66.1902C60.5098 67.9192 58.618 69.4444 56.5061 70.6857C55.4324 71.3163 54.3269 71.8846 53.1861 72.3956C51.8491 72.9944 50.4733 73.4587 49.0691 73.8486C47.6041 74.2556 46.1193 74.5571 44.6019 74.7234C43.1588 74.8812 41.7185 75.0235 40.2676 74.9832C38.5577 74.9357 36.8669 74.7177 35.1846 74.3915C33.8987 74.1424 32.6389 73.809 31.3954 73.4141C30.3189 73.0722 29.2792 72.6235 28.2537 72.1472C26.5636 71.3623 24.9599 70.4317 23.4481 69.3389C21.8593 68.1902 20.39 66.9113 19.0566 65.4718C17.3608 63.6402 15.876 61.6578 14.6849 59.4616C13.7797 57.7935 13.0295 56.0616 12.4349 54.2541C11.9105 52.6595 11.5149 51.0381 11.2927 49.382C11.1001 47.9474 10.9699 46.5022 11.006 45.0478C11.0364 43.8333 11.1164 42.6209 11.2792 41.4192C11.459 40.09 11.73 38.7743 12.1165 37.4848C12.6211 35.8025 13.2326 34.1634 14.0238 32.5936C15.1442 30.3677 16.479 28.2842 18.1153 26.3987C18.4784 25.9797 18.472 25.4135 18.6468 24.9195C18.7063 24.7518 18.5449 24.6591 18.3807 24.6096C17.9645 24.4843 17.8959 24.272 18.0856 23.8678C18.559 22.86 19.218 22.0036 20.0998 21.3185C20.2378 21.211 20.3695 21.0906 20.4438 20.9215C20.792 20.1288 21.4778 19.7282 22.2252 19.4098C23.2917 18.9561 24.4071 18.7501 25.5657 18.7763C25.7363 18.7799 25.8856 18.7339 26.0158 18.6107C26.2926 18.3496 26.6273 18.3354 26.9769 18.4147C27.1029 18.443 27.243 18.4515 27.3513 18.5131C28.2325 19.0148 29.0159 18.6192 29.8242 18.2859C31.549 17.5739 33.3466 17.1089 35.1747 16.7437C37.6051 16.2582 40.061 16.1273 42.5268 16.2355C44.4001 16.3183 46.253 16.588 48.0804 17.0367C49.767 17.4507 51.4082 17.9851 52.9914 18.6985C53.312 18.8429 53.6376 18.7884 53.9596 18.6886C54.2519 18.598 54.5435 18.5067 54.8379 18.4239C55.2088 18.3191 55.5485 18.3333 55.855 18.627C56.1147 18.8754 56.4749 18.8358 56.7977 18.8322C57.9421 18.8181 59.015 19.0842 60.0285 19.603C60.6181 19.9045 61.1121 20.3072 61.403 20.9229C61.6011 21.3426 62.0088 21.574 62.3025 21.9081C62.8531 22.5359 63.4236 23.1502 63.7031 23.962C63.8312 24.3349 63.7626 24.4906 63.3938 24.6442C63.2325 24.7115 63.1829 24.8127 63.2176 24.9762C63.3252 25.4871 63.4908 25.9557 63.8595 26.3612C65.171 27.8029 66.2857 29.3918 67.2489 31.084C68.4308 33.1598 69.3375 35.3559 69.9723 37.6575C70.6977 40.2839 71.0431 42.9649 70.9957 45.5134ZM27.2813 27.3216C27.0144 27.0435 26.8687 26.972 26.0816 26.7271C25.4751 26.5381 25.3866 26.2352 25.8099 25.7943C25.8913 25.7094 25.9734 25.6244 26.0604 25.5445C26.9876 24.6945 28.5142 24.7016 29.4215 25.5551C29.5602 25.6853 29.5807 25.8446 29.5418 26.0095C29.5015 26.18 29.3387 26.1369 29.2177 26.1531C29.0195 26.1786 28.8171 26.1807 28.6217 26.2211C28.4384 26.2593 28.3818 26.364 28.5389 26.5162C28.6486 26.6224 28.7682 26.7229 28.8595 26.8439C28.9883 27.0159 29.2205 27.1687 29.1179 27.4221C29.0251 27.6521 28.7845 27.5254 28.6111 27.5545C28.3556 27.5976 28.3436 27.7088 28.4894 27.8836C28.5793 27.9919 28.6925 28.0831 28.7711 28.1985C29.0796 28.6515 29.0754 28.6642 28.5595 28.8305C28.3216 28.907 28.3528 29.0237 28.4979 29.1533C28.6557 29.2941 28.8348 29.4109 28.9919 29.5524C29.2665 29.8015 29.2445 29.9325 28.919 30.0868C28.6465 30.2156 28.6316 30.321 28.8617 30.5086C28.9331 30.5666 29.006 30.6247 29.0839 30.6728C29.6756 31.0358 29.9176 31.5836 29.8015 32.2602C29.7336 32.6566 29.6112 33.0381 29.5241 33.428C29.1957 34.9093 28.8142 36.3807 28.5786 37.8819C28.4356 38.7892 28.2565 39.6923 28.2778 40.6173C28.3068 41.8799 28.6005 43.0632 29.3132 44.1249C30.3706 45.6996 31.8278 46.8136 33.4655 47.7145C34.6022 48.3402 35.7975 48.8051 37.0517 49.1626C38.3539 49.5341 39.6625 49.7373 41.0079 49.7549C42.606 49.7762 44.1333 49.4166 45.6437 48.9262C47.8051 48.2248 49.7259 47.1391 51.3558 45.5418C53.0785 43.8531 53.7756 41.8098 53.4578 39.4389C53.162 37.2321 52.6779 35.0594 52.1407 32.8986C52.0494 32.532 51.9949 32.1548 52.0126 31.7783C52.0416 31.1548 52.5024 30.8172 52.9391 30.4725C53.019 30.4095 53.1464 30.3805 53.1372 30.2481C53.1273 30.1059 52.9971 30.1137 52.9001 30.0797C52.6503 29.9919 52.634 29.8539 52.7968 29.6551C52.9398 29.4802 53.1026 29.3288 53.2816 29.1957C53.3701 29.1299 53.4677 29.0697 53.4387 28.9466C53.4125 28.8348 53.3014 28.839 53.2094 28.8192C52.8605 28.7428 52.8223 28.643 53.0304 28.3556C53.1061 28.2516 53.191 28.1546 53.2675 28.0513C53.3616 27.9239 53.5866 27.8432 53.5201 27.6613C53.4529 27.4759 53.2292 27.5693 53.0764 27.5325C53.065 27.5297 53.053 27.5311 53.041 27.5297C52.731 27.4915 52.6737 27.3846 52.8145 27.11C52.9355 26.8743 53.1231 26.6953 53.3227 26.5297C53.4012 26.4645 53.4685 26.4008 53.4373 26.2954C53.4048 26.185 53.2986 26.1779 53.2059 26.1694C53.0063 26.1503 52.8067 26.134 52.6064 26.1248C52.4571 26.1178 52.3665 26.0526 52.324 25.9075C52.2802 25.7561 52.2936 25.5961 52.4267 25.5268C52.8216 25.3215 53.167 25.0016 53.6242 24.9387C54.6652 24.795 55.5591 25.0597 56.2287 25.9203C56.465 26.2246 56.3412 26.6599 55.9597 26.7123C55.5888 26.7632 55.269 26.9345 54.9257 27.0498C54.8471 27.076 54.7523 27.0951 54.7495 27.1956C54.7459 27.3287 54.8634 27.3145 54.9519 27.34C55.637 27.5396 56.2265 27.863 56.5733 28.5319C56.6851 28.747 56.7389 28.9247 56.5153 29.0853C56.4389 29.1405 56.3921 29.2035 56.4275 29.292C56.6321 29.8016 56.574 30.3316 56.5521 30.8589C56.5471 30.9828 56.5967 31.1427 56.4473 31.2064C56.3037 31.2673 56.2074 31.1392 56.1197 31.0493C55.8217 30.7471 55.4282 30.6119 55.0609 30.4314C54.9929 30.3982 54.8917 30.3451 54.8309 30.4222C54.7459 30.5305 54.8691 30.5893 54.9264 30.6501C55.2314 30.9743 55.4027 31.3756 55.5811 31.7719C55.6476 31.9198 55.6929 32.0776 55.4303 32.0798C55.264 32.0812 55.2413 32.1916 55.2718 32.3247C55.4572 33.1428 55.143 33.847 54.7856 34.5484C54.6603 34.794 54.5563 34.7366 54.4317 34.5767C54.3312 34.4472 54.2548 34.2993 54.1528 34.1704C54.0814 34.0799 53.9816 34.0204 53.9087 34.1775C53.622 34.7989 53.3538 35.4154 53.5753 36.1344C53.7098 36.5718 53.7763 37.0311 53.8676 37.4813C53.9455 37.867 54.0049 37.9059 54.3496 37.6964C54.9823 37.3114 55.6193 36.9299 56.2272 36.5088C56.8465 36.0799 57.4113 35.5873 57.8281 34.9391C58.1254 34.4762 58.2393 33.9418 58.4658 33.4535C58.4977 33.3849 58.4885 33.2737 58.601 33.2794C58.6965 33.2851 58.7341 33.3721 58.7532 33.4528C58.7992 33.6474 58.8367 33.8442 58.8777 34.0402C58.9039 34.1641 58.8898 34.3169 59.0455 34.3637C59.1877 34.4061 59.2528 34.2752 59.3307 34.1945C59.9209 33.5802 60.4206 32.8993 60.8042 32.1364C61.0116 31.7238 61.209 31.3062 61.4426 30.8249C61.5254 31.0068 61.5771 31.1109 61.6202 31.2177C61.6542 31.3006 61.6393 31.4315 61.7568 31.4371C61.8708 31.4428 61.8885 31.3147 61.9231 31.2333C62.1786 30.6367 62.4193 30.0365 62.4164 29.3705C62.4143 28.6982 62.4164 28.0258 62.4214 27.3542C62.4221 27.2558 62.3789 27.1433 62.4787 27.0527C62.5998 27.1022 62.6394 27.3308 62.8121 27.2346C62.9586 27.1525 62.9218 26.989 62.9104 26.8496C62.8567 26.1517 62.7158 25.4744 62.4292 24.8325C62.2891 24.5183 62.0668 24.2974 61.7313 24.1764C61.4291 24.0674 61.1418 23.916 60.8297 23.7751C60.9493 23.6279 61.0845 23.6145 61.2083 23.6215C61.6309 23.6456 62.059 23.6357 62.4667 23.778C62.5785 23.8169 62.7158 23.8926 62.788 23.7765C62.8468 23.6824 62.7696 23.5543 62.7003 23.4531C62.4603 23.1028 62.202 22.7687 61.9203 22.4495C61.1567 21.5839 60.1587 21.0907 59.1219 20.654C58.9535 20.5832 58.6739 20.516 58.7008 20.3489C58.7326 20.1508 59.0044 20.2831 59.1672 20.2491C59.2727 20.2272 59.4305 20.2683 59.4432 20.0998C59.4538 19.9597 59.3151 19.9526 59.2217 19.913C58.003 19.3963 56.7389 19.3057 55.4452 19.5202C55.1019 19.5775 54.7622 19.6575 54.3779 19.736C54.4147 19.6299 54.4289 19.5754 54.4515 19.5244C54.4954 19.4239 54.661 19.3404 54.5619 19.2229C54.4657 19.1076 54.3114 19.1833 54.2017 19.2392C53.908 19.3871 53.5958 19.4947 53.3184 19.6787C52.1379 20.4622 51.2844 21.5578 50.4485 22.6703C50.06 23.1877 49.7351 23.7539 49.2807 24.2196C48.8979 24.6117 48.3005 24.7001 47.9339 24.4291C46.7951 23.5876 45.5191 23.0504 44.1347 22.8006C42.1156 22.4368 40.0858 22.4127 38.0659 22.8041C36.6666 23.0752 35.3389 23.5472 34.1343 24.3349C33.3749 24.8318 32.8859 24.7143 32.3275 23.9761C31.4619 22.831 30.6452 21.6476 29.6218 20.6292C29.0308 20.0418 28.3889 19.5379 27.5998 19.2463C27.4936 19.2066 27.3641 19.1408 27.265 19.23C27.139 19.3432 27.3053 19.4062 27.3414 19.4919C27.3669 19.5541 27.4455 19.615 27.3945 19.6808C27.3336 19.7594 27.2388 19.7176 27.1652 19.6886C26.8092 19.5492 26.4291 19.5188 26.0583 19.4706C24.8926 19.3185 23.7567 19.4544 22.6632 19.8988C22.5811 19.9321 22.4601 19.942 22.4686 20.0658C22.4785 20.2123 22.6137 20.189 22.7107 20.2187C22.8918 20.2746 23.119 20.1642 23.2761 20.3801C22.986 20.5768 22.6746 20.7099 22.3568 20.8288C20.9901 21.3398 19.8953 22.194 19.0906 23.4142C19.0198 23.521 18.9101 23.6449 18.9894 23.7666C19.0814 23.9082 19.2215 23.7964 19.3397 23.7631C19.8103 23.6307 20.2895 23.5911 20.7757 23.6364C20.8514 23.6435 20.9604 23.6357 20.9724 23.7433C20.9816 23.8247 20.8918 23.8473 20.8316 23.8813C20.6264 23.9973 20.4147 24.0979 20.1911 24.1778C19.8252 24.3081 19.5258 24.5218 19.3538 24.8898C19.0644 25.5098 18.9476 26.1666 18.9207 26.8432C18.915 26.9876 18.8584 27.1744 19.041 27.2508C19.2123 27.323 19.2031 27.0753 19.3305 27.0491C19.3524 27.0449 19.3758 27.0484 19.4211 27.0484C19.4211 27.718 19.4267 28.3861 19.4197 29.0549C19.4119 29.8136 19.6369 30.5192 19.8903 31.2192C19.9172 31.2942 19.9356 31.3876 20.0439 31.3841C20.1416 31.3812 20.1819 31.3076 20.2109 31.2262C20.2583 31.0967 20.2605 30.9495 20.3709 30.8228C20.6002 31.0231 20.6561 31.3119 20.7658 31.5631C21.1749 32.4959 21.6724 33.3707 22.3851 34.1067C22.4842 34.2094 22.5719 34.3969 22.7425 34.3537C22.9272 34.307 22.8699 34.099 22.9095 33.9588C22.935 33.8682 22.9435 33.7713 22.9782 33.6849C23.0419 33.5257 23.0476 33.2426 23.1983 33.2426C23.3795 33.2426 23.405 33.5122 23.4595 33.6856C23.6548 34.3063 23.906 34.8959 24.3385 35.397C25.2175 36.4161 26.3824 37.0425 27.5085 37.724C27.7668 37.8804 27.8468 37.7396 27.8935 37.5237C27.9883 37.0863 28.0428 36.6369 28.178 36.213C28.4108 35.4847 28.202 34.8166 27.9784 34.1428C27.9565 34.077 27.9211 33.9963 27.8376 34.0133C27.7915 34.0225 27.7477 34.0827 27.7201 34.1301C27.6118 34.312 27.5106 34.4981 27.4065 34.6828C27.3379 34.8046 27.2614 34.789 27.1928 34.6885C26.708 33.985 26.4475 33.2235 26.6068 32.3586C26.6401 32.1774 26.7483 31.9871 26.4143 31.9658C26.2557 31.9559 26.2819 31.7825 26.3301 31.6778C26.4129 31.498 26.4674 31.3076 26.5969 31.1441C26.795 30.8943 26.96 30.6183 27.1652 30.3147C26.541 30.3798 26.1177 30.7124 25.6995 31.0557C25.606 31.1321 25.5537 31.2984 25.3881 31.2064C25.2578 31.1349 25.2345 31.0005 25.243 30.8674C25.2805 30.2821 25.2798 29.6897 25.5268 29.1391C25.565 29.0535 25.6379 28.9714 25.4673 28.9374C25.1191 28.8687 25.2203 28.6677 25.3421 28.4689C25.6612 27.9487 26.1446 27.6557 26.7115 27.4731C26.8934 27.4165 27.0951 27.4547 27.2813 27.3216ZM70.0629 45.2834C70.099 42.9656 69.7904 40.7963 69.2724 38.6625C68.7514 36.518 67.9828 34.4557 66.9531 32.498C66.0691 30.8186 65.0648 29.2162 63.8454 27.7555C63.7873 27.6861 63.7541 27.5764 63.6302 27.6125C63.5184 27.6451 63.5064 27.7449 63.4979 27.8397C63.4179 28.7364 63.195 29.6013 62.9232 30.4555C62.6726 31.2446 62.3584 32.0033 61.8538 32.6693C61.7257 32.8385 61.582 32.9807 61.3527 32.8187C61.2097 32.7175 61.1779 32.8406 61.1184 32.9262C60.8771 33.2752 60.6428 33.629 60.3859 33.9659C60.0066 34.4642 59.5897 34.927 59.0469 35.2575C58.9365 35.3248 58.8077 35.4196 58.6909 35.3142C58.475 35.1195 58.3837 35.283 58.2811 35.4295C57.9471 35.9058 57.5266 36.2958 57.0857 36.6716C56.2725 37.3645 55.3319 37.8564 54.4239 38.3985C54.218 38.5216 54.1528 38.6639 54.1812 38.8897C54.2321 39.2988 54.276 39.7092 54.3071 40.1211C54.4154 41.5586 54.1132 42.9054 53.4005 44.1588C52.932 44.9826 52.3318 45.6989 51.6262 46.3288C51.4344 46.5 51.3049 46.6685 51.5554 46.902C52.4196 47.706 53.1408 48.6289 53.77 49.6247C53.8768 49.7939 54.0113 49.9029 54.1967 49.9722C55.0786 50.3034 55.9569 50.6446 56.838 50.9751C58.9768 51.7777 61.1092 52.5987 63.2608 53.368C64.3174 53.7459 65.2368 54.2498 65.7386 55.3079C66.0967 56.0631 66.44 56.8246 66.7917 57.5826C66.8335 57.6732 66.8221 57.8225 66.9545 57.8282C67.0861 57.8338 67.1435 57.7128 67.1987 57.6038C67.5547 56.9046 67.8462 56.1784 68.1435 55.453C68.7302 54.0205 69.1612 52.5413 69.4783 51.0317C69.8831 49.1024 70.1259 47.1512 70.0629 45.2834ZM11.9218 45.4455C11.9501 47.2481 12.1356 49.1095 12.5086 50.9503C12.9672 53.2123 13.7117 55.3794 14.7103 57.4594C14.7549 57.5529 14.7655 57.6795 14.9021 57.6824C15.0522 57.6859 15.0812 57.5543 15.13 57.4488C15.4287 56.809 15.7352 56.1728 16.026 55.5294C16.4259 54.6462 17.0218 53.9632 17.9497 53.615C19.2951 53.1104 20.6426 52.6121 21.9881 52.1082C23.8615 51.4068 25.7348 50.7033 27.6075 50.0005C27.7979 49.9291 27.9664 49.8328 28.081 49.653C28.6125 48.8172 29.2198 48.0394 29.8935 47.3139C30.5022 46.6586 30.4987 46.6685 29.8567 46.0273C28.6437 44.8156 27.7972 43.4093 27.546 41.6796C27.415 40.7808 27.4858 39.8925 27.6097 39.0043C27.65 38.7135 27.6104 38.511 27.3159 38.3716C27.0194 38.2315 26.7483 38.0376 26.4659 37.8691C25.3994 37.2328 24.3809 36.5357 23.6159 35.5343C23.4658 35.3382 23.3618 35.1167 23.0752 35.3587C22.9959 35.4253 22.9018 35.3623 22.8154 35.3142C22.618 35.2038 22.4502 35.0587 22.2846 34.9065C21.6795 34.3516 21.2003 33.6991 20.7736 33.0027C20.712 32.9015 20.6363 32.6891 20.5096 32.7925C20.1189 33.1102 20.0028 32.7465 19.8705 32.5441C19.0099 31.2277 18.6128 29.7421 18.3283 28.2176C18.3085 28.11 18.3665 27.9536 18.2108 27.9211C18.0997 27.8977 18.0297 28.0067 17.9645 28.0923C17.6829 28.4667 17.3906 28.8334 17.1181 29.2141C15.6099 31.3253 14.4372 33.6149 13.5588 36.0509C12.4739 39.0588 11.9615 42.1743 11.9218 45.4455ZM52.317 19.5223C52.2837 19.3652 52.1598 19.3362 52.0558 19.2894C51.508 19.0431 50.9468 18.8344 50.3777 18.6404C47.9558 17.8152 45.4688 17.3113 42.9167 17.1542C40.1388 16.9836 37.3843 17.1676 34.6609 17.7756C32.9913 18.1479 31.3557 18.6178 29.7853 19.3029C29.4052 19.4685 29.3932 19.5209 29.6975 19.7912C30.05 20.1048 30.3762 20.4438 30.6926 20.7934C31.4683 21.6505 32.1003 22.6215 32.8477 23.5005C33.2199 23.9379 33.3261 23.962 33.7861 23.6534C34.7748 22.9902 35.8619 22.55 37.0078 22.2591C38.8861 21.7828 40.7907 21.6505 42.7242 21.8352C43.9288 21.9506 45.098 22.1869 46.2297 22.6102C46.9063 22.8628 47.5277 23.2188 48.125 23.6201C48.5419 23.8997 48.7046 23.8792 49.0231 23.4998C49.1519 23.3469 49.28 23.1919 49.3947 23.0292C50.2305 21.8451 51.0904 20.6816 52.1782 19.7084C52.237 19.6561 52.2752 19.5803 52.317 19.5223ZM40.9152 74.0617C41.3703 74.073 41.8204 74.1459 42.0858 73.5946C42.6612 72.4013 43.284 71.2314 43.8835 70.0502C44.1192 69.5852 44.2508 69.1138 43.9635 68.6128C43.8835 68.4733 43.8481 68.3077 43.7957 68.1527C43.1913 66.3834 42.5841 64.6154 41.9896 62.8432C41.9195 62.6344 41.8056 62.5785 41.6223 62.6359C41.1346 62.7887 40.6541 62.7986 40.1664 62.6288C40.0228 62.5785 39.8727 62.5764 39.8041 62.7887C39.5252 63.6501 39.2407 64.51 38.9427 65.3649C38.5903 66.3756 38.23 67.3827 37.8571 68.3856C37.6603 68.9157 37.5315 69.4238 37.8889 69.9447C38.0326 70.1542 38.1196 70.4012 38.2393 70.6277C38.7941 71.6787 39.3228 72.7446 39.9442 73.7595C40.0758 73.9746 40.2379 74.0829 40.4913 74.0631C40.6314 74.0532 40.7737 74.0617 40.9152 74.0617ZM31.866 47.6975C31.67 47.7244 31.716 47.8589 31.7252 47.9721C31.7698 48.5008 31.8073 49.0302 31.8646 49.5568C31.9092 49.9659 31.934 50.3863 32.0465 50.7783C32.6792 52.9716 33.3339 55.1593 33.9864 57.3469C34.1605 57.9315 34.3537 58.5104 34.5427 59.0908C34.5753 59.1906 34.6156 59.3045 34.7288 59.3328C34.8131 59.3534 34.8378 59.2621 34.8683 59.1998C35.4861 57.9357 36.2654 56.7779 37.1698 55.7028C37.7927 54.9625 38.4516 54.281 39.5167 54.2583C39.5995 54.2569 39.7043 54.2527 39.7156 54.1543C39.7213 54.104 39.6533 54.0354 39.6038 53.9901C39.4997 53.8945 39.3893 53.8061 39.2768 53.7204C38.0758 52.8096 36.8938 51.8753 35.7437 50.9001C34.5491 49.8873 33.3473 48.883 32.1456 47.878C32.0592 47.8051 31.9885 47.6947 31.866 47.6975ZM50.0826 47.9913C50.101 47.9042 50.1378 47.7959 50.0331 47.7414C49.9205 47.6827 49.8307 47.7534 49.7471 47.8228C49.3395 48.1618 48.9311 48.4994 48.5249 48.8398C47.2177 49.9368 45.9034 51.0253 44.6096 52.1372C43.8948 52.7522 43.1375 53.3121 42.4086 53.908C42.3272 53.9745 42.2146 54.046 42.2352 54.1557C42.2599 54.2859 42.4001 54.2618 42.5013 54.2675C43.0845 54.3015 43.5586 54.569 43.9734 54.9569C44.7604 55.6936 45.3945 56.5571 45.9989 57.4417C46.3436 57.9464 46.6699 58.4651 46.9374 59.0179C46.9848 59.1156 47.0429 59.2217 47.1589 59.2231C47.2976 59.2253 47.2934 59.0858 47.3295 58.9917C47.6706 58.0999 47.9608 57.1912 48.2269 56.2747C48.5553 55.1437 48.8278 53.9964 49.1788 52.8733C49.6764 51.2801 50.0288 49.6658 50.0826 47.9913ZM59.3887 64.4994C59.3901 63.8114 59.1254 63.2983 58.6003 63.19C57.8062 63.0258 57.4417 62.512 57.2344 61.7937C56.9491 60.8078 56.1437 60.5268 55.2866 61.1043C54.6872 61.5084 54.1868 62.0272 53.7034 62.5566C52.4571 63.9211 51.2801 65.3451 50.1286 66.791C49.8476 67.1435 49.8653 67.2511 50.3091 67.3438C51.6588 67.6269 53.019 67.6516 54.3857 67.4882C54.5839 67.4641 54.6978 67.3629 54.7488 67.1626C54.8634 66.7068 54.9781 66.2489 55.1239 65.8023C55.2987 65.2666 55.3999 64.7046 55.6639 64.1993C55.741 64.0506 55.8351 63.8949 56.0326 63.9275C56.2145 63.9572 56.3122 64.1122 56.3497 64.2729C56.4226 64.585 56.4233 64.9028 56.327 65.2149C56.2881 65.3416 56.2003 65.423 56.0722 65.4251C55.8981 65.4279 55.8189 65.5192 55.7764 65.6714C55.6568 66.1003 55.5223 66.5249 55.4176 66.9573C55.3468 67.2496 55.4551 67.3452 55.753 67.2999C56.4622 67.1916 57.1629 67.0409 57.865 66.8901C58.3406 66.7882 58.7164 66.6679 58.8721 66.1286C59.0292 65.5815 59.393 65.1002 59.3887 64.4994ZM33.2256 57.1041C33.2758 58.0801 33.5561 58.9761 33.835 59.8679C34.2978 61.3499 34.7883 62.8227 35.3616 64.2672C35.8818 65.5787 36.4211 66.8823 36.9887 68.174C37.0368 68.283 37.0885 68.4047 37.2307 68.3976C37.3524 68.3912 37.3475 68.2674 37.3765 68.1825C37.9816 66.4379 38.5676 64.6855 39.2018 62.9515C39.3759 62.4759 39.3504 62.1044 39.1161 61.6571C38.4063 60.3031 37.6893 58.9535 36.9285 57.6279C36.7516 57.3193 36.6666 57.308 36.4642 57.5982C36.2632 57.8869 36.0778 58.1884 35.9058 58.4963C35.6539 58.9478 35.4253 59.4128 35.1761 59.8665C35.0495 60.0979 34.8322 60.1701 34.576 60.1538C34.3205 60.1375 34.2646 59.9288 34.186 59.7511C34.1011 59.5586 34.0395 59.3555 33.968 59.1573C33.7224 58.4758 33.4761 57.7956 33.2256 57.1041ZM48.6077 57.165C48.4314 57.6357 48.2531 58.1056 48.0811 58.5777C47.936 58.9754 47.8051 59.3788 47.6565 59.7752C47.5857 59.9641 47.4909 60.1474 47.2488 60.1637C47.0131 60.18 46.8419 60.0703 46.7173 59.8792C46.6663 59.8006 46.6218 59.7171 46.5786 59.6343C46.2466 58.9988 45.9048 58.3689 45.517 57.7652C45.2261 57.3136 45.1249 57.3122 44.8517 57.7631C44.8333 57.7935 44.8205 57.8268 44.8029 57.8572C44.0166 59.1835 43.3591 60.5799 42.6046 61.9232C42.4496 62.1992 42.4383 62.4462 42.536 62.73C42.819 63.5531 43.0901 64.3797 43.3725 65.2036C43.7151 66.205 44.0633 67.2051 44.4115 68.2051C44.4412 68.29 44.4497 68.416 44.5679 68.4118C44.6825 68.4075 44.7399 68.3013 44.783 68.2016C44.9182 67.8887 45.052 67.5759 45.1886 67.2638C46.0881 65.217 46.9077 63.1384 47.6296 61.0236C48.0563 59.7674 48.4725 58.5027 48.6077 57.165ZM40.8876 62.1829C41.5076 62.1511 42.0115 61.9345 42.3123 61.3308C42.916 60.1198 43.5296 58.9131 44.2084 57.7411C44.8581 56.6193 44.8949 56.9343 44.0477 55.8557C43.7936 55.5323 43.5211 55.3808 43.1135 55.5726C42.9804 55.6349 42.8148 55.6363 42.6626 55.6504C41.4871 55.7609 40.2754 55.9243 39.1445 55.6228C38.1656 55.3624 37.7721 55.8599 37.3227 56.4743C37.2951 56.5125 37.2696 56.5521 37.2406 56.5896C37.1224 56.7397 37.1309 56.8925 37.23 57.0468C38.1104 58.4269 38.8465 59.8863 39.5783 61.3471C39.8579 61.9069 40.2549 62.2056 40.8876 62.1829ZM40.647 55.0382C40.2386 54.729 39.8352 54.9682 39.4275 55.0517C39.8324 55.1104 40.2365 55.1472 40.647 55.0382ZM42.3852 55.0482C42.032 54.9193 41.7567 54.8026 41.4474 54.8606C41.354 54.8783 41.2578 54.9377 41.2641 55.0418C41.2705 55.1437 41.3823 55.1416 41.4581 55.1395C41.7419 55.1295 42.0299 55.1458 42.3852 55.0482Z" fill="#201011"/>
<path d="M27.2813 27.3216C27.0952 27.4547 26.8935 27.4165 26.7151 27.4738C26.1489 27.6564 25.6656 27.9501 25.3457 28.4696C25.2239 28.6685 25.1227 28.8695 25.4709 28.9381C25.6415 28.9714 25.5693 29.0535 25.5304 29.1398C25.2834 29.6912 25.2841 30.2828 25.2466 30.8681C25.2381 31.0012 25.2614 31.1357 25.3917 31.2071C25.558 31.2991 25.6103 31.1328 25.7031 31.0564C26.1213 30.7138 26.5446 30.3805 27.1688 30.3154C26.9628 30.6197 26.7979 30.8957 26.6005 31.1449C26.471 31.3083 26.4158 31.4987 26.3337 31.6785C26.2855 31.7832 26.2601 31.9566 26.4179 31.9665C26.7519 31.9878 26.6437 32.1782 26.6104 32.3593C26.4511 33.2249 26.7123 33.9857 27.1964 34.6892C27.2658 34.7897 27.3422 34.8053 27.4101 34.6836C27.5135 34.4989 27.6154 34.3127 27.7237 34.1308C27.752 34.0834 27.7959 34.0233 27.8412 34.0141C27.9247 33.9971 27.9601 34.0777 27.982 34.1436C28.2063 34.8173 28.4144 35.4854 28.1816 36.2137C28.0464 36.6376 27.9919 37.0871 27.8971 37.5245C27.8504 37.7403 27.7704 37.8812 27.5121 37.7247C26.386 37.0439 25.2211 36.4175 24.3421 35.3977C23.9096 34.8959 23.6584 34.3071 23.4631 33.6864C23.4086 33.513 23.3831 33.244 23.2019 33.2433C23.0512 33.2433 23.0455 33.5264 22.9818 33.6857C22.9471 33.772 22.9386 33.869 22.9131 33.9596C22.8735 34.0997 22.9315 34.3078 22.7461 34.3545C22.5755 34.3976 22.4878 34.2094 22.3887 34.1075C21.676 33.3714 21.1778 32.4966 20.7694 31.5638C20.6597 31.3126 20.6038 31.0238 20.3745 30.8235C20.2641 30.9502 20.2612 31.0974 20.2145 31.227C20.1855 31.3076 20.1445 31.3812 20.0475 31.3848C19.9392 31.3883 19.9208 31.2949 19.8939 31.2199C19.6405 30.5199 19.4155 29.8143 19.4233 29.0556C19.4303 28.3875 19.4247 27.7187 19.4247 27.0491C19.3787 27.0491 19.3553 27.0456 19.3341 27.0499C19.2067 27.0753 19.2159 27.323 19.0446 27.2516C18.862 27.1751 18.9186 26.9876 18.9243 26.8439C18.9505 26.168 19.068 25.5105 19.3574 24.8905C19.5294 24.5225 19.8288 24.3088 20.1947 24.1785C20.4183 24.0993 20.6293 23.9981 20.8352 23.882C20.8954 23.848 20.9845 23.8254 20.976 23.744C20.964 23.6364 20.855 23.6435 20.7793 23.6371C20.2938 23.5918 19.8139 23.6322 19.3433 23.7638C19.2251 23.7971 19.085 23.9089 18.993 23.7673C18.9137 23.6456 19.0234 23.5218 19.0942 23.4149C19.8996 22.1947 20.9937 21.3405 22.3604 20.8295C22.6782 20.7106 22.9889 20.5776 23.2798 20.3808C23.1219 20.1649 22.8954 20.2753 22.7143 20.2194C22.6173 20.1897 22.4821 20.2131 22.4722 20.0666C22.4644 19.942 22.5855 19.9328 22.6668 19.8995C23.7603 19.4558 24.8962 19.3199 26.0619 19.4713C26.4335 19.5195 26.8128 19.5499 27.1688 19.6893C27.2424 19.7184 27.3372 19.7601 27.3981 19.6815C27.4491 19.615 27.3705 19.5542 27.345 19.4926C27.3089 19.4069 27.1433 19.344 27.2686 19.2307C27.3677 19.1415 27.4972 19.2081 27.6034 19.247C28.3925 19.5386 29.0344 20.0425 29.6254 20.6299C30.6495 21.6484 31.4662 22.8324 32.3311 23.9768C32.8895 24.7157 33.3785 24.8325 34.1379 24.3357C35.3425 23.5472 36.6702 23.0759 38.0695 22.8048C40.0893 22.4134 42.1192 22.4375 44.1383 22.8013C45.5227 23.0504 46.7987 23.5876 47.9375 24.4298C48.3041 24.7009 48.9015 24.6124 49.2843 24.2203C49.7387 23.7539 50.0636 23.1877 50.4521 22.6711C51.288 21.5585 52.1415 20.4636 53.322 19.6794C53.5994 19.4954 53.9116 19.3878 54.2053 19.2399C54.3157 19.184 54.4693 19.1083 54.5655 19.2236C54.6646 19.3418 54.499 19.4246 54.4551 19.5251C54.4325 19.5761 54.4183 19.6306 54.3815 19.7368C54.7658 19.6582 55.1048 19.5775 55.4488 19.5209C56.7425 19.3064 58.0066 19.397 59.2253 19.9137C59.3187 19.9533 59.4574 19.9597 59.4468 20.1005C59.4341 20.269 59.2763 20.2279 59.1708 20.2499C59.008 20.2838 58.7362 20.1508 58.7044 20.3497C58.6775 20.5167 58.9564 20.5832 59.1255 20.6547C60.1623 21.0914 61.161 21.5847 61.9239 22.4502C62.2049 22.7694 62.4639 23.1035 62.7038 23.4538C62.7732 23.555 62.8504 23.6831 62.7916 23.7773C62.7194 23.8933 62.5814 23.8176 62.4703 23.7787C62.0626 23.6364 61.6344 23.6456 61.2119 23.6223C61.0881 23.6152 60.9522 23.6286 60.8333 23.7758C61.1454 23.9167 61.4327 24.0681 61.735 24.1771C62.0697 24.2982 62.2919 24.519 62.4328 24.8332C62.7194 25.4751 62.8603 26.1524 62.914 26.8503C62.9247 26.9897 62.9622 27.1532 62.8157 27.2353C62.643 27.3315 62.6034 27.1037 62.4823 27.0534C62.3825 27.1433 62.4257 27.2558 62.425 27.3549C62.42 28.0273 62.4172 28.6996 62.42 29.3713C62.4222 30.0372 62.1815 30.6374 61.9267 31.234C61.8921 31.3161 61.8744 31.4442 61.7604 31.4379C61.6437 31.4322 61.6578 31.3013 61.6238 31.2185C61.58 31.1116 61.529 31.0076 61.4462 30.8257C61.2126 31.3069 61.0152 31.7245 60.8078 32.1371C60.4249 32.9001 59.9253 33.5809 59.3343 34.1952C59.2564 34.2759 59.192 34.4076 59.0491 34.3644C58.8941 34.3177 58.9075 34.1648 58.8813 34.0409C58.8403 33.8449 58.8028 33.6481 58.7568 33.4535C58.7377 33.3728 58.7001 33.2858 58.6046 33.2801C58.4928 33.2738 58.5013 33.3856 58.4694 33.4542C58.2429 33.9433 58.129 34.4769 57.8317 34.9398C57.4156 35.5881 56.8501 36.0807 56.2308 36.5096C55.6229 36.9314 54.9859 37.3121 54.3532 37.6971C54.0078 37.9073 53.9491 37.8684 53.8712 37.482C53.7806 37.0312 53.7141 36.5725 53.5789 36.1352C53.3574 35.4161 53.6249 34.7996 53.9123 34.1782C53.9845 34.0211 54.0843 34.0806 54.1564 34.1712C54.2584 34.2993 54.3348 34.4479 54.4353 34.5774C54.5591 34.7374 54.6639 34.7954 54.7892 34.5491C55.1466 33.8477 55.4608 33.1435 55.2754 32.3254C55.2449 32.1923 55.2676 32.0819 55.4339 32.0805C55.6965 32.0777 55.6512 31.9205 55.5847 31.7726C55.4063 31.3763 55.235 30.975 54.93 30.6509C54.8727 30.59 54.7495 30.5312 54.8345 30.423C54.8953 30.3451 54.9965 30.3989 55.0645 30.4322C55.4318 30.6126 55.8253 30.7485 56.1233 31.05C56.2117 31.1392 56.3073 31.268 56.4509 31.2071C56.5996 31.1442 56.55 30.9842 56.5557 30.8596C56.5776 30.3324 56.6357 29.8023 56.4311 29.2927C56.3957 29.2035 56.4424 29.1405 56.5189 29.086C56.7425 28.9254 56.6887 28.7477 56.5769 28.5326C56.2294 27.8638 55.6399 27.5403 54.9555 27.3407C54.867 27.3153 54.7495 27.3294 54.7531 27.1964C54.7552 27.0959 54.8507 27.0768 54.9293 27.0506C55.2725 26.9352 55.5925 26.7639 55.9633 26.713C56.3455 26.6606 56.4686 26.2253 56.2323 25.921C55.5627 25.0597 54.6688 24.7957 53.6278 24.9394C53.1706 25.0024 52.8252 25.3223 52.4303 25.5275C52.2965 25.5969 52.2838 25.7568 52.3276 25.9083C52.3694 26.0534 52.4607 26.1185 52.61 26.1255C52.8103 26.1347 53.0099 26.151 53.2095 26.1701C53.3022 26.1793 53.4084 26.1857 53.4409 26.2961C53.4721 26.4016 53.4048 26.4653 53.3263 26.5304C53.1267 26.696 52.9391 26.8743 52.8181 27.1107C52.6773 27.3853 52.7346 27.4922 53.0446 27.5304C53.0566 27.5318 53.0686 27.5304 53.08 27.5332C53.2328 27.5708 53.4565 27.4766 53.5237 27.6621C53.5895 27.8439 53.3645 27.9246 53.2711 28.052C53.1946 28.1554 53.1097 28.2523 53.034 28.3563C52.8259 28.6437 52.8641 28.7435 53.213 28.8199C53.3043 28.8397 53.4161 28.8355 53.4423 28.9473C53.4706 29.0712 53.373 29.1313 53.2852 29.1964C53.1062 29.3295 52.9434 29.481 52.8004 29.6558C52.6376 29.8546 52.6539 29.9926 52.9037 30.0804C53 30.1144 53.1309 30.1066 53.1408 30.2489C53.15 30.3812 53.0226 30.4095 52.9427 30.4732C52.506 30.8186 52.046 31.1555 52.0162 31.779C51.9985 32.1555 52.053 32.5327 52.1443 32.8994C52.6808 35.0601 53.1656 37.2329 53.4614 39.4396C53.7792 41.8105 53.0821 43.8538 51.3594 45.5425C49.7295 47.1399 47.8087 48.2262 45.6473 48.9269C44.1369 49.4167 42.6096 49.7769 41.0115 49.7557C39.6661 49.738 38.3568 49.5341 37.0553 49.1633C35.8011 48.8059 34.6058 48.3409 33.4691 47.7152C31.8314 46.8136 30.3742 45.7003 29.3168 44.1256C28.6048 43.0647 28.3104 41.8806 28.2814 40.618C28.2601 39.693 28.4399 38.7899 28.5822 37.8826C28.8185 36.3815 29.1993 34.9108 29.5277 33.4287C29.614 33.0388 29.7372 32.6573 29.8051 32.261C29.9205 31.5844 29.6792 31.0359 29.0875 30.6735C29.0089 30.6254 28.9367 30.5673 28.8653 30.5093C28.6345 30.3218 28.6501 30.2163 28.9226 30.0875C29.2481 29.9339 29.2701 29.8023 28.9955 29.5531C28.8391 29.4109 28.6593 29.2941 28.5015 29.154C28.3564 29.0245 28.3245 28.9084 28.5631 28.8313C29.079 28.6649 29.0832 28.6522 28.7747 28.1992C28.6961 28.0839 28.5829 27.9926 28.493 27.8843C28.3472 27.7095 28.3592 27.5977 28.6147 27.5552C28.7874 27.5262 29.028 27.6536 29.1215 27.4228C29.2241 27.1695 28.9919 27.0166 28.8631 26.8446C28.7718 26.7236 28.6522 26.6231 28.5425 26.5169C28.3854 26.3648 28.442 26.26 28.6253 26.2218C28.82 26.1815 29.0231 26.1793 29.2213 26.1539C29.3423 26.1383 29.5051 26.1808 29.5454 26.0102C29.5843 25.8453 29.5638 25.6867 29.4251 25.5558C28.5178 24.7023 26.9912 24.6952 26.064 25.5452C25.977 25.6252 25.8949 25.7101 25.8135 25.795C25.3902 26.236 25.4787 26.5389 26.0852 26.7278C26.8687 26.9727 27.0145 27.0435 27.2813 27.3216ZM37.4891 40.4092C37.5054 40.4092 37.5217 40.4092 37.5379 40.4092C37.5379 41.5055 37.5231 42.6025 37.5429 43.6981C37.5578 44.5262 37.6703 45.3337 38.061 46.0931C38.5054 46.9565 39.7836 47.7747 40.8105 47.3656C40.9507 47.3097 41.0837 47.3408 41.2217 47.3939C41.6032 47.5404 41.9847 47.4973 42.3612 47.3699C43.3089 47.05 43.8008 46.3295 44.0867 45.4186C44.3528 44.5715 44.3316 43.6924 44.3556 42.8262C44.4108 40.8827 44.3953 38.9378 44.4363 36.9944C44.4568 36.0297 44.006 35.3835 43.1518 35.0466C41.7625 34.4989 40.3293 34.5095 38.9308 34.9851C37.9074 35.3333 37.4926 36.0325 37.4898 37.1203C37.487 38.2173 37.4891 39.3129 37.4891 40.4092ZM34.2505 35.5456C33.2334 35.5456 32.5561 36.1946 32.5547 37.1699C32.5533 38.0234 33.317 38.705 34.2774 38.7064C35.1642 38.7078 35.9165 37.9746 35.92 37.1062C35.9229 36.2562 35.1628 35.5456 34.2505 35.5456ZM47.7181 35.5477C46.7662 35.5265 46.0613 36.1861 46.0393 37.1189C46.0195 37.9625 46.7478 38.6512 47.6565 38.6965C48.6608 38.746 49.3459 37.9045 49.365 37.2201C49.3926 36.2562 48.7174 35.5697 47.7181 35.5477Z" fill="#B3BFB6"/>
<path d="M40.9149 74.0615C40.7734 74.0615 40.6311 74.0523 40.491 74.0636C40.2376 74.0834 40.0755 73.9751 39.9439 73.76C39.3225 72.7444 38.7938 71.6792 38.239 70.6282C38.1193 70.4017 38.0323 70.154 37.8886 69.9452C37.5312 69.4251 37.66 68.9162 37.8568 68.3861C38.2298 67.3832 38.59 66.3754 38.9424 65.3654C39.2404 64.5105 39.5249 63.6506 39.8038 62.7893C39.8724 62.5769 40.0218 62.5791 40.1661 62.6293C40.6538 62.7992 41.1343 62.7893 41.622 62.6364C41.8053 62.5791 41.9192 62.635 41.9893 62.8438C42.5845 64.6159 43.1917 66.3839 43.7954 68.1532C43.8485 68.3082 43.8832 68.4738 43.9632 68.6133C44.2505 69.1144 44.1189 69.5857 43.8832 70.0507C43.2837 71.2319 42.6609 72.4025 42.0855 73.5951C41.8201 74.1457 41.37 74.0728 40.9149 74.0615Z" fill="#F6BD41"/>
<path d="M31.8658 47.6974C31.9889 47.6945 32.059 47.8057 32.1453 47.8779C33.3471 48.8821 34.5488 49.8871 35.7435 50.8999C36.8936 51.8752 38.0755 52.8094 39.2765 53.7203C39.3891 53.8059 39.4995 53.8944 39.6035 53.9899C39.6524 54.0352 39.721 54.1039 39.7153 54.1541C39.704 54.2525 39.5993 54.2567 39.5165 54.2582C38.4513 54.2808 37.7924 54.9624 37.1696 55.7027C36.2651 56.7777 35.4859 57.9356 34.868 59.1996C34.8376 59.2619 34.8121 59.3532 34.7286 59.3327C34.6146 59.3044 34.5743 59.1904 34.5425 59.0906C34.3535 58.5103 34.161 57.9313 33.9862 57.3467C33.3336 55.1591 32.679 52.9715 32.0462 50.7782C31.933 50.3861 31.9089 49.9664 31.8644 49.5566C31.807 49.0294 31.7688 48.5 31.7249 47.972C31.715 47.8587 31.6697 47.7243 31.8658 47.6974Z" fill="#E3E3E3"/>
<path d="M50.0823 47.9911C50.0285 49.6656 49.6761 51.28 49.1778 52.8731C48.8268 53.9963 48.5543 55.1443 48.2259 56.2745C47.9598 57.1904 47.6703 58.0998 47.3285 58.9916C47.2924 59.0857 47.2973 59.2251 47.1579 59.223C47.0419 59.2216 46.9838 59.1147 46.9364 59.0177C46.6689 58.4657 46.3426 57.9469 45.9979 57.4416C45.3935 56.5569 44.7594 55.6935 43.9724 54.9567C43.5576 54.5689 43.0835 54.3013 42.5003 54.2674C42.3991 54.2617 42.2589 54.2858 42.2342 54.1555C42.2136 54.0458 42.3255 53.9744 42.4076 53.9078C43.1372 53.3119 43.8938 52.7521 44.6086 52.1371C45.9024 51.0245 47.2174 49.9367 48.5239 48.8397C48.9301 48.4986 49.3385 48.161 49.7461 47.8227C49.8297 47.7533 49.9195 47.6825 50.0321 47.7413C50.1375 47.7958 50.1007 47.9041 50.0823 47.9911Z" fill="#E3E3E3"/>
<path d="M59.3886 64.4992C59.3928 65.0993 59.029 65.5813 58.8712 66.1277C58.7155 66.6663 58.3397 66.7866 57.8641 66.8892C57.1627 67.04 56.4621 67.19 55.7522 67.299C55.4542 67.3443 55.346 67.2487 55.4167 66.9564C55.5215 66.524 55.6559 66.0994 55.7756 65.6705C55.818 65.519 55.898 65.427 56.0714 65.4242C56.1995 65.4221 56.2873 65.3407 56.3262 65.214C56.4224 64.9019 56.4217 64.5841 56.3488 64.272C56.3113 64.1113 56.2129 63.9556 56.0318 63.9266C55.8343 63.8948 55.7402 64.0505 55.663 64.1984C55.399 64.7037 55.2985 65.2656 55.123 65.8014C54.9772 66.248 54.8626 66.7052 54.7479 67.1617C54.697 67.3627 54.583 67.4639 54.3848 67.4872C53.0182 67.6507 51.6579 67.626 50.3082 67.3429C49.8645 67.2502 49.8475 67.1426 50.1278 66.7901C51.2793 65.3442 52.4562 63.9202 53.7026 62.5557C54.186 62.0263 54.687 61.5075 55.2858 61.1034C56.1422 60.5259 56.9476 60.8069 57.2335 61.7928C57.4416 62.5111 57.8054 63.0249 58.5994 63.1891C59.1253 63.2981 59.39 63.8112 59.3886 64.4992Z" fill="#F6BD41"/>
<path d="M33.2253 57.1039C33.4759 57.7947 33.7222 58.4755 33.9685 59.1564C34.04 59.3546 34.1015 59.5577 34.1865 59.7502C34.265 59.9278 34.3209 60.1366 34.5764 60.1529C34.8326 60.1692 35.0492 60.097 35.1766 59.8656C35.4257 59.4119 35.6543 58.9476 35.9063 58.4954C36.0783 58.1875 36.2637 57.8867 36.4647 57.5972C36.6671 57.3064 36.752 57.3184 36.929 57.627C37.6898 58.9526 38.4067 60.3022 39.1166 61.6561C39.3509 62.1034 39.3763 62.475 39.2022 62.9506C38.5674 64.6846 37.9821 66.4362 37.377 68.1815C37.3479 68.2665 37.3522 68.3903 37.2312 68.3967C37.0889 68.4038 37.0372 68.282 36.9891 68.173C36.4215 66.8814 35.8822 65.5777 35.362 64.2663C34.7887 62.8218 34.2983 61.349 33.8354 59.867C33.5566 58.9759 33.2756 58.0799 33.2253 57.1039Z" fill="#E3E3E3"/>
<path d="M48.6074 57.1649C48.4715 58.5025 48.056 59.7672 47.6271 61.0235C46.906 63.1389 46.0857 65.2168 45.1861 67.2636C45.0488 67.5757 44.9158 67.8886 44.7806 68.2014C44.7374 68.3019 44.6801 68.4074 44.5654 68.4116C44.4465 68.4158 44.4381 68.2899 44.409 68.2049C44.0615 67.2049 43.7133 66.2049 43.3701 65.2034C43.0884 64.3796 42.8166 63.5529 42.5335 62.7298C42.4358 62.446 42.4472 62.199 42.6022 61.923C43.3573 60.5797 44.0141 59.184 44.8004 57.857C44.8181 57.8266 44.8308 57.7933 44.8493 57.7629C45.1224 57.3121 45.2244 57.3135 45.5145 57.765C45.9024 58.3687 46.2442 58.9986 46.5761 59.6342C46.6193 59.7177 46.6639 59.8005 46.7149 59.879C46.8394 60.0701 47.0107 60.1798 47.2464 60.1636C47.4884 60.1473 47.5833 59.964 47.654 59.775C47.8027 59.3787 47.9343 58.9753 48.0787 58.5775C48.2528 58.1054 48.4318 57.6355 48.6074 57.1649Z" fill="#E3E3E3"/>
<path d="M40.8875 62.1827C40.2555 62.2054 39.8578 61.9074 39.5775 61.3476C38.8464 59.8868 38.1104 58.4267 37.2292 57.0473C37.1309 56.893 37.1216 56.7402 37.2398 56.5901C37.2689 56.5533 37.2943 56.513 37.3219 56.4748C37.7714 55.8604 38.1649 55.3622 39.1437 55.6233C40.2746 55.9241 41.4863 55.7614 42.6619 55.6509C42.814 55.6368 42.9796 55.6354 43.1127 55.5731C43.5204 55.3813 43.7928 55.5328 44.0469 55.8562C44.8941 56.9355 44.8573 56.6198 44.2076 57.7416C43.5288 58.9136 42.9152 60.1196 42.3115 61.3313C42.0114 61.9343 41.5075 62.1501 40.8875 62.1827Z" fill="#F6BD41"/>
<path d="M40.6469 55.038C40.2364 55.147 39.8323 55.1102 39.4275 55.0515C39.8352 54.968 40.2386 54.7288 40.6469 55.038Z" fill="#B3BFB6"/>
<path d="M42.3851 55.048C42.0291 55.1457 41.7418 55.1294 41.458 55.1393C41.3822 55.1421 41.2704 55.1436 41.264 55.0416C41.257 54.9376 41.3539 54.8781 41.4473 54.8605C41.7566 54.8024 42.0319 54.9192 42.3851 55.048Z" fill="#B3BFB6"/>
<path d="M37.4888 40.4093C37.4888 39.313 37.4867 38.2167 37.4895 37.1204C37.4916 36.0326 37.9064 35.3333 38.9305 34.9851C40.329 34.5095 41.7622 34.4989 43.1515 35.0467C44.0057 35.3836 44.4558 36.0298 44.436 36.9944C44.3957 38.9379 44.4105 40.8835 44.3553 42.8262C44.3306 43.6925 44.3525 44.5715 44.0864 45.4187C43.7997 46.3295 43.3086 47.05 42.3609 47.3699C41.9844 47.4973 41.6022 47.5405 41.2214 47.394C41.0841 47.3409 40.9511 47.3098 40.8102 47.3657C39.784 47.7747 38.5051 46.9559 38.0607 46.0931C37.67 45.3344 37.5575 44.5262 37.5426 43.6981C37.5228 42.6018 37.5376 41.5056 37.5376 40.4093C37.5214 40.4093 37.5051 40.4093 37.4888 40.4093ZM38.2864 42.1928C38.3211 42.1857 38.3374 42.1878 38.343 42.1807C39.3077 40.9019 42.201 40.79 43.3772 42.0265C43.4232 42.0753 43.4692 42.1581 43.5485 42.1241C43.6653 42.0739 43.6079 41.9606 43.6087 41.8729C43.6179 40.1764 43.6193 38.4807 43.6384 36.7842C43.6426 36.385 43.4643 36.1161 43.1599 35.8981C42.7141 35.5782 42.2109 35.4685 41.6701 35.4331C40.8421 35.3786 40.0289 35.3857 39.2291 35.6546C38.6226 35.8585 38.2758 36.2583 38.2701 36.8755C38.2567 38.4184 38.2489 39.962 38.2525 41.5048C38.2539 41.7313 38.1973 41.9691 38.2864 42.1928ZM42.6497 42.7392C42.2986 42.081 41.0091 41.6598 40.5066 42.0831C41.3134 42.1326 41.9681 42.473 42.6497 42.7392Z" fill="#201011"/>
<path d="M34.2504 35.5455C35.1627 35.5455 35.9228 36.2561 35.92 37.1068C35.9172 37.9752 35.1641 38.7084 34.2773 38.707C33.3169 38.7049 32.5533 38.024 32.5547 37.1705C32.5561 36.1945 33.2327 35.5455 34.2504 35.5455ZM34.3198 36.4797C34.3311 36.7798 34.5753 37.0643 34.7862 37.0516C35.0382 37.0353 35.0842 36.8633 35.0757 36.6539C35.0629 36.3396 34.8619 36.0806 34.6376 36.1146C34.4189 36.1478 34.3368 36.312 34.3198 36.4797Z" fill="#201011"/>
<path d="M47.7175 35.5477C48.7168 35.5703 49.392 36.2568 49.3651 37.22C49.3453 37.9044 48.6609 38.7459 47.6566 38.6964C46.7479 38.6518 46.0196 37.9625 46.0395 37.1188C46.0607 36.1853 46.7656 35.5257 47.7175 35.5477ZM48.559 36.6694C48.5647 36.3778 48.3686 36.1018 48.1443 36.111C47.9121 36.1209 47.8293 36.2865 47.8187 36.4918C47.8053 36.7537 48.0325 37.0417 48.2533 37.0459C48.5116 37.0516 48.5527 36.8726 48.559 36.6694Z" fill="#201011"/>
<path d="M38.2867 42.1927C38.1975 41.9683 38.2534 41.7305 38.2534 41.5047C38.2498 39.9619 38.2576 38.4183 38.2711 36.8754C38.2767 36.2582 38.6228 35.8584 39.2301 35.6545C40.0298 35.3856 40.843 35.3785 41.6711 35.433C42.2125 35.4684 42.715 35.5781 43.1609 35.898C43.4652 36.116 43.6436 36.3849 43.6393 36.7841C43.6202 38.4799 43.6188 40.1763 43.6096 41.8728C43.6089 41.9605 43.6662 42.0738 43.5494 42.124C43.4709 42.158 43.4249 42.0745 43.3782 42.0264C42.2019 40.7899 39.3086 40.9025 38.344 42.1806C38.3383 42.1877 38.3213 42.1863 38.2867 42.1927Z" fill="#B3BFB6"/>
<path d="M42.6496 42.739C41.9681 42.4729 41.3134 42.1325 40.5066 42.0829C41.0091 41.6597 42.2993 42.0808 42.6496 42.739Z" fill="#B3BFB6"/>
<path d="M34.3196 36.4798C34.3373 36.3121 34.4187 36.1472 34.6374 36.1139C34.861 36.0799 35.062 36.339 35.0754 36.6532C35.0839 36.8627 35.0379 37.0347 34.786 37.051C34.5751 37.0651 34.3309 36.7799 34.3196 36.4798Z" fill="#B3BFB6"/>
<path d="M48.5592 36.6693C48.5529 36.8725 48.5111 37.0515 48.2542 37.0466C48.0334 37.0423 47.8062 36.7543 47.8197 36.4924C47.8303 36.2865 47.9131 36.1216 48.1452 36.1116C48.3696 36.1017 48.5656 36.3778 48.5592 36.6693Z" fill="#B3BFB6"/>
<path d="M41.9237 49.0313C41.7126 49.0498 41.4737 49.0168 41.2408 48.9468C41.0337 48.8842 40.8344 48.9073 40.6266 48.9627C39.8349 49.1725 39.1587 48.9534 38.5939 48.3729C38.4567 48.2317 38.3346 48.0753 38.2079 47.9236C38.1717 47.8807 38.1479 47.8239 38.1895 47.7745C38.2376 47.7171 38.2858 47.7646 38.3333 47.7896C39.1039 48.2007 39.9134 48.3306 40.7698 48.1301C41.1023 48.0522 41.4236 48.1525 41.7475 48.2C42.3631 48.2904 42.9391 48.1881 43.4939 47.9044C43.6378 47.8305 43.8495 47.6537 43.9591 47.7764C44.0897 47.9222 43.8753 48.0971 43.7684 48.2092C43.2802 48.7258 42.7042 49.0755 41.9237 49.0313Z" fill="#8B8E87"/>
<path d="M29.572 30.9832C29.737 30.8381 29.7653 30.632 29.7922 30.4373C29.8737 29.8504 30.0641 29.2917 30.2163 28.7239C30.2496 28.6 30.3048 28.4789 30.3678 28.3671C30.5236 28.0902 30.6298 28.0888 30.8274 28.3352C30.9045 28.4308 30.9576 28.5929 31.1099 28.5653C31.2515 28.5398 31.2281 28.377 31.26 28.2708C31.5389 27.3305 31.997 26.4936 32.681 25.7863C32.7652 25.6992 32.8431 25.5456 32.9953 25.6164C33.1249 25.6766 33.0704 25.826 33.0725 25.9378C33.0874 26.6204 33.0321 27.3036 33.1199 27.9854C33.2056 28.6488 33.4577 29.257 33.7133 29.8624C34.2464 31.1255 35.0323 32.2392 35.7913 33.3714C36.311 34.1466 36.9666 34.8058 37.5168 35.5507C37.6924 35.7886 37.8325 35.523 37.9819 35.5797C37.5444 36.1192 37.504 36.7493 37.5168 37.4113C37.5451 38.9208 37.5394 40.4311 37.5451 41.9413C37.5458 42.0808 37.5748 42.2252 37.5061 42.359C37.3447 42.2684 37.3978 42.1105 37.3971 41.9774C37.3907 41.1164 37.3879 40.2555 37.3922 39.3945C37.3936 39.0993 37.2888 38.9662 36.9843 39.0738C36.8958 39.1049 36.8045 39.1283 36.7181 39.1644C36.1368 39.4058 35.7212 39.8526 35.295 40.2937C34.8277 40.7773 34.5572 41.3706 34.4305 42.0029C34.2641 42.8327 34.2124 43.6781 34.3349 44.5312C34.4383 45.2485 34.6068 45.9324 34.9792 46.5618C35.3417 47.175 35.7906 47.7244 36.3273 48.1761C36.9142 48.671 37.4828 49.2318 38.2998 49.3585C38.3954 49.3734 38.4875 49.3932 38.52 49.5037C38.4252 49.5299 38.3331 49.5164 38.2425 49.486C37.4283 49.2148 36.5829 49.0527 35.7764 48.7503C33.6403 47.951 31.7188 46.8259 30.1427 45.1536C28.9504 43.8883 28.3408 42.3902 28.3004 40.6505C28.2799 39.7591 28.4626 38.8925 28.5723 38.0174C28.5985 37.8107 28.7139 37.6124 28.6197 37.3965C28.6254 37.3597 28.6311 37.3228 28.6367 37.286C28.7429 37.1805 28.7755 37.0418 28.7989 36.9037C29.0261 35.5599 29.3561 34.2394 29.6974 32.9218C29.868 32.2605 29.9699 31.607 29.572 30.9832ZM32.5833 37.1451C32.5776 38.0124 33.3203 38.6865 34.2896 38.6922C35.1562 38.6978 35.9138 37.9728 35.9287 37.1239C35.9435 36.2743 35.1845 35.5584 34.2691 35.5577C33.253 35.5563 32.5896 36.1808 32.5833 37.1451Z" fill="#8B8E87"/>
<path d="M44.1475 35.7297C44.4378 35.6624 44.5942 35.4181 44.75 35.2121C45.4078 34.3412 46.1257 33.5164 46.7431 32.6144C47.4079 31.6437 48.0197 30.6362 48.4947 29.5649C48.7808 28.9199 48.967 28.2154 48.9988 27.4876C49.0208 26.9955 49.1093 26.5077 48.9472 26.0191C48.9033 25.8874 48.8707 25.6892 49.0534 25.6141C49.2247 25.5433 49.2842 25.7211 49.3783 25.8202C50.0403 26.5176 50.4807 27.3304 50.6698 28.2763C50.6875 28.3662 50.7052 28.4788 50.8128 28.5022C50.941 28.5305 50.9919 28.4165 51.0535 28.3315C51.1357 28.2175 51.2114 28.0632 51.3686 28.0816C51.5463 28.1028 51.5258 28.2905 51.5669 28.4193C51.7764 29.0785 52.0426 29.72 52.185 30.4011C52.2196 30.5661 52.2664 30.7537 52.4703 30.816C52.2324 31.1381 51.9803 31.4674 52.015 31.8908C52.0455 32.2632 52.0844 32.6377 52.1842 33.0045C52.3421 33.5829 52.4951 34.1642 52.6069 34.7526C52.8696 36.1375 53.1734 37.5146 53.402 38.9073C53.7327 40.9188 53.4891 42.795 52.2742 44.4879C52.0561 44.7917 51.763 45.0395 51.6093 45.3906L51.61 45.3899C51.4925 45.4211 51.3955 45.4898 51.3183 45.579C51.0387 45.8997 50.7052 46.1617 50.376 46.4237C48.7447 47.7222 46.9137 48.6185 44.8916 49.1318C44.5772 49.2118 44.2459 49.2756 43.9676 49.4674C43.9216 49.4554 43.8749 49.4427 43.8289 49.4306C43.8381 49.3669 43.8728 49.3244 43.9315 49.2989C44.8682 48.8925 45.6039 48.2419 46.2708 47.4758C46.7615 46.9122 47.1396 46.2842 47.3506 45.5953C47.6508 44.6139 47.7513 43.593 47.5878 42.5564C47.33 40.9259 46.5647 39.7024 44.9518 39.1176C44.5298 38.9646 44.5348 38.9561 44.5305 39.4256C44.5164 40.9818 44.5666 42.5387 44.4654 44.0943C44.4519 44.3038 44.4562 44.5205 44.2997 44.6911C44.2707 43.9406 44.367 43.1951 44.3889 42.446C44.4271 41.1418 44.3854 39.8376 44.4229 38.5327C44.4484 37.5953 44.6176 36.6253 44.1475 35.7297ZM47.7577 35.559C46.7884 35.5392 46.0924 36.1786 46.0669 37.1139C46.0443 37.9359 46.7707 38.6446 47.6614 38.6708C48.5882 38.6977 49.3656 38.0244 49.3812 37.1804C49.3975 36.2543 48.7213 35.5789 47.7577 35.559Z" fill="#8B8E87"/>
<path d="M53.0953 26.684C53.2695 26.3222 53.2702 26.3215 52.8553 26.2471C52.7746 26.233 52.6918 26.228 52.6096 26.2209C52.4227 26.2046 52.2273 26.2195 52.177 25.9583C52.1261 25.6927 52.2096 25.5122 52.4383 25.3678C52.7718 25.1568 53.0911 24.9231 53.4614 24.6689C53.1704 24.5096 52.9495 24.6845 52.7265 24.6534C52.5183 24.6236 52.3031 24.6484 52.0907 24.6449C51.993 24.6427 51.8995 24.6208 51.8662 24.5111C51.8379 24.4169 51.8967 24.3525 51.9561 24.2951C52.451 23.8165 53.0076 23.42 53.6342 23.1375C53.9931 22.9754 54.3627 22.8614 54.7047 22.6369C55.126 22.3601 55.6676 22.3827 56.1491 22.4259C56.7403 22.479 57.3725 22.5541 57.8292 22.9909C58.203 23.3485 58.5089 23.7783 58.8403 24.179C58.9819 24.3503 59.1383 24.5089 59.2028 24.7369C59.2771 25.0003 59.2042 25.1384 58.9245 25.1065C58.6894 25.0796 58.5684 25.1129 58.5974 25.3982C58.6257 25.6772 58.4572 25.8067 58.1768 25.7777C58.0133 25.7607 57.8504 25.7296 57.6869 25.7267C57.575 25.7246 57.4738 25.7905 57.4582 25.9094C57.4412 26.0333 57.5488 26.0623 57.6437 26.0779C58.4742 26.2174 59.0463 27.3262 58.9734 28.1C58.9578 28.2643 58.9613 28.4101 58.722 28.3754C58.5039 28.3436 58.5436 28.5185 58.5585 28.6381C58.5889 28.8831 58.6477 29.1245 58.6767 29.3695C58.751 29.9919 58.5521 30.576 58.4105 31.1672C58.373 31.3229 58.2809 31.4582 58.1145 31.4858C57.9481 31.5134 57.9234 31.3392 57.8441 31.2458C57.7641 31.1516 57.7336 31.0058 57.5764 30.9909C57.4724 31.0539 57.5375 31.1403 57.5453 31.2132C57.6246 31.951 57.5177 32.6477 57.09 33.2714C56.9491 33.4768 56.8068 33.6722 56.491 33.5907C56.3225 33.5476 56.2121 33.7161 56.1342 33.8386C55.8085 34.3512 55.3929 34.7738 54.9376 35.1732C54.6834 35.3962 54.4144 35.479 54.1015 35.4684C53.8239 35.4592 53.6972 35.5852 53.7382 35.8515C53.8175 36.3605 53.906 36.8682 54.0052 37.3737C54.0363 37.5309 54.1 37.6661 54.3224 37.5429C55.4651 36.9107 56.593 36.2635 57.4603 35.2511C57.9651 34.662 58.1513 33.9249 58.4445 33.2367C58.4855 33.1404 58.4551 32.9578 58.6222 32.9755C58.7907 32.9932 58.8934 33.1362 58.8934 33.3005C58.8941 33.5546 58.9996 33.7812 59.0392 34.0233C59.064 34.1734 59.1511 34.2173 59.2806 34.2244C59.2686 34.2662 59.2559 34.308 59.2438 34.3497C59.1376 34.3951 59.035 34.3816 58.9351 34.3313L58.9365 34.3285C58.916 34.2393 58.8948 34.1508 58.8742 34.0616C58.8487 33.9179 58.8233 33.7734 58.7978 33.6297C58.7864 33.4895 58.7879 33.3288 58.6066 33.3054C58.5358 33.2962 58.5195 33.3989 58.5223 33.4718C58.516 33.5114 58.5089 33.5511 58.5032 33.5907C58.305 33.7458 58.3184 33.9915 58.2427 34.1989C58.22 34.2719 58.1967 34.3448 58.174 34.4184C58.1513 34.4637 58.128 34.5083 58.1046 34.5537C58.0104 34.64 57.9963 34.7632 57.9566 34.8751C57.8561 34.9162 57.8136 34.9997 57.7952 35.1003C57.7379 35.1817 57.6331 35.2284 57.6182 35.341C57.5524 35.3686 57.4964 35.4061 57.4787 35.4812C57.4504 35.518 57.4221 35.5548 57.3938 35.5923C57.2713 35.666 57.1566 35.7474 57.0928 35.8819C56.8649 36.0681 56.6369 36.2543 56.4089 36.4405C56.1391 36.5921 55.8637 36.7358 55.6662 36.9864C55.6322 36.9963 55.5989 37.0055 55.5649 37.0155C55.4446 37.0254 55.3688 37.0976 55.3115 37.196C55.2796 37.208 55.2477 37.2201 55.2159 37.2321C55.1337 37.2399 55.0714 37.2781 55.0318 37.3518L55.0098 37.3489L54.9936 37.3631C54.8767 37.3773 54.7981 37.4431 54.7443 37.5443C54.7104 37.555 54.6757 37.5663 54.6417 37.5769C54.5581 37.5882 54.4979 37.6307 54.4654 37.71C54.4038 37.7334 54.3415 37.756 54.2799 37.7794C54.2034 37.7992 54.1461 37.8438 54.1099 37.9146L54.0944 37.9033C54.0944 37.9033 54.0788 37.9146 54.0781 37.9146C54.0214 37.87 53.9648 37.8247 53.9082 37.7794C53.8933 37.6775 53.8784 37.5755 53.8636 37.4735C53.8735 37.3178 53.848 37.1712 53.7574 37.0402C53.7234 36.854 53.6901 36.6678 53.6561 36.4809C53.6717 36.4228 53.6618 36.3726 53.6136 36.3329C53.6044 36.2876 53.5952 36.2423 53.586 36.1977C53.6051 36.1396 53.5917 36.0908 53.5478 36.049C53.5343 35.9577 53.5216 35.8656 53.5081 35.7743C53.4529 35.2093 53.7135 34.7278 53.9145 34.2301C53.9775 34.0743 54.0731 34.0566 54.1744 34.1812C54.2848 34.3172 54.367 34.4765 54.4774 34.6124C54.5765 34.7342 54.6849 34.8149 54.7939 34.6004C55.1536 33.8917 55.5026 33.1829 55.3136 32.3489C55.2782 32.1945 55.3129 32.0911 55.492 32.0841C55.7384 32.0749 55.6782 31.9177 55.6223 31.7888C55.4432 31.3796 55.2718 30.9647 54.9475 30.6404C54.8937 30.5866 54.796 30.5264 54.859 30.4372C54.9185 30.3544 55.0183 30.4089 55.0863 30.4415C55.4757 30.6305 55.8935 30.7714 56.1979 31.1042C56.2687 31.1813 56.3586 31.2578 56.4762 31.2082C56.5824 31.1636 56.5689 31.056 56.5767 30.9633C56.622 30.4124 56.6553 29.8616 56.4719 29.3263C56.4344 29.2159 56.4684 29.1564 56.554 29.0884C56.7657 28.9235 56.7162 28.7422 56.6043 28.5277C56.256 27.86 55.669 27.5336 54.9815 27.3389C54.893 27.3141 54.7762 27.3262 54.7776 27.1945C54.779 27.0932 54.876 27.0755 54.9532 27.0479C55.2931 26.924 55.6138 26.7512 55.9848 26.7073C56.2815 26.6719 56.5066 26.2563 56.3657 26.0482C55.5635 24.8629 53.7906 24.4643 52.6946 25.4428C52.3817 25.4952 52.3498 25.6913 52.4348 25.9476C52.4468 26.1062 52.5551 26.1034 52.6705 26.09C52.9382 26.1211 53.2058 26.1515 53.4734 26.182C53.494 26.24 53.5138 26.2981 53.5336 26.3569C53.4338 26.4659 53.3332 26.5756 53.2334 26.6847C53.1881 26.684 53.1421 26.684 53.0953 26.684Z" fill="#8B8E87"/>
<path d="M28.0974 36.4732C27.9706 36.2749 28.12 36.0859 28.1207 35.8905C28.1221 35.5301 28.0343 35.3906 27.6782 35.414C27.1975 35.4451 26.91 35.1555 26.6402 34.8482C26.3075 34.468 26.0051 34.0602 25.7 33.6574C25.5938 33.5172 25.4989 33.4662 25.3573 33.6007C25.1456 33.8018 24.9976 33.6467 24.9035 33.4825C24.5197 32.8134 24.1947 32.1259 24.3526 31.3152C24.3724 31.2111 24.4284 31.0525 24.279 31.0079C24.1671 30.9747 24.1607 31.1269 24.1112 31.1998C24.0156 31.3407 23.8882 31.4703 23.7211 31.4696C23.5625 31.4696 23.5667 31.2805 23.52 31.1694C23.1794 30.3594 23.0435 29.5282 23.2693 28.658C23.3125 28.4916 23.4017 28.2558 23.0506 28.292C22.9075 28.3068 22.8934 28.1801 22.8849 28.0696C22.8346 27.3921 23.3168 26.5176 23.9179 26.2132C24.0092 26.1672 24.119 26.1558 24.2216 26.1353C24.3215 26.1148 24.41 26.0773 24.4135 25.9633C24.417 25.8578 24.3455 25.7827 24.2542 25.7494C24.0836 25.6878 23.9002 25.6723 23.7388 25.7601C23.5115 25.884 23.4209 25.7997 23.4435 25.5767C23.4754 25.2673 23.3819 25.1257 23.0456 25.1235C22.824 25.1221 22.7397 25.006 22.8452 24.7405C23.0031 24.3447 23.2934 24.0509 23.5235 23.7132C23.6538 23.522 23.8195 23.3577 23.942 23.1524C24.131 22.8359 24.4978 22.7835 24.8135 22.6596C25.4727 22.4012 26.156 22.4543 26.8385 22.4847C26.9072 22.4876 26.9914 22.5046 27.0381 22.5478C27.5324 23.0037 28.2106 23.0745 28.7742 23.3875C29.2359 23.6431 29.5807 24.0325 29.9941 24.3419C30.0657 24.3957 30.0954 24.4743 30.0565 24.5614C30.0147 24.6541 29.9255 24.6527 29.8433 24.6499C29.4907 24.6393 29.1431 24.5501 28.787 24.5847C28.6836 24.5947 28.5788 24.5954 28.4379 24.6024C28.588 24.977 29.0744 24.9607 29.1799 25.3253C29.0645 25.3388 28.9803 25.2751 28.8903 25.2163C28.5668 25.006 28.217 24.9083 27.8241 24.9076C26.8718 24.9062 26.1701 25.3685 25.5782 26.0581C25.5124 26.1353 25.4522 26.2514 25.5492 26.3024C25.7658 26.4164 25.8727 26.6508 26.1326 26.7315C26.5454 26.8596 27.0013 26.9361 27.3107 27.3135C27.2619 27.3432 27.235 27.3694 27.2031 27.3779C27.1125 27.402 27.0197 27.4204 26.9277 27.4395C26.265 27.5783 25.7234 27.899 25.3552 28.4817C25.2539 28.6424 25.1676 28.8357 25.421 28.9001C25.6412 28.9561 25.6009 29.0113 25.5336 29.1749C25.3077 29.7271 25.2978 30.3197 25.2667 30.9053C25.2603 31.0292 25.3042 31.1417 25.4246 31.1991C25.5577 31.2621 25.6044 31.1389 25.6809 31.0717C26.0455 30.7523 26.4271 30.4599 26.9107 30.3381C26.9872 30.319 27.0764 30.2468 27.1359 30.3325C27.1967 30.4203 27.099 30.4776 27.0502 30.5392C26.7861 30.8706 26.5418 31.2147 26.3811 31.6097C26.328 31.7407 26.2544 31.9163 26.4632 31.951C26.7592 31.9999 26.6679 32.1762 26.6374 32.344C26.5206 32.9798 26.6155 33.5908 26.9079 34.1593C27.0155 34.3682 27.1033 34.7116 27.3235 34.7151C27.4977 34.718 27.5939 34.3746 27.7016 34.1693C27.7426 34.0914 27.7582 33.9682 27.8849 33.9915C27.9756 34.0085 27.9961 34.1055 28.0209 34.1834C28.1625 34.6323 28.3133 35.0791 28.3289 35.5563C28.319 35.6724 28.3083 35.7878 28.2984 35.9039C28.2595 35.9492 28.2489 35.9988 28.2715 36.0547C28.2595 36.0993 28.2475 36.1432 28.2354 36.1878C28.1851 36.2254 28.171 36.2756 28.1859 36.3351C28.1575 36.3818 28.1278 36.4278 28.0974 36.4732Z" fill="#8B8E87"/>
<path d="M84.34 55.82L82.7 55.8C82.66 55.8 78.96 55.72 75.14 54.18C71.22 52.58 68.7 50.76 68.68 50.74L67.68 50L66.68 50.72C66.66 50.74 64.14 52.56 60.22 54.16C56.4 55.72 52.7 55.78 52.66 55.78L51 55.8V72.62C51 81.06 61.84 89.98 67.66 89.98C73.5 89.98 84.32 81.06 84.32 72.62L84.34 55.82Z" fill="#14993A"/>
<path d="M66.2011 77.908L59 71.7735L61.2144 69.1682L65.8343 73.1008L74.602 63L77.1909 65.2462L66.2011 77.908Z" fill="#F6BD41"/>
</svg>
